{
.appVersion = "3091";
.formatVersion = 3;
customParameters = (
{
name = vendorID;
value = NONE;
},
{
name = panose;
value = (
0,
0,
0,
0,
0,
0,
0,
0,
0,
0
);
},
{
name = unicodeRanges;
value = (
0,
1,
2,
3,
4,
5,
6,
7,
29,
31,
32,
33,
35,
38,
45,
62
);
},
{
name = codePageRanges;
value = (
"1252",
"1250",
"1254",
"1257",
"1258",
"bit 29"
);
},
{
name = fsType;
value = (
);
},
{
name = glyphOrder;
value = (
.notdef,
.null,
CR,
NULL,
CR.001,
space,
exclam,
quotedbl,
numbersign,
dollar,
percent,
ampersand,
quotesingle,
parenleft,
parenright,
asterisk,
plus,
comma,
hyphen,
period,
slash,
zero,
one,
two,
three,
four,
five,
six,
seven,
eight,
nine,
colon,
semicolon,
less,
equal,
greater,
question,
at,
A,
B,
C,
D,
E,
F,
G,
H,
I,
J,
K,
L,
M,
N,
O,
P,
Q,
R,
S,
T,
U,
V,
W,
X,
Y,
Z,
bracketleft,
backslash,
bracketright,
asciicircum,
underscore,
grave,
a,
b,
c,
d,
e,
f,
g,
h,
i,
j,
k,
l,
m,
n,
o,
p,
q,
r,
s,
t,
u,
v,
w,
x,
y,
z,
braceleft,
bar,
braceright,
asciitilde,
uni00A0,
exclamdown,
cent,
sterling,
currency,
yen,
brokenbar,
section,
dieresis,
copyright,
ordfeminine,
guillemotleft,
logicalnot,
uni00AD,
registered,
macron,
degree,
plusminus,
uni00B2,
uni00B3,
acute,
mu,
paragraph,
periodcentered,
cedilla,
uni00B9,
ordmasculine,
guillemotright,
onequarter,
onehalf,
threequarters,
questiondown,
Agrave,
Aacute,
Acircumflex,
Atilde,
Adieresis,
Aring,
AE,
Ccedilla,
Egrave,
Eacute,
Ecircumflex,
Edieresis,
Igrave,
Iacute,
Icircumflex,
Idieresis,
Eth,
Ntilde,
Ograve,
Oacute,
Ocircumflex,
Otilde,
Odieresis,
multiply,
Oslash,
Ugrave,
Uacute,
Ucircumflex,
Udieresis,
Yacute,
Thorn,
germandbls,
agrave,
aacute,
acircumflex,
atilde,
adieresis,
aring,
ae,
ccedilla,
egrave,
eacute,
ecircumflex,
edieresis,
igrave,
iacute,
icircumflex,
idieresis,
eth,
ntilde,
ograve,
oacute,
ocircumflex,
otilde,
odieresis,
divide,
oslash,
ugrave,
uacute,
ucircumflex,
udieresis,
yacute,
thorn,
ydieresis,
Amacron,
amacron,
Abreve,
abreve,
Aogonek,
aogonek,
Cacute,
cacute,
Ccircumflex,
ccircumflex,

glyphs = (
{
glyphname = .notdef;
layers = (
{
layerId = m01;
shapes = (
{
closed = 1;
nodes = (
(298,666,l),
(33,666,l),
(33,0,l),
(298,0,l)
);
},
{
closed = 1;
nodes = (
(265,633,l),
(265,33,l),
(66,33,l),
(66,633,l)
);
}
);
userData = {
assembly = "PUSHB[ ]	/* 2 values pushed */
1 0 
MDAP[1]	/* MoveDirectAbsPt */
ALIGNRP[ ]	/* AlignRelativePt */
PUSHB[ ]	/* 3 values pushed */
7 4 0 
MIRP[01101]	/* MoveIndirectRelPt */
SHP[0]	/* ShiftPointByLastPoint */
PUSHB[ ]	/* 2 values pushed */
6 5 
MDRP[11100]	/* MoveDirectRelPt */
ALIGNRP[ ]	/* AlignRelativePt */
PUSHB[ ]	/* 3 values pushed */
3 2 0 
MIRP[01101]	/* MoveIndirectRelPt */
SHP[0]	/* ShiftPointByLastPoint */
SVTCA[0]	/* SetFreedomAndProjectionVectorToAxis */
PUSHB[ ]	/* 2 values pushed */
3 0 
MDAP[1]	/* MoveDirectAbsPt */
ALIGNRP[ ]	/* AlignRelativePt */
PUSHB[ ]	/* 3 values pushed */
5 4 0 
MIRP[01101]	/* MoveIndirectRelPt */
SHP[0]	/* ShiftPointByLastPoint */
PUSHB[ ]	/* 3 values pushed */
7 6 1 
MIRP[11100]	/* MoveIndirectRelPt */
ALIGNRP[ ]	/* AlignRelativePt */
PUSHB[ ]	/* 3 values pushed */
1 2 0 
MIRP[01101]	/* MoveIndirectRelPt */
SHP[0]	/* ShiftPointByLastPoint */";
};
width = 364;
}
);
note = .notdef;
},
{
glyphname = exclam;
layers = (
{
layerId = m01;
shapes = (
{
closed = 1;
nodes = (
(141,187,l),
(141,760,l),
(57,760,l),
(57,187,l)
);
},
{
closed = 1;
nodes = (
(160,34,o),
(160,58,qs),
(160,80,o),
(127,112,o),
(102,112,qs),
(76,112,o),
(41,80,o),
(41,58,qs),
(41,34,o),
(76,4,o),
(102,4,qs),
(127,4,o)
);
}
);
width = 202;
}
);
note = exclam;
unicode = 33;
},
{
glyphname = quotedbl;
layers = (
{
layerId = m01;
shapes = (
{
closed = 1;
nodes = (
(64,478,l),
(144,478,l),
(144,541,o),
(147,666,o),
(148,729,q),
(64,729,l)
);
},
{
closed = 1;
nodes = (
(199,478,l),
(279,478,l),
(279,541,o),
(282,666,o),
(283,729,q),
(199,729,l)
);
}
);
width = 339;
}
);
note = quotedbl;
unicode = 34;
},
{
glyphname = numbersign;
layers = (
{
layerId = m01;
shapes = (
{
closed = 1;
nodes = (
(168,602,o),
(156,507,o),
(150,458,q),
(57,458,l),
(54,437,o),
(51,396,o),
(48,376,q),
(141,376,l),
(138,350,o),
(132,298,o),
(129,273,q),
(35,273,l),
(33,252,o),
(28,211,o),
(25,190,q),
(118,190,l),
(113,142,o),
(101,48,o),
(96,0,q),
(182,0,l),
(186,48,o),
(198,142,o),
(204,190,q),
(304,190,l),
(299,142,o),
(288,48,o),
(283,0,q),
(368,0,l),
(373,48,o),
(384,142,o),
(390,190,q),
(494,190,l),
(495,211,o),
(501,252,o),
(503,273,q),
(400,273,l),
(405,324,o),
(412,376,q),
(517,376,l),
(519,396,o),
(522,437,o),
(524,458,q),
(421,458,l),
(427,507,o),
(439,602,o),
(446,651,q),
(360,651,l),
(354,602,o),
(342,507,o),
(337,458,q),
(235,458,l),
(241,507,o),
(253,602,o),
(259,651,q),
(174,651,l)
);
},
{
closed = 1;
nodes = (
(324,350,o),
(318,298,o),
(315,273,q),
(213,273,l),
(216,298,o),
(223,350,o),
(226,376,q),
(326,376,l)
);
}
);
width = 578;
}
);
note = numbersign;
unicode = 35;
},
{
glyphname = dollar;
layers = (
{
layerId = m01;
shapes = (
{
closed = 1;
nodes = (
(319,-7,l),
(383,0,o),
(474,56,o),
(523,144,o),
(523,198,qs),
(523,266,o),
(469,347,o),
(385,395,o),
(340,412,q),
(339,412,l),
(339,639,l),
(374,635,o),
(447,610,o),
(478,594,q),
(515,669,l),
(480,689,o),
(393,720,o),
(339,725,q),
(339,790,l),
(280,790,l),
(280,726,l),
(193,718,o),
(84,616,o),
(84,534,qs),
(84,476,o),
(137,403,o),
(217,357,o),
(260,341,q),
(260,78,l),
(216,82,o),
(124,121,o),
(92,145,q),
(49,68,l),
(88,41,o),
(197,-3,o),
(260,-7,q),
(260,-68,l),
(319,-68,l)
);
},
{
closed = 1;
nodes = (
(235,632,o),
(280,639,q),
(280,436,l),
(239,455,o),
(184,505,o),
(184,541,qs),
(184,581,o)
);
},
{
closed = 1;
nodes = (
(360,90,o),
(319,82,q),
(319,317,l),
(362,298,o),
(423,242,o),
(423,197,qs),
(423,146,o)
);
}
);
width = 567;
}
);
note = dollar;
unicode = 36;
},
{
glyphname = percent;
layers = (
{
layerId = m01;
shapes = (
{
closed = 1;
nodes = (
(143,0,l),
(236,-2,l),
(653,610,l),
(559,610,l)
);
},
{
closed = 1;
nodes = (
(347,362,o),
(347,438,qs),
(347,513,o),
(273,609,o),
(205,609,qs),
(136,609,o),
(62,513,o),
(62,438,qs),
(62,362,o),
(136,267,o),
(205,267,qs),
(273,267,o)
);
},
{
closed = 1;
nodes = (
(205,541,qs),
(264,541,o),
(264,438,qs),
(264,390,o),
(234,334,o),
(205,334,qs),
(175,334,o),
(145,390,o),
(145,438,qs),
(145,541,o)
);
},
{
closed = 1;
nodes = (
(723,79,o),
(723,155,qs),
(723,230,o),
(649,326,o),
(581,326,qs),
(512,326,o),
(439,230,o),
(439,155,qs),
(439,79,o),
(512,-16,o),
(581,-16,qs),
(648,-16,o)
);
},
{
closed = 1;
nodes = (
(581,258,qs),
(640,258,o),
(640,155,qs),
(640,107,o),
(610,51,o),
(581,51,qs),
(551,51,o),
(521,107,o),
(521,155,qs),
(521,258,o)
);
}
);
width = 780;
}
);
note = percent;
unicode = 37;
},
{
glyphname = ampersand;
layers = (
{
layerId = m01;
shapes = (
{
closed = 1;
nodes = (
(647,425,l),
(557,425,l),
(488,245,l),
(296,500,ls),
(294,503,o),
(278,530,o),
(263,567,o),
(263,586,qs),
(263,623,o),
(313,676,o),
(356,676,qs),
(385,676,o),
(444,642,o),
(475,615,q),
(523,680,l),
(493,711,o),
(400,758,o),
(341,758,qs),
(284,758,o),
(205,710,o),
(163,635,o),
(163,593,qs),
(163,552,o),
(199,480,o),
(214,459,qs),
(246,416,l),
(195,403,o),
(109,343,o),
(57,256,o),
(56,204,qs),
(57,142,o),
(119,46,o),
(227,-10,o),
(295,-10,qs),
(366,-10,o),
(469,41,o),
(500,80,q),
(560,0,l),
(673,0,l),
(546,168,l)
);
},
{
closed = 1;
nodes = (
(197,307,o),
(261,345,o),
(297,348,q),
(448,148,l),
(429,118,o),
(359,77,o),
(308,77,qs),
(267,77,o),
(198,110,o),
(158,169,o),
(158,208,qs),
(158,246,o)
);
}
);
width = 726;
}
);
note = ampersand;
unicode = 38;
},
{
glyphname = quotesingle;
layers = (
{
layerId = m01;
shapes = (
{
closed = 1;
nodes = (
(43,478,l),
(124,478,l),
(124,541,o),
(127,666,o),
(128,729,q),
(43,729,l)
);
}
);
width = 165;
}
);
note = quotesingle;
unicode = 39;
},
{
glyphname = parenleft;
layers = (
{
layerId = m01;
shapes = (
{
closed = 1;
nodes = (
(150,17,o),
(226,-121,o),
(269,-166,q),
(342,-123,l),
(303,-79,o),
(238,45,o),
(199,202,o),
(199,295,qs),
(199,388,o),
(238,544,o),
(303,669,o),
(342,714,q),
(269,755,l),
(226,710,o),
(150,572,o),
(101,396,o),
(101,295,qs),
(101,193,o)
);
}
);
width = 403;
}
);
note = parenleft;
unicode = 40;
},
{
glyphname = parenright;
layers = (
{
layerId = m01;
shapes = (
{
closed = 1;
nodes = (
(265,572,o),
(189,710,o),
(147,755,q),
(73,713,l),
(111,668,o),
(176,544,o),
(216,388,o),
(216,295,qs),
(216,202,o),
(176,45,o),
(111,-79,o),
(73,-124,q),
(147,-166,l),
(189,-121,o),
(265,17,o),
(313,193,o),
(313,295,qs),
(313,396,o)
);
}
);
width = 405;
}
);
note = parenright;
unicode = 41;
},
{
glyphname = asterisk;
layers = (
{
layerId = m01;
shapes = (
{
closed = 1;
nodes = (
(195,434,l),
(195,457,o),
(196,502,o),
(196,525,q),
(216,513,o),
(256,489,o),
(276,477,q),
(284,490,o),
(299,516,o),
(306,529,q),
(225,575,l),
(246,587,o),
(287,611,o),
(308,622,q),
(301,635,o),
(286,659,o),
(280,671,q),
(259,659,o),
(218,636,o),
(198,625,q),
(198,649,o),
(199,696,o),
(199,720,q),
(139,720,l),
(139,625,l),
(119,636,o),
(78,660,o),
(58,672,q),
(51,660,o),
(37,636,o),
(31,623,q),
(51,612,o),
(91,588,o),
(110,576,q),
(90,565,o),
(50,542,o),
(30,532,q),
(38,519,o),
(53,492,o),
(60,479,q),
(80,491,o),
(120,513,o),
(139,525,q),
(139,434,l)
);
}
);
width = 335;
}
);
note = asterisk;
unicode = 42;
},
{
glyphname = plus;
layers = (
{
layerId = m01;
shapes = (
{
closed = 1;
nodes = (
(88,275,l),
(88,193,l),
(227,193,l),
(227,52,l),
(312,52,l),
(312,193,l),
(452,193,l),
(452,275,l),
(312,275,l),
(312,416,l),
(227,416,l),
(227,275,l)
);
}
);
width = 550;
}
);
note = plus;
unicode = 43;
},
{
glyphname = comma;
kernLeft = comma;
layers = (
{
layerId = m01;
shapes = (
{
closed = 1;
nodes = (
(61,35,o),
(22,-69,o),
(2,-121,q),
(79,-121,l),
(100,-69,o),
(143,35,o),
(166,88,q),
(81,88,l)
);
}
);
width = 203;
}
);
note = comma;
unicode = 44;
},
{
glyphname = hyphen;
layers = (
{
layerId = m01;
shapes = (
{
closed = 1;
nodes = (
(240,174,l),
(240,256,l),
(54,256,l),
(54,174,l)
);
}
);
width = 304;
}
);
note = hyphen;
unicode = 45;
},
{
glyphname = period;
kernLeft = comma;
layers = (
{
layerId = m01;
shapes = (
{
closed = 1;
nodes = (
(67,0,o),
(87,0,qs),
(105,0,o),
(139,29,o),
(139,53,qs),
(139,76,o),
(105,107,o),
(87,107,qs),
(67,107,o),
(34,76,o),
(34,53,qs),
(34,29,o)
);
}
);
width = 169;
}
);
note = period;
unicode = 46;
},
{
glyphname = slash;
layers = (
{
layerId = m01;
shapes = (
{
closed = 1;
nodes = (
(228,554,o),
(88,172,o),
(17,-19,q),
(102,-19,l),
(173,172,o),
(313,554,o),
(384,746,q),
(299,746,l)
);
}
);
width = 385;
}
);
note = slash;
unicode = 47;
},
{
glyphname = zero;
layers = (
{
layerId = m01;
shapes = (
{
closed = 1;
nodes = (
(518,75,o),
(588,225,o),
(588,332,qs),
(588,435,o),
(518,585,o),
(393,666,o),
(312,665,qs),
(186,666,o),
(36,498,o),
(36,332,qs),
(36,228,o),
(106,78,o),
(230,-3,o),
(312,-3,qs),
(393,-3,o)
);
},
{
closed = 1;
nodes = (
(176,151,o),
(136,260,o),
(136,332,qs),
(136,403,o),
(176,511,o),
(254,572,o),
(311,571,qs),
(398,572,o),
(487,440,o),
(488,334,qs),
(487,261,o),
(447,151,o),
(369,90,o),
(311,90,qs),
(254,90,o)
);
}
);
width = 624;
}
);
note = zero;
unicode = 48;
},
{
glyphname = one;
layers = (
{
layerId = m01;
shapes = (
{
closed = 1;
nodes = (
(128,565,l),
(128,0,l),
(226,0,l),
(226,658,l),
(53,658,l),
(53,565,l)
);
}
);
width = 330;
}
);
note = one;
unicode = 49;
},
{
glyphname = two;
layers = (
{
layerId = m01;
shapes = (
{
closed = 1;
nodes = (
(502,94,l),
(265,94,l),
(317,152,o),
(416,270,o),
(480,392,o),
(480,456,qs),
(480,513,o),
(428,608,o),
(334,666,o),
(272,666,qs),
(197,666,o),
(94,607,o),
(41,513,o),
(41,459,qs),
(41,433,o),
(58,371,o),
(91,316,o),
(115,302,q),
(174,356,l),
(155,375,o),
(135,427,o),
(135,461,qs),
(135,485,o),
(159,537,o),
(212,573,o),
(256,573,qs),
(287,573,o),
(344,547,o),
(380,492,o),
(380,448,qs),
(380,399,o),
(325,293,o),
(233,181,o),
(116,63,o),
(54,0,q),
(502,0,l)
);
}
);
width = 545;
}
);
note = two;
unicode = 50;
},
{
glyphname = three;
layers = (
{
layerId = m01;
shapes = (
{
closed = 1;
nodes = (
(92,565,l),
(294,565,l),
(147,337,l),
(150,333,l),
(166,339,o),
(206,348,o),
(235,348,qs),
(292,348,o),
(360,281,o),
(360,225,qs),
(360,160,o),
(280,86,o),
(225,86,qs),
(188,86,o),
(121,121,o),
(103,144,q),
(53,64,l),
(83,31,o),
(179,-8,o),
(227,-8,qs),
(291,-8,o),
(397,47,o),
(460,149,o),
(460,219,qs),
(460,288,o),
(411,372,o),
(331,413,o),
(286,415,q),
(437,658,l),
(92,658,l)
);
}
);
width = 524;
}
);
note = three;
unicode = 51;
},
{
glyphname = four;
layers = (
{
layerId = m01;
shapes = (
{
closed = 1;
nodes = (
(318,0,l),
(415,0,l),
(415,159,l),
(501,159,l),
(501,234,l),
(415,234,l),
(415,666,l),
(414,666,l),
(12,160,l),
(12,159,l),
(318,159,l)
);
},
{
closed = 1;
nodes = (
(318,439,l),
(318,234,l),
(159,234,l)
);
}
);
width = 536;
}
);
note = four;
unicode = 52;
},
{
glyphname = five;
layers = (
{
layerId = m01;
shapes = (
{
closed = 1;
nodes = (
(406,51,o),
(463,152,o),
(463,215,qs),
(463,273,o),
(416,371,o),
(324,430,o),
(257,430,qs),
(222,430,o),
(190,421,q),
(190,565,l),
(421,565,l),
(421,658,l),
(106,658,l),
(106,310,l),
(107,310,l),
(139,329,o),
(199,348,o),
(234,348,qs),
(298,348,o),
(363,270,o),
(363,212,qs),
(363,155,o),
(292,85,o),
(237,85,qs),
(203,85,o),
(137,113,o),
(117,136,q),
(65,60,l),
(95,31,o),
(192,-8,o),
(245,-8,qs),
(308,-8,o)
);
}
);
width = 523;
}
);
note = five;
unicode = 53;
},
{
glyphname = six;
layers = (
{
layerId = m01;
shapes = (
{
closed = 1;
nodes = (
(439,46,o),
(504,145,o),
(504,212,qs),
(504,273,o),
(448,367,o),
(357,422,o),
(306,422,qs),
(262,422,o),
(194,395,o),
(169,369,q),
(195,427,o),
(312,546,o),
(406,593,q),
(341,664,l),
(283,626,o),
(175,537,o),
(88,434,o),
(38,317,o),
(38,253,qs),
(38,172,o),
(100,55,o),
(208,-8,o),
(274,-8,qs),
(334,-8,o)
);
},
{
closed = 1;
nodes = (
(172,114,o),
(137,173,o),
(137,207,qs),
(137,225,ls),
(137,256,o),
(173,308,o),
(233,340,o),
(270,340,qs),
(326,340,o),
(403,270,o),
(403,212,qs),
(403,152,o),
(326,79,o),
(270,79,qs),
(233,79,o)
);
}
);
width = 545;
}
);
note = six;
unicode = 54;
},
{
glyphname = seven;
layers = (
{
layerId = m01;
shapes = (
{
closed = 1;
nodes = (
(31,565,l),
(320,565,l),
(89,0,l),
(198,0,l),
(462,658,l),
(31,658,l)
);
}
);
width = 490;
}
);
note = seven;
unicode = 55;
},
{
glyphname = eight;
layers = (
{
layerId = m01;
shapes = (
{
closed = 1;
nodes = (
(89,52,o),
(194,-8,o),
(260,-8,qs),
(327,-8,o),
(433,52,o),
(495,150,o),
(495,208,qs),
(495,257,o),
(456,332,o),
(396,382,o),
(365,396,q),
(395,416,o),
(435,472,o),
(435,519,qs),
(435,561,o),
(389,627,o),
(310,666,o),
(261,666,qs),
(211,666,o),
(133,627,o),
(88,559,o),
(88,515,qs),
(88,472,o),
(127,416,o),
(156,396,q),
(126,383,o),
(67,333,o),
(28,258,o),
(28,208,qs),
(28,150,o)
);
},
{
closed = 1;
nodes = (
(231,585,o),
(263,585,qs),
(295,585,o),
(342,539,o),
(342,504,qs),
(342,472,o),
(295,429,o),
(263,429,qs),
(231,429,o),
(182,472,o),
(182,504,qs),
(182,539,o)
);
},
{
closed = 1;
nodes = (
(165,312,o),
(227,348,o),
(264,348,qs),
(301,347,o),
(362,310,o),
(398,248,o),
(398,212,qs),
(398,174,o),
(360,112,o),
(298,74,o),
(260,74,qs),
(223,74,o),
(163,112,o),
(127,174,o),
(127,212,qs),
(127,250,o)
);
}
);
width = 523;
}
);
note = eight;
unicode = 56;
},
{
glyphname = nine;
layers = (
{
layerId = m01;
shapes = (
{
closed = 1;
nodes = (
(335,234,o),
(358,253,q),
(325,204,o),
(198,103,o),
(110,58,q),
(176,-13,l),
(233,25,o),
(350,113,o),
(446,218,o),
(504,346,o),
(504,424,qs),
(504,492,o),
(441,596,o),
(334,655,o),
(268,655,qs),
(208,655,o),
(103,598,o),
(38,495,o),
(38,425,qs),
(38,365,o),
(94,270,o),
(185,216,o),
(236,216,qs),
(275,216,o)
);
},
{
closed = 1;
nodes = (
(138,370,o),
(138,431,qs),
(138,492,o),
(216,567,o),
(272,567,qs),
(308,567,o),
(368,533,o),
(404,474,o),
(404,439,qs),
(404,420,ls),
(404,366,o),
(330,298,o),
(272,298,qs),
(216,298,o)
);
}
);
width = 538;
}
);
note = nine;
unicode = 57;
},
{
glyphname = colon;
layers = (
{
layerId = m01;
shapes = (
{
closed = 1;
nodes = (
(66,272,o),
(87,272,qs),
(105,272,o),
(138,301,o),
(138,325,qs),
(138,348,o),
(105,379,o),
(87,379,qs),
(66,379,o),
(34,348,o),
(34,325,qs),
(34,301,o)
);
},
{
closed = 1;
nodes = (
(66,0,o),
(87,0,qs),
(105,0,o),
(138,29,o),
(138,53,qs),
(138,76,o),
(105,107,o),
(87,107,qs),
(66,107,o),
(34,76,o),
(34,53,qs),
(34,29,o)
);
}
);
width = 178;
}
);
note = colon;
unicode = 58;
},
{
glyphname = semicolon;
layers = (
{
layerId = m01;
shapes = (
{
closed = 1;
nodes = (
(98,253,o),
(118,253,qs),
(137,253,o),
(169,282,o),
(169,306,qs),
(169,329,o),
(137,360,o),
(118,360,qs),
(98,360,o),
(65,329,o),
(65,306,qs),
(65,282,o)
);
},
{
closed = 1;
nodes = (
(46,35,o),
(8,-69,o),
(-12,-121,q),
(64,-121,l),
(86,-69,o),
(129,35,o),
(151,88,q),
(66,88,l)
);
}
);
width = 204;
}
);
note = semicolon;
unicode = 59;
},
{
glyphname = less;
layers = (
{
layerId = m01;
shapes = (
{
closed = 1;
nodes = (
(61,241,l),
(504,-14,l),
(504,87,l),
(241,241,l),
(504,394,l),
(504,496,l)
);
}
);
width = 601;
}
);
note = less;
unicode = 60;
},
{
glyphname = equal;
layers = (
{
layerId = m01;
shapes = (
{
closed = 1;
nodes = (
(614,310,l),
(614,392,l),
(102,392,l),
(102,310,l)
);
},
{
closed = 1;
nodes = (
(614,114,l),
(614,196,l),
(102,196,l),
(102,114,l)
);
}
);
width = 717;
}
);
note = equal;
unicode = 61;
},
{
glyphname = greater;
layers = (
{
layerId = m01;
shapes = (
{
closed = 1;
nodes = (
(536,241,l),
(93,496,l),
(93,395,l),
(357,241,l),
(93,88,l),
(93,-14,l)
);
}
);
width = 590;
}
);
note = greater;
unicode = 62;
},
{
glyphname = question;
layers = (
{
layerId = m01;
shapes = (
{
closed = 1;
nodes = (
(260,227,ls),
(260,267,o),
(281,316,o),
(315,351,o),
(336,369,qs),
(361,391,o),
(405,439,o),
(432,505,o),
(432,552,qs),
(432,613,o),
(379,698,o),
(289,741,o),
(233,742,qs),
(184,742,o),
(110,710,o),
(57,662,o),
(25,608,o),
(18,586,q),
(95,551,l),
(110,593,o),
(174,655,o),
(223,655,qs),
(251,655,o),
(302,627,o),
(333,577,o),
(333,544,qs),
(333,498,o),
(288,441,o),
(257,415,qs),
(234,396,o),
(193,356,o),
(167,296,o),
(167,248,qs),
(167,185,l),
(260,185,l)
);
},
{
closed = 1;
nodes = (
(273,34,o),
(273,58,qs),
(273,80,o),
(240,112,o),
(215,112,qs),
(189,112,o),
(155,80,o),
(155,58,qs),
(155,34,o),
(189,4,o),
(215,4,qs),
(240,4,o)
);
}
);
width = 460;
}
);
note = question;
unicode = 63;
},
{
glyphname = at;
layers = (
{
layerId = m01;
shapes = (
{
closed = 1;
nodes = (
(653,-176,o),
(712,-132,q),
(673,-77,l),
(624,-109,o),
(510,-145,o),
(451,-145,qs),
(359,-145,o),
(213,-79,o),
(130,59,o),
(130,165,qs),
(130,203,o),
(156,307,o),
(217,417,o),
(320,512,o),
(475,571,o),
(581,571,qs),
(682,571,o),
(822,495,o),
(895,369,o),
(895,292,qs),
(895,232,o),
(856,134,o),
(794,77,o),
(760,77,qs),
(732,77,o),
(715,116,o),
(719,145,qs),
(756,414,l),
(668,414,l),
(650,342,l),
(633,379,o),
(562,431,o),
(497,431,qs),
(427,431,o),
(319,364,o),
(258,251,o),
(258,182,qs),
(257,123,o),
(306,37,o),
(392,-10,o),
(447,-10,qs),
(498,-10,o),
(595,45,o),
(624,80,q),
(632,39,o),
(693,-8,o),
(738,-8,qs),
(791,-8,o),
(881,40,o),
(946,123,o),
(983,232,o),
(983,292,qs),
(983,391,o),
(890,551,o),
(716,645,o),
(595,645,qs),
(475,645,o),
(294,584,o),
(164,482,o),
(83,356,o),
(45,222,o),
(45,161,qs),
(45,66,o),
(105,-77,o),
(212,-172,o),
(355,-219,o),
(437,-219,qs),
(505,-219,o)
);
},
{
closed = 1;
nodes = (
(357,140,o),
(357,194,qs),
(357,237,o),
(398,309,o),
(468,354,o),
(511,354,qs),
(562,354,o),
(631,298,o),
(637,255,q),
(626,173,l),
(608,124,o),
(531,67,o),
(483,67,qs),
(427,67,o)
);
}
);
width = 1027;
}
);
note = at;
unicode = 64;
},
{
glyphname = A;
kernLeft = A;
kernRight = A;
layers = (
{
layerId = m01;
shapes = (
{
closed = 1;
nodes = (
(205,190,l),
(483,190,l),
(558,0,l),
(670,0,l),
(354,753,l),
(348,753,l),
(32,0,l),
(128,0,l)
);
},
{
closed = 1;
nodes = (
(450,274,l),
(239,274,l),
(347,537,l)
);
}
);
width = 701;
}
);
note = A;
unicode = 65;
},
{
glyphname = B;
kernRight = B;
layers = (
{
layerId = m01;
shapes = (
{
closed = 1;
nodes = (
(104,0,l),
(319,0,ls),
(381,0,o),
(491,41,o),
(560,131,o),
(560,203,qs),
(560,264,o),
(486,352,o),
(426,375,q),
(472,399,o),
(524,483,o),
(524,541,qs),
(524,634,o),
(399,723,o),
(291,723,qs),
(104,723,l)
);
},
{
closed = 1;
nodes = (
(201,630,l),
(295,630,ls),
(354,630,o),
(424,578,o),
(424,521,qs),
(424,474,o),
(370,407,o),
(311,407,qs),
(201,407,l)
);
},
{
closed = 1;
nodes = (
(201,313,l),
(308,313,ls),
(345,313,o),
(414,292,o),
(460,244,o),
(460,202,qs),
(460,145,o),
(375,90,o),
(315,90,qs),
(201,90,l)
);
}
);
width = 619;
}
);
note = B;
unicode = 66;
},
{
glyphname = C;
kernLeft = C;
layers = (
{
layerId = m01;
shapes = (
{
closed = 1;
nodes = (
(565,119,o),
(480,86,o),
(424,86,qs),
(344,86,o),
(225,158,o),
(160,283,o),
(160,361,qs),
(160,419,o),
(201,520,o),
(273,595,o),
(367,638,o),
(420,638,qs),
(471,638,o),
(557,602,o),
(587,582,q),
(626,673,l),
(588,696,o),
(482,731,o),
(417,731,qs),
(339,731,o),
(208,675,o),
(112,574,o),
(59,437,o),
(59,356,qs),
(59,282,o),
(109,152,o),
(204,51,o),
(338,-7,o),
(423,-8,qs),
(472,-9,o),
(555,12,o),
(617,42,o),
(635,54,q),
(593,141,l)
);
}
);
width = 694;
}
);
note = C;
unicode = 67;
},
{
glyphname = D;
layers = (
{
layerId = m01;
shapes = (
{
closed = 1;
nodes = (
(408,0,o),
(537,49,o),
(637,141,o),
(695,272,o),
(695,353,qs),
(695,419,o),
(652,550,o),
(559,658,o),
(409,723,o),
(302,723,qs),
(104,723,l),
(104,0,l),
(337,0,ls)
);
},
{
closed = 1;
nodes = (
(327,630,ls),
(396,630,o),
(519,568,o),
(594,448,o),
(594,360,qs),
(594,275,o),
(522,156,o),
(397,94,o),
(318,94,qs),
(201,94,l),
(201,630,l)
);
}
);
width = 754;
}
);
note = D;
unicode = 68;
},
{
glyphname = E;
layers = (
{
layerId = m01;
shapes = (
{
closed = 1;
nodes = (
(588,0,l),
(588,94,l),
(201,94,l),
(201,317,l),
(534,317,l),
(534,410,l),
(201,410,l),
(201,630,l),
(574,630,l),
(574,723,l),
(104,723,l),
(104,0,l)
);
}
);
width = 653;
}
);
note = E;
unicode = 69;
},
{
glyphname = F;
kernRight = F;
layers = (
{
layerId = m01;
shapes = (
{
closed = 1;
nodes = (
(201,0,l),
(201,307,l),
(492,307,l),
(492,400,l),
(201,400,l),
(201,630,l),
(533,630,l),
(533,723,l),
(104,723,l),
(104,0,l)
);
}
);
width = 589;
}
);
note = F;
unicode = 70;
},
{
glyphname = G;
kernLeft = C;
layers = (
{
layerId = m01;
shapes = (
{
closed = 1;
nodes = (
(429,354,l),
(429,260,l),
(572,260,l),
(572,118,l),
(547,103,o),
(475,89,o),
(439,89,qs),
(355,89,o),
(229,156,o),
(159,277,o),
(159,356,qs),
(159,441,o),
(229,565,o),
(357,633,o),
(442,633,qs),
(468,633,o),
(530,621,o),
(589,601,o),
(610,589,q),
(642,678,l),
(601,701,o),
(493,731,o),
(430,731,qs),
(355,731,o),
(221,680,o),
(118,581,o),
(59,439,o),
(59,348,qs),
(59,246,o),
(152,85,o),
(322,-8,o),
(437,-8,qs),
(478,-8,o),
(570,13,o),
(650,45,o),
(671,62,q),
(671,354,l)
);
}
);
width = 752;
}
);
note = G;
unicode = 71;
},
{
glyphname = H;
layers = (
{
layerId = m01;
shapes = (
{
closed = 1;
nodes = (
(579,410,l),
(201,410,l),
(201,723,l),
(104,723,l),
(104,0,l),
(201,0,l),
(201,317,l),
(579,317,l),
(579,0,l),
(677,0,l),
(677,723,l),
(579,723,l)
);
}
);
width = 781;
}
);
note = H;
unicode = 72;
},
{
glyphname = I;
layers = (
{
layerId = m01;
shapes = (
{
closed = 1;
nodes = (
(201,0,l),
(201,723,l),
(104,723,l),
(104,0,l)
);
}
);
width = 305;
}
);
note = I;
unicode = 73;
},
{
glyphname = J;
layers = (
{
layerId = m01;
shapes = (
{
closed = 1;
nodes = (
(164,723,l),
(164,134,ls),
(164,40,o),
(73,-51,o),
(3,-55,q),
(3,-149,l),
(78,-147,o),
(194,-80,o),
(261,43,o),
(261,131,qs),
(261,723,l)
);
}
);
width = 365;
}
);
note = J;
unicode = 74;
},
{
glyphname = K;
kernRight = K;
layers = (
{
layerId = m01;
shapes = (
{
closed = 1;
nodes = (
(104,723,l),
(104,0,l),
(203,0,l),
(202,292,l),
(263,351,l),
(527,0,l),
(650,0,l),
(334,412,l),
(633,723,l),
(507,723,l),
(212,415,l),
(200,396,l),
(203,432,l),
(203,723,l)
);
}
);
width = 680;
}
);
note = K;
unicode = 75;
},
{
glyphname = L;
kernRight = L;
layers = (
{
layerId = m01;
shapes = (
{
closed = 1;
nodes = (
(569,0,l),
(569,94,l),
(201,94,l),
(201,723,l),
(104,723,l),
(104,0,l)
);
}
);
width = 622;
}
);
note = L;
unicode = 76;
},
{
glyphname = M;
layers = (
{
layerId = m01;
shapes = (
{
closed = 1;
nodes = (
(198,454,l),
(459,91,l),
(461,91,l),
(727,467,l),
(727,0,l),
(823,0,l),
(823,746,l),
(822,746,l),
(461,241,l),
(105,746,l),
(104,746,l),
(104,0,l),
(198,0,l)
);
}
);
width = 927;
}
);
note = M;
unicode = 77;
},
{
glyphname = N;
layers = (
{
layerId = m01;
shapes = (
{
closed = 1;
nodes = (
(734,723,l),
(637,723,l),
(639,199,l),
(109,745,l),
(104,745,l),
(104,0,l),
(202,0,l),
(200,515,l),
(731,-23,l),
(734,-23,l)
);
}
);
width = 838;
}
);
note = N;
unicode = 78;
},
{
glyphname = O;
kernLeft = C;
layers = (
{
layerId = m01;
shapes = (
{
closed = 1;
nodes = (
(116,148,o),
(218,48,o),
(351,-8,o),
(427,-8,qs),
(503,-8,o),
(638,49,o),
(740,151,o),
(798,284,o),
(798,361,qs),
(798,436,o),
(740,570,o),
(638,672,o),
(503,731,o),
(427,731,qs),
(351,731,o),
(218,672,o),
(116,570,o),
(59,436,o),
(59,361,qs),
(59,283,o)
);
},
{
closed = 1;
nodes = (
(230,562,o),
(352,638,o),
(428,638,qs),
(484,638,o),
(582,595,o),
(656,519,o),
(698,418,o),
(698,361,qs),
(698,284,o),
(626,159,o),
(505,86,o),
(430,86,qs),
(373,86,o),
(275,128,o),
(201,204,o),
(159,303,o),
(159,360,qs),
(159,436,o)
);
}
);
width = 857;
}
);
note = O;
unicode = 79;
},
{
glyphname = P;
kernRight = P;
layers = (
{
layerId = m01;
shapes = (
{
closed = 1;
nodes = (
(104,0,l),
(201,0,l),
(201,265,l),
(308,265,ls),
(374,265,o),
(466,306,o),
(523,373,o),
(549,456,o),
(549,499,qs),
(549,605,o),
(415,723,o),
(298,723,qs),
(104,723,l)
);
},
{
closed = 1;
nodes = (
(201,630,l),
(313,630,ls),
(365,630,o),
(426,588,o),
(453,526,o),
(453,497,qs),
(453,478,o),
(439,431,o),
(406,387,o),
(350,360,o),
(308,360,qs),
(201,360,l)
);
}
);
width = 595;
}
);
note = P;
unicode = 80;
},
{
glyphname = Q;
kernLeft = C;
layers = (
{
layerId = m01;
shapes = (
{
closed = 1;
nodes = (
(116,149,o),
(218,48,o),
(351,-8,o),
(427,-8,qs),
(466,-8,o),
(504,0,q),
(829,0,l),
(829,95,l),
(683,95,l),
(736,145,o),
(798,282,o),
(798,361,qs),
(798,436,o),
(740,570,o),
(638,672,o),
(503,731,o),
(427,731,qs),
(351,731,o),
(218,672,o),
(116,570,o),
(59,436,o),
(59,361,qs),
(59,283,o)
);
},
{
closed = 1;
nodes = (
(200,515,o),
(273,592,o),
(371,635,o),
(428,635,qs),
(484,635,o),
(582,592,o),
(656,517,o),
(698,417,o),
(698,361,qs),
(698,284,o),
(626,160,o),
(505,86,o),
(430,86,qs),
(373,86,o),
(275,129,o),
(201,204,o),
(159,303,o),
(159,360,qs),
(159,416,o)
);
}
);
width = 888;
}
);
note = Q;
unicode = 81;
},
{
glyphname = R;
kernRight = R;
layers = (
{
layerId = m01;
shapes = (
{
closed = 1;
nodes = (
(104,0,l),
(201,0,l),
(201,266,l),
(308,266,ls),
(320,266,o),
(331,267,q),
(502,0,l),
(615,0,l),
(433,291,l),
(498,321,o),
(553,437,o),
(553,499,qs),
(553,571,o),
(485,672,o),
(369,723,o),
(297,723,qs),
(104,723,l)
);
},
{
closed = 1;
nodes = (
(201,630,l),
(313,630,ls),
(364,630,o),
(425,586,o),
(453,524,o),
(453,495,qs),
(453,466,o),
(427,403,o),
(364,360,o),
(306,360,qs),
(201,360,l)
);
}
);
width = 660;
}
);
note = R;
unicode = 82;
},
{
glyphname = S;
kernRight = S;
layers = (
{
layerId = m01;
shapes = (
{
closed = 1;
nodes = (
(474,693,o),
(367,727,o),
(298,727,qs),
(235,725,o),
(139,676,o),
(84,591,o),
(84,534,qs),
(84,487,o),
(120,421,o),
(179,376,o),
(249,344,o),
(283,332,qs),
(320,318,o),
(383,283,o),
(423,233,o),
(423,197,qs),
(423,155,o),
(379,102,o),
(312,78,o),
(277,78,qs),
(230,78,o),
(127,118,o),
(92,145,q),
(49,68,l),
(92,38,o),
(215,-8,o),
(287,-8,qs),
(360,-8,o),
(466,47,o),
(524,140,o),
(524,198,qs),
(524,266,o),
(469,347,o),
(385,395,o),
(340,412,qs),
(300,427,o),
(229,462,o),
(184,508,o),
(184,541,qs),
(184,587,o),
(253,641,o),
(312,641,qs),
(353,641,o),
(441,613,o),
(478,594,q),
(515,669,l)
);
}
);
width = 582;
}
);
note = S;
unicode = 83;
},
{
glyphname = T;
kernLeft = T;
kernRight = T;
layers = (
{
layerId = m01;
shapes = (
{
closed = 1;
nodes = (
(240,630,l),
(240,0,l),
(337,0,l),
(337,630,l),
(531,630,l),
(531,723,l),
(51,723,l),
(51,630,l)
);
}
);
width = 582;
}
);
note = T;
unicode = 84;
},
{
glyphname = U;
kernLeft = U;
kernRight = U;
layers = (
{
layerId = m01;
shapes = (
{
closed = 1;
nodes = (
(95,723,l),
(95,253,ls),
(95,174,o),
(167,56,o),
(289,-8,o),
(365,-8,qs),
(441,-8,o),
(564,56,o),
(637,174,o),
(637,253,qs),
(637,723,l),
(542,723,l),
(542,256,ls),
(542,208,o),
(495,131,o),
(416,86,o),
(365,86,qs),
(317,86,o),
(238,131,o),
(192,208,o),
(192,256,qs),
(192,723,l)
);
}
);
width = 732;
}
);
note = U;
unicode = 85;
},
{
glyphname = V;
kernLeft = V;
kernRight = V;
layers = (
{
layerId = m01;
shapes = (
{
closed = 1;
nodes = (
(360,-33,l),
(679,723,l),
(565,723,l),
(364,202,l),
(156,723,l),
(41,723,l)
);
}
);
width = 719;
}
);
note = V;
unicode = 86;
},
{
glyphname = W;
kernLeft = W;
kernRight = W;
layers = (
{
layerId = m01;
shapes = (
{
closed = 1;
nodes = (
(514,399,l),
(683,-32,l),
(968,720,l),
(864,720,l),
(686,205,l),
(485,720,l),
(389,720,l),
(466,521,l),
(340,194,l),
(154,720,l),
(41,720,l),
(329,-33,l)
);
}
);
width = 1008;
}
);
note = W;
unicode = 87;
},
{
glyphname = X;
kernLeft = X;
layers = (
{
layerId = m01;
shapes = (
{
closed = 1;
nodes = (
(326,289,l),
(514,0,l),
(638,0,l),
(400,366,l),
(628,723,l),
(511,723,l),
(347,447,l),
(167,723,l),
(44,723,l),
(272,373,l),
(34,0,l),
(154,0,l)
);
}
);
width = 673;
}
);
note = X;
unicode = 88;
},
{
glyphname = Y;
kernLeft = Y;
kernRight = Y;
layers = (
{
layerId = m01;
shapes = (
{
closed = 1;
nodes = (
(393,0,l),
(393,241,l),
(664,723,l),
(545,723,l),
(347,351,l),
(148,723,l),
(28,723,l),
(296,241,l),
(296,0,l)
);
}
);
width = 692;
}
);
note = Y;
unicode = 89;
},
{
glyphname = Z;
layers = (
{
layerId = m01;
shapes = (
{
closed = 1;
nodes = (
(658,94,l),
(218,94,l),
(647,723,l),
(214,723,ls),
(196,723,o),
(182,729,o),
(182,746,qs),
(182,759,l),
(92,759,l),
(92,691,ls),
(92,661,o),
(144,630,o),
(174,630,qs),
(475,630,l),
(452,597,o),
(380,491,o),
(294,362,o),
(205,229,o),
(125,109,o),
(64,20,o),
(50,0,q),
(658,0,l)
);
}
);
width = 713;
}
);
note = Z;
unicode = 90;
},
{
glyphname = bracketleft;
layers = (
{
layerId = m01;
shapes = (
{
closed = 1;
nodes = (
(312,-151,l),
(312,-64,l),
(202,-64,l),
(202,668,l),
(312,668,l),
(312,756,l),
(104,756,l),
(104,-151,l)
);
}
);
width = 363;
}
);
note = bracketleft;
unicode = 91;
},
{
glyphname = backslash;
layers = (
{
layerId = m01;
shapes = (
{
closed = 1;
nodes = (
(71,554,o),
(211,172,o),
(282,-19,q),
(377,-19,l),
(306,172,o),
(166,554,o),
(95,746,q),
(0,746,l)
);
}
);
width = 390;
}
);
note = backslash;
unicode = 92;
},
{
glyphname = bracketright;
layers = (
{
layerId = m01;
shapes = (
{
closed = 1;
nodes = (
(51,756,l),
(51,669,l),
(161,669,l),
(161,-63,l),
(51,-63,l),
(51,-151,l),
(259,-151,l),
(259,756,l)
);
}
);
width = 363;
}
);
note = bracketright;
unicode = 93;
},
{
glyphname = asciicircum;
layers = (
{
layerId = m01;
shapes = (
{
closed = 1;
nodes = (
(326,531,o),
(265,623,o),
(235,668,q),
(205,623,o),
(144,531,o),
(114,486,q),
(173,486,l),
(180,495,o),
(204,528,o),
(228,561,o),
(235,570,q),
(241,561,o),
(266,528,o),
(291,495,o),
(297,486,q),
(357,486,l)
);
}
);
width = 476;
}
);
note = asciicircum;
unicode = 94;
},
{
glyphname = underscore;
layers = (
{
layerId = m01;
shapes = (
{
closed = 1;
nodes = (
(507,0,l),
(507,82,l),
(102,82,l),
(102,0,l)
);
}
);
width = 608;
}
);
note = underscore;
unicode = 95;
},
{
glyphname = grave;
layers = (
{
layerId = m01;
shapes = (
{
closed = 1;
nodes = (
(190,486,l),
(118,620,l),
(14,620,l),
(131,486,l)
);
}
);
width = 274;
}
);
note = grave;
unicode = 96;
},
{
glyphname = a;
kernLeft = a;
layers = (
{
layerId = m01;
shapes = (
{
closed = 1;
nodes = (
(356,16,o),
(401,52,o),
(413,68,q),
(413,0,l),
(506,0,l),
(506,414,l),
(420,414,l),
(413,349,l),
(391,383,o),
(313,431,o),
(257,431,qs),
(199,431,o),
(102,377,o),
(45,277,o),
(45,207,qs),
(45,137,o),
(100,40,o),
(195,-10,o),
(254,-10,qs),
(293,-10,o)
);
},
{
closed = 1;
nodes = (
(177,106,o),
(139,171,o),
(139,212,qs),
(139,254,o),
(176,318,o),
(238,354,o),
(276,354,qs),
(325,354,o),
(401,298,o),
(413,255,q),
(413,173,l),
(402,124,o),
(330,67,o),
(279,67,qs),
(241,67,o)
);
}
);
width = 587;
}
);
note = a;
unicode = 97;
},
{
glyphname = b;
layers = (
{
layerId = m01;
shapes = (
{
closed = 1;
nodes = (
(489,43,o),
(549,143,o),
(549,214,qs),
(549,280,o),
(493,378,o),
(401,431,o),
(346,431,qs),
(289,431,o),
(199,391,o),
(174,358,q),
(174,775,l),
(81,775,l),
(81,0,l),
(174,0,l),
(174,63,l),
(200,31,o),
(281,-10,o),
(334,-10,qs),
(391,-10,o)
);
},
{
closed = 1;
nodes = (
(186,128,o),
(174,172,q),
(174,257,l),
(186,301,o),
(262,357,o),
(314,357,qs),
(354,357,o),
(417,319,o),
(454,254,o),
(454,214,qs),
(454,151,o),
(375,70,o),
(314,70,qs),
(260,70,o)
);
}
);
width = 593;
}
);
note = b;
unicode = 98;
},
{
glyphname = c;
kernLeft = a;
layers = (
{
layerId = m01;
shapes = (
{
closed = 1;
nodes = (
(351,83,o),
(306,67,o),
(280,67,qs),
(238,67,o),
(174,105,o),
(138,169,o),
(138,208,qs),
(138,248,o),
(174,311,o),
(234,348,o),
(271,348,qs),
(303,348,o),
(355,325,o),
(373,312,q),
(420,373,l),
(391,397,o),
(313,425,o),
(263,425,qs),
(205,425,o),
(106,371,o),
(45,274,o),
(45,208,qs),
(45,142,o),
(102,44,o),
(205,-10,o),
(272,-10,qs),
(311,-10,o),
(389,16,o),
(417,39,q),
(369,97,l)
);
}
);
width = 456;
}
);
note = c;
unicode = 99;
},
{
glyphname = d;
kernLeft = a;
layers = (
{
layerId = m01;
shapes = (
{
closed = 1;
nodes = (
(389,31,o),
(419,64,q),
(419,0,l),
(513,0,l),
(513,775,l),
(420,775,l),
(420,358,l),
(394,392,o),
(308,431,o),
(261,431,qs),
(200,431,o),
(101,379,o),
(45,281,o),
(45,213,qs),
(45,146,o),
(98,45,o),
(191,-10,o),
(250,-10,qs),
(302,-10,o)
);
},
{
closed = 1;
nodes = (
(177,108,o),
(139,174,o),
(139,214,qs),
(139,256,o),
(177,320,o),
(241,357,o),
(279,357,qs),
(330,357,o),
(407,299,o),
(418,255,q),
(418,177,l),
(407,128,o),
(333,70,o),
(279,70,qs),
(241,70,o)
);
}
);
width = 593;
}
);
note = d;
unicode = 100;
},
{
glyphname = e;
kernLeft = a;
layers = (
{
layerId = m01;
shapes = (
{
closed = 1;
nodes = (
(387,16,o),
(419,37,q),
(376,106,l),
(353,90,o),
(303,70,o),
(275,70,qs),
(236,70,o),
(174,105,o),
(157,136,q),
(485,251,l),
(465,335,o),
(357,431,o),
(275,431,qs),
(211,431,o),
(106,372,o),
(45,271,o),
(45,210,qs),
(45,147,o),
(100,47,o),
(203,-10,o),
(273,-10,qs),
(310,-10,o)
);
},
{
closed = 1;
nodes = (
(211,357,o),
(268,357,qs),
(312,357,o),
(365,311,o),
(379,281,q),
(138,192,l),
(137,203,o),
(137,215,qs),
(137,277,o)
);
}
);
width = 520;
}
);
note = e;
unicode = 101;
},
{
glyphname = f;
kernRight = f;
layers = (
{
layerId = m01;
shapes = (
{
closed = 1;
nodes = (
(208,331,l),
(340,331,l),
(340,415,l),
(208,415,l),
(208,588,ls),
(208,648,o),
(249,698,o),
(285,698,qs),
(296,698,o),
(318,691,o),
(327,682,q),
(367,750,l),
(347,763,o),
(296,775,o),
(276,775,qs),
(197,775,o),
(115,679,o),
(115,589,qs),
(115,415,l),
(44,415,l),
(44,331,l),
(115,331,l),
(115,0,l),
(208,0,l)
);
}
);
width = 380;
}
);
note = f;
unicode = 102;
},
{
glyphname = g;
kernLeft = a;
layers = (
{
layerId = m01;
shapes = (
{
closed = 1;
nodes = (
(460,-151,o),
(518,-59,o),
(518,-3,qs),
(518,414,l),
(433,414,l),
(425,356,l),
(403,389,o),
(315,431,o),
(261,431,qs),
(203,431,o),
(105,374,o),
(45,274,o),
(45,209,qs),
(45,147,o),
(102,48,o),
(197,-10,o),
(255,-10,qs),
(315,-10,o),
(403,38,o),
(424,75,q),
(424,-1,ls),
(423,-56,o),
(349,-123,o),
(279,-123,qs),
(236,-123,o),
(168,-90,o),
(136,-58,q),
(81,-122,l),
(120,-158,o),
(212,-205,o),
(281,-205,qs),
(354,-205,o)
);
},
{
closed = 1;
nodes = (
(176,318,o),
(241,354,o),
(282,354,qs),
(333,354,o),
(411,298,o),
(424,254,q),
(424,172,l),
(413,126,o),
(336,67,o),
(282,67,qs),
(242,67,o),
(177,106,o),
(139,171,o),
(139,212,qs),
(139,254,o)
);
}
);
width = 599;
}
);
note = g;
unicode = 103;
},
{
glyphname = h;
layers = (
{
layerId = m01;
shapes = (
{
closed = 1;
nodes = (
(174,194,ls),
(174,239,o),
(208,309,o),
(265,350,o),
(301,350,qs),
(340,349,o),
(377,307,o),
(379,274,q),
(379,0,l),
(473,0,l),
(473,306,ls),
(471,361,o),
(396,430,o),
(338,430,qs),
(280,430,o),
(194,379,o),
(172,339,q),
(172,775,l),
(81,775,l),
(81,0,l),
(174,0,l)
);
}
);
width = 553;
}
);
note = h;
unicode = 104;
},
{
glyphname = k;
layers = (
{
layerId = m01;
shapes = (
{
closed = 1;
nodes = (
(174,155,l),
(228,198,l),
(356,0,l),
(465,0,l),
(292,250,l),
(445,374,l),
(388,424,l),
(174,252,l),
(174,775,l),
(81,775,l),
(81,0,l),
(174,0,l)
);
}
);
width = 499;
}
);
note = k;
unicode = 107;
},
{
glyphname = l;
layers = (
{
layerId = m01;
shapes = (
{
closed = 1;
nodes = (
(174,0,l),
(174,775,l),
(81,775,l),
(81,0,l)
);
}
);
width = 255;
}
);
note = l;
unicode = 108;
},
{
glyphname = m;
kernLeft = m;
layers = (
{
layerId = m01;
shapes = (
{
closed = 1;
nodes = (
(81,0,l),
(174,0,l),
(174,196,ls),
(174,236,o),
(206,306,o),
(262,349,o),
(298,349,qs),
(334,347,o),
(365,304,o),
(366,272,qs),
(366,0,l),
(460,0,l),
(460,197,ls),
(461,236,o),
(493,306,o),
(549,349,o),
(586,349,qs),
(621,347,o),
(650,304,o),
(652,272,q),
(652,0,l),
(745,0,l),
(745,307,ls),
(743,361,o),
(672,431,o),
(612,431,qs),
(566,431,o),
(485,384,o),
(460,342,q),
(452,383,o),
(383,431,o),
(332,431,qs),
(278,431,o),
(195,380,o),
(171,335,q),
(165,414,l),
(81,414,l)
);
}
);
width = 825;
}
);
note = m;
unicode = 109;
},
{
glyphname = n;
kernLeft = m;
kernRight = n;
layers = (
{
layerId = m01;
shapes = (
{
closed = 1;
nodes = (
(81,0,l),
(174,0,l),
(174,194,ls),
(174,263,o),
(247,350,o),
(301,350,qs),
(340,349,o),
(377,307,o),
(379,274,q),
(379,0,l),
(473,0,l),
(473,306,ls),
(471,361,o),
(396,430,o),
(338,430,qs),
(280,430,o),
(192,378,o),
(171,334,q),
(165,414,l),
(81,414,l)
);
}
);
width = 553;
}
);
note = n;
unicode = 110;
},
{
glyphname = o;
kernLeft = a;
kernRight = o;
layers = (
{
layerId = m01;
shapes = (
{
closed = 1;
nodes = (
(104,44,o),
(207,-10,o),
(273,-10,qs),
(341,-10,o),
(444,49,o),
(501,149,o),
(501,211,qs),
(501,273,o),
(444,373,o),
(342,431,o),
(275,431,qs),
(208,431,o),
(104,373,o),
(45,273,o),
(45,211,qs),
(45,144,o)
);
},
{
closed = 1;
nodes = (
(173,314,o),
(234,354,o),
(272,354,qs),
(311,354,o),
(371,315,o),
(406,250,o),
(406,210,qs),
(406,170,o),
(371,105,o),
(311,67,o),
(272,67,qs),
(234,67,o),
(174,105,o),
(139,170,o),
(139,210,qs),
(139,249,o)
);
}
);
width = 545;
}
);
note = o;
unicode = 111;
},
{
glyphname = p;
kernRight = o;
layers = (
{
layerId = m01;
shapes = (
{
closed = 1;
nodes = (
(490,43,o),
(549,141,o),
(549,208,qs),
(549,275,o),
(495,375,o),
(402,431,o),
(343,431,qs),
(289,431,o),
(200,386,o),
(170,351,q),
(162,421,l),
(81,421,l),
(81,-199,l),
(174,-199,l),
(174,62,l),
(198,29,o),
(281,-10,o),
(326,-10,qs),
(389,-10,o)
);
},
{
closed = 1;
nodes = (
(182,126,o),
(174,173,q),
(174,243,l),
(186,291,o),
(260,351,o),
(314,351,qs),
(353,351,o),
(416,314,o),
(454,249,o),
(454,207,qs),
(454,166,o),
(414,102,o),
(347,65,o),
(308,65,qs),
(257,65,o)
);
}
);
width = 593;
}
);
note = p;
unicode = 112;
},
{
glyphname = q;
kernLeft = a;
layers = (
{
layerId = m01;
shapes = (
{
closed = 1;
nodes = (
(394,30,o),
(420,62,q),
(420,-199,l),
(513,-199,l),
(513,421,l),
(419,421,l),
(419,358,l),
(392,391,o),
(312,431,o),
(263,431,qs),
(203,431,o),
(104,375,o),
(45,275,o),
(45,208,qs),
(45,141,o),
(100,43,o),
(192,-10,o),
(247,-10,qs),
(303,-10,o)
);
},
{
closed = 1;
nodes = (
(177,102,o),
(139,167,o),
(139,207,qs),
(139,248,o),
(177,313,o),
(241,351,o),
(279,351,qs),
(333,351,o),
(407,291,o),
(418,243,q),
(418,173,l),
(410,126,o),
(332,65,o),
(279,65,qs),
(241,65,o)
);
}
);
width = 593;
}
);
note = q;
unicode = 113;
},
{
glyphname = r;
kernLeft = m;
kernRight = r;
layers = (
{
layerId = m01;
shapes = (
{
closed = 1;
nodes = (
(81,0,l),
(174,0,l),
(174,189,ls),
(174,229,o),
(214,299,o),
(286,340,o),
(333,338,q),
(337,431,l),
(313,430,o),
(248,403,o),
(188,352,o),
(171,317,q),
(164,414,l),
(81,414,l)
);
}
);
width = 376;
}
);
note = r;
unicode = 114;
},
{
glyphname = s;
kernLeft = s;
layers = (
{
layerId = m01;
shapes = (
{
closed = 1;
nodes = (
(359,73,o),
(359,129,qs),
(359,179,o),
(296,231,o),
(251,246,qs),
(228,253,o),
(183,269,o),
(156,294,o),
(156,315,qs),
(156,338,o),
(197,364,o),
(224,364,qs),
(244,363,o),
(293,344,o),
(311,326,q),
(348,383,l),
(318,407,o),
(250,429,o),
(207,429,qs),
(159,429,o),
(94,393,o),
(61,335,o),
(61,303,qs),
(61,216,o),
(167,182,qs),
(191,174,o),
(236,159,o),
(265,133,o),
(265,111,qs),
(265,82,o),
(220,58,o),
(190,58,qs),
(164,58,o),
(108,83,o),
(83,108,q),
(43,54,l),
(70,23,o),
(153,-8,o),
(198,-8,qs),
(279,-8,o)
);
}
);
width = 408;
}
);
note = s;
unicode = 115;
},
{
glyphname = t;
layers = (
{
layerId = m01;
shapes = (
{
closed = 1;
nodes = (
(45,413,l),
(45,339,l),
(121,339,l),
(121,0,l),
(215,0,l),
(215,339,l),
(328,339,l),
(328,413,l),
(215,413,l),
(215,596,l),
(121,596,l),
(121,413,l)
);
}
);
width = 360;
}
);
note = t;
unicode = 116;
},
{
glyphname = u;
kernLeft = m;
layers = (
{
layerId = m01;
shapes = (
{
closed = 1;
nodes = (
(355,37,o),
(375,78,q),
(382,0,l),
(466,0,l),
(466,414,l),
(373,414,l),
(373,221,ls),
(373,176,o),
(340,105,o),
(284,64,o),
(250,64,qs),
(212,65,o),
(176,107,o),
(174,141,q),
(174,414,l),
(81,414,l),
(81,108,ls),
(82,53,o),
(156,-16,o),
(213,-16,qs),
(268,-16,o)
);
}
);
width = 547;
}
);
note = u;
unicode = 117;
},
{
glyphname = v;
kernLeft = v;
kernRight = v;
layers = (
{
layerId = m01;
shapes = (
{
closed = 1;
nodes = (
(475,414,l),
(371,414,l),
(255,149,l),
(130,414,l),
(19,414,l),
(249,-12,l),
(254,-12,l)
);
}
);
width = 494;
}
);
note = v;
unicode = 118;
},
{
glyphname = w;
kernLeft = w;
kernRight = v;
layers = (
{
layerId = m01;
shapes = (
{
closed = 1;
nodes = (
(299,343,l),
(221,163,l),
(111,414,l),
(19,414,l),
(211,-25,l),
(332,259,l),
(465,-25,l),
(656,414,l),
(564,414,l),
(459,156,l),
(347,414,l),
(266,414,l)
);
}
);
width = 675;
}
);
note = w;
unicode = 119;
},
{
glyphname = x;
kernLeft = x;
layers = (
{
layerId = m01;
shapes = (
{
closed = 1;
nodes = (
(431,414,l),
(337,414,l),
(243,270,l),
(135,414,l),
(19,414,l),
(176,208,l),
(24,0,l),
(119,0,l),
(222,147,l),
(334,0,l),
(447,0,l),
(286,213,l)
);
}
);
width = 466;
}
);
note = x;
unicode = 120;
},
{
glyphname = y;
kernLeft = v;
kernRight = v;
layers = (
{
layerId = m01;
shapes = (
{
closed = 1;
nodes = (
(475,414,l),
(389,414,l),
(257,119,l),
(124,414,l),
(19,414,l),
(211,13,l),
(116,-199,l),
(208,-199,l)
);
}
);
width = 494;
}
);
note = y;
unicode = 121;
},
{
glyphname = z;
layers = (
{
layerId = m01;
shapes = (
{
closed = 1;
nodes = (
(28,0,l),
(411,0,l),
(411,77,l),
(180,77,l),
(415,414,l),
(150,414,ls),
(132,414,o),
(116,424,o),
(116,441,qs),
(116,454,l),
(45,454,l),
(45,414,ls),
(45,376,o),
(88,338,o),
(120,338,qs),
(263,338,l)
);
}
);
width = 463;
}
);
note = z;
unicode = 122;
},
{
glyphname = braceleft;
layers = (
{
layerId = m01;
shapes = (
{
closed = 1;
nodes = (
(308,756,l),
(244,756,ls),
(219,756,o),
(173,752,o),
(136,732,o),
(114,682,o),
(114,636,qs),
(114,469,ls),
(114,440,o),
(97,383,o),
(62,346,o),
(33,345,q),
(33,263,l),
(62,262,o),
(97,224,o),
(114,168,o),
(114,140,qs),
(114,-18,ls),
(114,-71,o),
(135,-126,o),
(172,-148,o),
(219,-151,o),
(244,-151,qs),
(308,-151,l),
(308,-69,l),
(263,-69,ls),
(242,-69,o),
(219,-53,o),
(211,-8,o),
(211,35,qs),
(211,166,ls),
(211,207,o),
(188,261,o),
(158,294,o),
(145,303,q),
(159,312,o),
(189,345,o),
(211,404,o),
(211,451,qs),
(211,569,ls),
(211,612,o),
(219,657,o),
(242,673,o),
(263,673,qs),
(308,673,l)
);
}
);
width = 354;
}
);
note = braceleft;
unicode = 123;
},
{
glyphname = bar;
layers = (
{
layerId = m01;
shapes = (
{
closed = 1;
nodes = (
(177,-235,l),
(177,709,l),
(92,709,l),
(92,-235,l)
);
}
);
width = 274;
}
);
note = bar;
unicode = 124;
},
{
glyphname = braceright;
layers = (
{
layerId = m01;
shapes = (
{
closed = 1;
nodes = (
(64,-151,l),
(128,-151,ls),
(152,-151,o),
(198,-148,o),
(236,-128,o),
(258,-79,o),
(258,-31,qs),
(258,123,ls),
(258,150,o),
(271,213,o),
(306,258,o),
(338,259,q),
(338,342,l),
(306,343,o),
(271,388,o),
(258,451,o),
(258,478,qs),
(258,636,ls),
(258,683,o),
(235,733,o),
(197,753,o),
(151,756,o),
(128,756,qs),
(64,756,l),
(64,673,l),
(109,673,ls),
(129,673,o),
(152,658,o),
(161,613,o),
(161,570,qs),
(161,439,ls),
(161,397,o),
(183,343,o),
(214,311,o),
(227,302,q),
(215,294,o),
(184,261,o),
(161,207,o),
(161,167,qs),
(161,36,ls),
(161,-8,o),
(152,-53,o),
(129,-69,o),
(109,-69,qs),
(64,-69,l)
);
}
);
width = 371;
}
);
note = braceright;
unicode = 125;
},
{
glyphname = asciitilde;
layers = (
{
layerId = m01;
shapes = (
{
closed = 1;
nodes = (
(401,520,o),
(394,592,q),
(335,592,l),
(335,552,o),
(317,504,o),
(295,504,qs),
(278,504,o),
(248,527,o),
(233,542,qs),
(215,560,o),
(171,592,o),
(142,592,qs),
(88,592,o),
(28,501,o),
(33,435,q),
(91,435,l),
(90,473,o),
(115,519,o),
(137,519,qs),
(153,519,o),
(180,499,o),
(194,486,qs),
(213,468,o),
(260,436,o),
(297,436,qs),
(342,436,o)
);
}
);
width = 427;
}
);
note = asciitilde;
unicode = 126;
},
{
glyphname = exclamdown;
layers = (
{
layerId = m01;
shapes = (
{
closed = 1;
nodes = (
(41,514,o),
(41,490,qs),
(41,467,o),
(76,436,o),
(102,436,qs),
(127,436,o),
(160,467,o),
(160,490,qs),
(160,514,o),
(127,543,o),
(102,543,qs),
(76,543,o)
);
},
{
closed = 1;
nodes = (
(141,360,l),
(57,360,l),
(57,-212,l),
(141,-212,l)
);
}
);
width = 203;
}
);
note = exclamdown;
unicode = 161;
},
{
glyphname = cent;
layers = (
{
layerId = m01;
shapes = (
{
closed = 1;
nodes = (
(337,72,o),
(296,68,q),
(296,346,l),
(320,342,o),
(359,323,o),
(373,312,q),
(420,373,l),
(396,392,o),
(334,419,o),
(296,423,q),
(296,481,l),
(237,481,l),
(237,423,l),
(185,417,o),
(97,361,o),
(44,269,o),
(44,207,qs),
(44,117,o),
(150,2,o),
(237,-8,q),
(237,-68,l),
(296,-68,l),
(296,-9,l),
(367,-2,o),
(417,38,q),
(369,97,l)
);
},
{
closed = 1;
nodes = (
(194,332,o),
(237,344,q),
(237,73,l),
(192,86,o),
(138,160,o),
(138,208,qs),
(138,258,o)
);
}
);
width = 456;
}
);
note = cent;
unicode = 162;
},
{
glyphname = sterling;
layers = (
{
layerId = m01;
shapes = (
{
closed = 1;
nodes = (
(251,504,ls),
(251,552,o),
(303,606,o),
(365,606,qs),
(419,606,o),
(468,571,o),
(483,549,q),
(553,597,l),
(529,644,o),
(434,699,o),
(363,699,qs),
(301,699,o),
(206,658,o),
(154,586,o),
(154,538,qs),
(154,384,l),
(89,384,l),
(89,290,l),
(154,290,l),
(154,195,ls),
(154,152,o),
(145,108,o),
(123,94,o),
(102,94,qs),
(57,94,l),
(57,0,l),
(448,0,ls),
(500,0,o),
(558,30,o),
(581,82,o),
(581,115,qs),
(581,180,l),
(497,180,l),
(497,138,ls),
(497,114,o),
(463,94,o),
(428,94,qs),
(231,94,l),
(244,109,o),
(251,158,o),
(251,177,qs),
(251,290,l),
(389,290,l),
(389,384,l),
(251,384,l)
);
}
);
width = 633;
}
);
note = sterling;
unicode = 163;
},
{
glyphname = currency;
layers = (
{
layerId = m01;
shapes = (
{
closed = 1;
nodes = (
(363,512,l),
(334,483,l),
(316,495,o),
(274,510,o),
(250,510,qs),
(227,510,o),
(185,495,o),
(167,484,q),
(138,513,l),
(97,472,l),
(105,464,o),
(118,450,o),
(126,442,q),
(114,425,o),
(101,384,o),
(101,361,qs),
(101,337,o),
(115,294,o),
(127,276,q),
(97,246,l),
(138,205,l),
(169,236,l),
(186,224,o),
(227,211,o),
(250,211,qs),
(296,211,o),
(332,237,q),
(340,229,o),
(356,213,o),
(363,206,q),
(405,247,l),
(375,277,l),
(387,295,o),
(402,337,o),
(402,361,qs),
(402,406,o),
(376,443,q),
(404,471,l)
);
},
{
closed = 1;
nodes = (
(213,453,o),
(251,453,qs),
(289,453,o),
(344,399,o),
(344,361,qs),
(344,322,o),
(289,268,o),
(251,268,qs),
(213,268,o),
(159,322,o),
(159,361,qs),
(159,399,o)
);
}
);
width = 504;
}
);
note = currency;
unicode = 164;
},
{
glyphname = yen;
layers = (
{
layerId = m01;
shapes = (
{
closed = 1;
nodes = (
(296,77,l),
(296,0,l),
(393,0,l),
(393,77,l),
(533,77,l),
(533,154,l),
(393,154,l),
(393,225,l),
(533,225,l),
(533,301,l),
(393,301,l),
(393,303,l),
(664,723,l),
(545,723,l),
(348,409,l),
(148,723,l),
(28,723,l),
(296,303,l),
(296,301,l),
(165,301,l),
(165,225,l),
(296,225,l),
(296,154,l),
(166,154,l),
(166,77,l)
);
}
);
width = 692;
}
);
note = yen;
unicode = 165;
},
{
glyphname = brokenbar;
layers = (
{
layerId = m01;
shapes = (
{
closed = 1;
nodes = (
(155,355,l),
(155,709,l),
(70,709,l),
(70,355,l)
);
},
{
closed = 1;
nodes = (
(155,-236,l),
(155,119,l),
(70,119,l),
(70,-236,l)
);
}
);
width = 218;
}
);
note = brokenbar;
unicode = 166;
},
{
glyphname = section;
layers = (
{
layerId = m01;
shapes = (
{
closed = 1;
nodes = (
(452,133,o),
(416,151,q),
(467,172,o),
(522,253,o),
(522,301,qs),
(522,343,o),
(488,401,o),
(433,438,o),
(367,462,o),
(335,471,qs),
(295,481,o),
(231,504,o),
(193,540,o),
(193,569,qs),
(193,600,o),
(252,648,o),
(310,648,qs),
(345,646,o),
(416,623,o),
(452,597,q),
(494,669,l),
(456,697,o),
(355,731,o),
(300,732,qs),
(229,732,o),
(137,680,o),
(92,600,o),
(92,557,qs),
(92,514,o),
(134,444,o),
(178,419,q),
(133,405,o),
(69,333,o),
(69,276,qs),
(69,236,o),
(103,179,o),
(159,141,o),
(227,116,o),
(260,107,qs),
(295,99,o),
(357,76,o),
(396,39,o),
(396,10,qs),
(396,-35,o),
(320,-85,o),
(270,-85,qs),
(227,-85,o),
(140,-48,o),
(98,-17,q),
(50,-97,l),
(90,-130,o),
(209,-172,o),
(276,-172,qs),
(340,-172,o),
(440,-119,o),
(497,-31,o),
(497,22,qs),
(497,69,o)
);
},
{
closed = 1;
nodes = (
(387,213,o),
(331,190,o),
(304,188,q),
(264,198,o),
(200,225,o),
(163,267,o),
(164,299,qs),
(165,335,o),
(235,385,o),
(294,383,q),
(326,377,o),
(387,352,o),
(427,312,o),
(427,284,qs),
(426,255,o)
);
}
);
width = 572;
}
);
note = section;
unicode = 167;
},
{
glyphname = dieresis;
layers = (
{
layerId = m01;
shapes = (
{
closed = 1;
nodes = (
(95,474,o),
(115,474,qs),
(133,474,o),
(167,503,o),
(167,527,qs),
(167,549,o),
(133,580,o),
(115,580,qs),
(95,580,o),
(62,549,o),
(62,527,qs),
(62,503,o)
);
},
{
closed = 1;
nodes = (
(282,474,o),
(302,474,qs),
(320,474,o),
(354,503,o),
(354,527,qs),
(354,549,o),
(320,580,o),
(302,580,qs),
(282,580,o),
(249,549,o),
(249,527,qs),
(249,503,o)
);
}
);
width = 416;
}
);
note = dieresis;
unicode = 168;
},
{
glyphname = copyright;
layers = (
{
layerId = m01;
shapes = (
{
closed = 1;
nodes = (
(620,49,o),
(712,140,o),
(764,262,o),
(764,334,qs),
(764,407,o),
(711,530,o),
(617,620,o),
(494,671,o),
(424,671,qs),
(353,671,o),
(230,620,o),
(136,530,o),
(83,407,o),
(83,334,qs),
(83,262,o),
(136,140,o),
(230,49,o),
(353,-2,o),
(424,-2,qs),
(496,-2,o)
);
},
{
closed = 1;
nodes = (
(230,142,o),
(164,259,o),
(164,334,qs),
(164,409,o),
(233,527,o),
(351,594,o),
(423,594,qs),
(496,594,o),
(613,527,o),
(682,409,o),
(682,334,qs),
(682,259,o),
(613,142,o),
(496,75,o),
(423,75,qs),
(346,75,o)
);
},
{
closed = 1;
nodes = (
(506,249,o),
(463,232,o),
(442,232,qs),
(396,232,o),
(341,294,o),
(341,338,qs),
(341,381,o),
(398,445,o),
(441,445,qs),
(461,445,o),
(498,435,o),
(514,420,q),
(552,492,l),
(530,510,o),
(463,527,o),
(434,527,qs),
(378,527,o),
(292,477,o),
(245,390,o),
(245,335,qs),
(245,285,o),
(292,200,o),
(375,148,o),
(427,146,qs),
(473,146,o),
(544,181,o),
(567,202,q),
(524,266,l)
);
}
);
width = 847;
}
);
note = copyright;
unicode = 169;
},
{
glyphname = ordfeminine;
layers = (
{
layerId = m01;
shapes = (
{
closed = 1;
nodes = (
(254,455,o),
(267,471,q),
(267,428,l),
(339,428,l),
(339,715,l),
(272,715,l),
(267,673,l),
(253,696,o),
(201,724,o),
(163,724,qs),
(128,724,o),
(69,687,o),
(33,619,o),
(33,572,qs),
(33,499,o),
(110,422,o),
(165,422,qs),
(202,422,o)
);
},
{
closed = 1;
nodes = (
(105,535,o),
(105,574,qs),
(105,615,o),
(152,665,o),
(186,665,qs),
(216,665,o),
(259,629,o),
(267,600,q),
(267,551,l),
(261,520,o),
(219,481,o),
(187,481,qs),
(153,481,o)
);
}
);
width = 400;
}
);
note = ordfeminine;
unicode = 170;
},
{
glyphname = guillemotleft;
layers = (
{
layerId = m01;
shapes = (
{
closed = 1;
nodes = (
(276,138,l),
(269,144,o),
(238,173,o),
(202,206,o),
(171,235,o),
(165,242,q),
(171,249,o),
(202,277,o),
(238,310,o),
(269,338,o),
(276,345,q),
(276,431,l),
(270,425,o),
(225,387,o),
(164,336,o),
(104,286,o),
(59,248,o),
(52,242,q),
(276,53,l)
);
},
{
closed = 1;
nodes = (
(497,138,l),
(490,144,o),
(459,173,o),
(423,206,o),
(392,235,o),
(386,242,q),
(392,249,o),
(423,277,o),
(459,310,o),
(490,338,o),
(497,345,q),
(497,431,l),
(491,425,o),
(446,387,o),
(385,336,o),
(325,286,o),
(280,248,o),
(274,242,q),
(497,53,l)
);
}
);
width = 606;
}
);
note = guillemotleft;
unicode = 171;
},
{
glyphname = logicalnot;
layers = (
{
layerId = m01;
shapes = (
{
closed = 1;
nodes = (
(336,203,l),
(336,112,l),
(433,112,l),
(433,297,l),
(69,297,l),
(69,203,l)
);
}
);
width = 501;
}
);
note = logicalnot;
unicode = 172;
},
{
glyphname = registered;
layers = (
{
layerId = m01;
shapes = (
{
closed = 1;
nodes = (
(398,357,o),
(456,452,o),
(456,512,qs),
(456,572,o),
(398,666,o),
(302,721,o),
(243,721,qs),
(185,721,o),
(88,666,o),
(31,572,o),
(31,512,qs),
(31,452,o),
(88,357,o),
(185,303,o),
(243,303,qs),
(302,303,o)
);
},
{
closed = 1;
nodes = (
(129,396,o),
(88,467,o),
(88,512,qs),
(88,557,o),
(129,628,o),
(199,669,o),
(243,669,qs),
(287,669,o),
(357,628,o),
(399,557,o),
(399,512,qs),
(399,467,o),
(357,396,o),
(287,356,o),
(243,356,qs),
(199,356,o)
);
},
{
closed = 1;
nodes = (
(220,408,l),
(220,482,l),
(239,482,l),
(269,408,l),
(329,408,l),
(291,489,l),
(309,499,o),
(327,533,o),
(327,553,qs),
(327,586,o),
(287,621,o),
(251,621,qs),
(168,621,l),
(168,408,l)
);
},
{
closed = 1;
nodes = (
(221,581,l),
(242,581,ls),
(256,581,o),
(271,564,o),
(271,551,qs),
(271,538,o),
(258,523,o),
(241,523,qs),
(221,523,l)
);
}
);
width = 486;
}
);
note = registered;
unicode = 174;
},
{
glyphname = macron;
layers = (
{
layerId = m01;
shapes = (
{
closed = 1;
nodes = (
(309,471,l),
(309,538,l),
(63,538,l),
(63,471,l)
);
}
);
width = 371;
}
);
note = macron;
unicode = 175;
},
{
glyphname = degree;
layers = (
{
layerId = m01;
shapes = (
{
closed = 1;
nodes = (
(97,465,o),
(140,465,qs),
(182,465,o),
(241,525,o),
(241,567,qs),
(241,610,o),
(182,669,o),
(140,669,qs),
(97,669,o),
(37,610,o),
(37,567,qs),
(37,525,o)
);
},
{
closed = 1;
nodes = (
(91,546,o),
(91,567,qs),
(91,587,o),
(119,616,o),
(140,616,qs),
(160,616,o),
(189,587,o),
(189,567,qs),
(189,546,o),
(160,518,o),
(140,518,qs),
(119,518,o)
);
}
);
width = 285;
}
);
note = degree;
unicode = 176;
},
{
glyphname = plusminus;
layers = (
{
layerId = m01;
shapes = (
{
closed = 1;
nodes = (
(88,437,l),
(88,355,l),
(227,355,l),
(227,214,l),
(312,214,l),
(312,355,l),
(452,355,l),
(452,437,l),
(312,437,l),
(312,578,l),
(227,578,l),
(227,437,l)
);
},
{
closed = 1;
nodes = (
(452,89,l),
(452,171,l),
(88,171,l),
(88,89,l)
);
}
);
width = 531;
}
);
note = plusminus;
unicode = 177;
},
{
glyphname = uni00B2;
layers = (
{
layerId = m01;
shapes = (
{
closed = 1;
nodes = (
(107,591,o),
(150,616,o),
(174,616,qs),
(203,616,o),
(236,582,o),
(236,544,qs),
(236,509,o),
(183,441,o),
(109,380,o),
(76,357,q),
(76,306,l),
(348,306,l),
(348,384,l),
(212,384,l),
(242,409,o),
(298,467,o),
(334,532,o),
(334,569,qs),
(334,627,o),
(259,693,o),
(199,694,qs),
(158,695,o),
(85,661,o),
(68,636,q),
(97,575,l)
);
}
);
width = 404;
}
);
note = uni00B2;
unicode = 178;
},
{
glyphname = uni00B3;
layers = (
{
layerId = m01;
shapes = (
{
closed = 1;
nodes = (
(307,381,o),
(307,439,qs),
(307,487,o),
(245,543,o),
(208,548,q),
(290,688,l),
(69,688,l),
(69,620,l),
(178,620,l),
(100,503,l),
(105,494,l),
(113,498,o),
(136,504,o),
(154,504,qs),
(181,504,o),
(222,472,o),
(222,436,qs),
(222,402,o),
(184,365,o),
(155,365,qs),
(129,364,o),
(91,394,o),
(82,404,q),
(55,350,l),
(70,334,o),
(125,303,o),
(165,303,qs),
(230,303,o)
);
}
);
width = 390;
}
);
note = uni00B3;
unicode = 179;
},
{
glyphname = acute;
layers = (
{
layerId = m01;
shapes = (
{
closed = 1;
nodes = (
(45,486,l),
(105,486,l),
(232,620,l),
(128,620,l)
);
}
);
width = 276;
}
);
note = acute;
unicode = 180;
},
{
glyphname = mu;
layers = (
{
layerId = m01;
shapes = (
{
closed = 1;
nodes = (
(355,38,o),
(375,79,q),
(382,0,l),
(466,0,l),
(466,414,l),
(373,414,l),
(373,221,ls),
(373,176,o),
(340,105,o),
(284,64,o),
(250,64,qs),
(212,65,o),
(176,107,o),
(174,141,q),
(174,414,l),
(81,414,l),
(81,-201,l),
(174,-201,l),
(174,-11,l),
(192,-16,o),
(213,-16,qs),
(268,-16,o)
);
}
);
width = 547;
}
);
note = mu;
unicode = 181;
},
{
glyphname = paragraph;
layers = (
{
layerId = m01;
shapes = (
{
closed = 1;
nodes = (
(288,0,l),
(288,678,l),
(369,678,l),
(369,0,l),
(453,0,l),
(453,760,l),
(204,760,ls),
(158,760,o),
(83,715,o),
(39,640,o),
(39,594,qs),
(39,548,o),
(83,472,o),
(158,428,o),
(204,428,q),
(204,0,l)
);
}
);
width = 554;
}
);
note = paragraph;
unicode = 182;
},
{
glyphname = cedilla;
layers = (
{
layerId = m01;
shapes = (
{
closed = 1;
nodes = (
(98,-209,o),
(150,-231,o),
(188,-231,qs),
(224,-231,o),
(287,-210,o),
(325,-166,o),
(325,-133,qs),
(325,-89,o),
(258,-45,o),
(205,-46,qs),
(201,-46,o),
(197,-46,q),
(241,5,l),
(170,8,l),
(100,-56,l),
(117,-102,l),
(130,-97,o),
(166,-89,o),
(182,-89,qs),
(218,-89,o),
(247,-117,o),
(247,-134,qs),
(247,-157,o),
(204,-180,o),
(178,-180,qs),
(157,-180,o),
(123,-165,o),
(112,-153,q),
(82,-193,l)
);
}
);
width = 402;
}
);
note = cedilla;
unicode = 184;
},
{
glyphname = uni00B9;
layers = (
{
layerId = m01;
shapes = (
{
closed = 1;
nodes = (
(105,577,l),
(105,288,l),
(192,288,l),
(192,661,l),
(45,661,l),
(45,577,l)
);
}
);
width = 271;
}
);
note = uni00B9;
unicode = 185;
},
{
glyphname = ordmasculine;
layers = (
{
layerId = m01;
shapes = (
{
closed = 1;
nodes = (
(121,420,o),
(188,420,qs),
(235,420,o),
(305,459,o),
(345,528,o),
(345,571,qs),
(345,614,o),
(305,682,o),
(235,722,o),
(189,722,qs),
(144,722,o),
(73,682,o),
(33,614,o),
(33,571,qs),
(33,502,o)
);
},
{
closed = 1;
nodes = (
(153,659,o),
(188,659,qs),
(224,659,o),
(271,608,o),
(271,570,qs),
(271,533,o),
(224,483,o),
(188,483,qs),
(154,483,o),
(106,533,o),
(106,570,qs),
(106,606,o)
);
}
);
width = 377;
}
);
note = ordmasculine;
unicode = 186;
},
{
glyphname = guillemotright;
layers = (
{
layerId = m01;
shapes = (
{
closed = 1;
nodes = (
(487,286,o),
(426,336,o),
(366,387,o),
(321,425,o),
(315,431,q),
(315,345,l),
(321,338,o),
(352,310,o),
(389,277,o),
(420,249,o),
(426,242,q),
(420,235,o),
(389,206,o),
(352,173,o),
(321,144,o),
(315,138,q),
(315,53,l),
(538,242,l),
(532,248,o)
);
},
{
closed = 1;
nodes = (
(266,286,o),
(205,336,o),
(145,387,o),
(100,425,o),
(94,431,q),
(94,345,l),
(100,338,o),
(131,310,o),
(168,277,o),
(199,249,o),
(205,242,q),
(199,235,o),
(168,206,o),
(131,173,o),
(100,144,o),
(94,138,q),
(94,53,l),
(317,242,l),
(311,248,o)
);
}
);
width = 606;
}
);
note = guillemotright;
unicode = 187;
},
{
glyphname = onequarter;
layers = (
{
layerId = m01;
shapes = (
{
closed = 1;
nodes = (
(143,0,l),
(231,0,l),
(638,685,l),
(550,685,l)
);
},
{
closed = 1;
nodes = (
(108,577,l),
(108,288,l),
(196,288,l),
(196,661,l),
(48,661,l),
(48,577,l)
);
},
{
closed = 1;
nodes = (
(733,381,l),
(676,381,l),
(478,124,l),
(479,100,l),
(652,100,l),
(652,0,l),
(733,0,l),
(733,100,l),
(777,100,l),
(777,154,l),
(733,154,l)
);
},
{
closed = 1;
nodes = (
(652,154,l),
(572,154,l),
(652,258,l)
);
}
);
width = 811;
}
);
note = onequarter;
unicode = 188;
},
{
glyphname = questiondown;
layers = (
{
layerId = m01;
shapes = (
{
closed = 1;
nodes = (
(188,506,o),
(188,482,qs),
(188,459,o),
(221,428,o),
(247,428,qs),
(272,428,o),
(307,459,o),
(307,482,qs),
(307,506,o),
(272,535,o),
(247,535,qs),
(221,535,o)
);
},
{
closed = 1;
nodes = (
(201,312,ls),
(201,272,o),
(180,223,o),
(146,188,o),
(125,170,qs),
(100,148,o),
(56,100,o),
(29,35,o),
(29,-13,qs),
(29,-74,o),
(82,-159,o),
(173,-202,o),
(229,-202,qs),
(277,-203,o),
(351,-171,o),
(404,-123,o),
(436,-69,o),
(444,-47,q),
(366,-12,l),
(351,-54,o),
(288,-115,o),
(238,-115,qs),
(210,-115,o),
(159,-88,o),
(128,-38,o),
(128,-5,qs),
(128,41,o),
(173,98,o),
(205,124,qs),
(227,143,o),
(268,183,o),
(295,243,o),
(295,291,qs),
(295,354,l),
(201,354,l)
);
}
);
width = 437;
}
);
note = questiondown;
unicode = 191;
},
{
glyphname = AE;
layers = (
{
layerId = m01;
shapes = (
{
closed = 1;
nodes = (
(477,179,l),
(477,0,l),
(886,0,l),
(886,94,l),
(574,94,l),
(574,315,l),
(832,315,l),
(832,409,l),
(574,409,l),
(574,629,l),
(872,629,l),
(872,723,l),
(477,723,l),
(13,0,l),
(124,0,l),
(234,179,l)
);
},
{
closed = 1;
nodes = (
(477,256,l),
(282,256,l),
(477,573,l)
);
}
);
width = 951;
}
);
note = AE;
unicode = 198;
},
{
glyphname = multiply;
layers = (
{
layerId = m01;
shapes = (
{
closed = 1;
nodes = (
(108,264,l),
(205,167,l),
(181,143,o),
(134,96,o),
(110,72,q),
(127,54,o),
(163,19,o),
(182,2,q),
(204,24,o),
(252,71,o),
(275,95,q),
(299,71,o),
(347,24,o),
(371,0,q),
(445,73,l),
(420,97,o),
(374,145,o),
(350,169,q),
(395,217,o),
(443,263,q),
(425,281,o),
(390,318,o),
(373,335,q),
(325,288,o),
(278,240,q),
(180,338,l)
);
}
);
width = 518;
}
);
note = multiply;
unicode = 215;
},
{
glyphname = Oslash;
layers = (
{
layerId = m01;
shapes = (
{
closed = 1;
nodes = (
(110,161,o),
(154,112,q),
(93,41,l),
(154,-14,l),
(216,58,l),
(261,27,o),
(368,-8,o),
(427,-8,qs),
(503,-8,o),
(638,49,o),
(740,151,o),
(798,284,o),
(798,361,qs),
(798,434,o),
(742,566,o),
(693,617,q),
(753,687,l),
(693,743,l),
(630,669,l),
(586,698,o),
(483,731,o),
(427,731,qs),
(351,731,o),
(218,672,o),
(116,570,o),
(59,436,o),
(59,361,qs),
(59,288,o)
);
},
{
closed = 1;
nodes = (
(230,562,o),
(352,638,o),
(428,638,qs),
(467,638,o),
(538,617,o),
(569,597,q),
(218,188,l),
(190,223,o),
(159,311,o),
(159,360,qs),
(159,436,o)
);
},
{
closed = 1;
nodes = (
(626,159,o),
(505,86,o),
(430,86,qs),
(387,86,o),
(311,110,o),
(279,132,q),
(631,544,l),
(662,507,o),
(698,413,o),
(698,361,qs),
(698,284,o)
);
}
);
width = 858;
}
);
note = Oslash;
unicode = 216;
},
{
glyphname = Thorn;
kernRight = P;
layers = (
{
layerId = m01;
shapes = (
{
closed = 1;
nodes = (
(204,718,l),
(104,718,l),
(104,0,l),
(204,0,l),
(204,129,l),
(315,129,ls),
(381,129,o),
(471,169,o),
(525,237,o),
(549,319,o),
(549,362,qs),
(549,472,o),
(423,586,o),
(316,586,qs),
(204,586,l)
);
},
{
closed = 1;
nodes = (
(204,493,l),
(307,493,ls),
(355,493,o),
(418,455,o),
(449,394,o),
(449,360,qs),
(449,329,o),
(421,265,o),
(358,223,o),
(306,223,qs),
(204,223,l)
);
}
);
width = 595;
}
);
note = Thorn;
unicode = 222;
},
{
glyphname = germandbls;
layers = (
{
layerId = m01;
shapes = (
{
closed = 1;
nodes = (
(44,420,l),
(44,343,l),
(109,343,l),
(109,0,l),
(203,0,l),
(203,423,ls),
(203,501,o),
(254,588,o),
(316,588,qs),
(362,588,o),
(410,540,o),
(410,503,qs),
(410,469,o),
(364,429,o),
(329,429,q),
(329,346,l),
(335,346,ls),
(390,347,o),
(459,268,o),
(459,202,qs),
(459,143,o),
(399,62,o),
(345,62,qs),
(327,62,o),
(293,71,o),
(277,84,q),
(241,27,l),
(255,14,o),
(313,-10,o),
(354,-10,qs),
(411,-10,o),
(501,39,o),
(553,131,o),
(553,197,qs),
(553,279,o),
(484,375,o),
(430,395,q),
(466,412,o),
(504,481,o),
(504,525,qs),
(504,562,o),
(461,626,o),
(376,665,o),
(314,666,qs),
(257,666,o),
(163,615,o),
(109,520,o),
(109,453,qs),
(109,420,l)
);
}
);
width = 602;
}
);
note = germandbls;
unicode = 223;
},
{
glyphname = ae;
layers = (
{
layerId = m01;
shapes = (
{
closed = 1;
nodes = (
(355,24,o),
(386,64,q),
(386,68,l),
(416,32,o),
(508,-10,o),
(568,-10,qs),
(605,-10,o),
(681,16,o),
(713,37,q),
(670,106,l),
(648,90,o),
(597,70,o),
(570,70,qs),
(530,70,o),
(469,105,o),
(451,136,q),
(779,251,l),
(760,335,o),
(651,431,o),
(570,431,qs),
(522,431,o),
(438,397,o),
(407,367,q),
(386,398,o),
(309,430,o),
(258,430,qs),
(195,430,o),
(103,381,o),
(71,348,q),
(119,288,l),
(142,315,o),
(206,353,o),
(246,353,qs),
(263,353,o),
(307,338,o),
(339,300,o),
(339,263,qs),
(339,214,l),
(313,228,o),
(247,246,o),
(213,246,qs),
(170,246,o),
(93,215,o),
(45,158,o),
(45,117,qs),
(45,63,o),
(122,-11,o),
(207,-11,qs),
(254,-11,o)
);
},
{
closed = 1;
nodes = (
(505,357,o),
(563,357,qs),
(606,357,o),
(660,311,o),
(673,281,q),
(432,192,l),
(431,203,o),
(431,215,qs),
(431,277,o)
);
},
{
closed = 1;
nodes = (
(200,183,o),
(235,183,qs),
(268,183,o),
(319,164,o),
(345,144,q),
(345,105,l),
(327,83,o),
(260,55,o),
(233,55,qs),
(190,55,o),
(148,91,o),
(148,120,qs),
(148,153,o)
);
}
);
width = 815;
}
);
note = ae;
unicode = 230;
},
{
glyphname = eth;
layers = (
{
layerId = m01;
shapes = (
{
closed = 1;
nodes = (
(444,64,o),
(501,181,o),
(501,247,qs),
(501,344,o),
(421,547,o),
(355,631,q),
(425,675,l),
(394,736,l),
(310,684,l),
(264,732,o),
(214,766,q),
(147,705,l),
(192,669,o),
(228,633,q),
(158,589,l),
(189,527,l),
(276,581,l),
(317,533,o),
(375,423,o),
(390,360,q),
(366,391,o),
(296,431,o),
(251,431,qs),
(193,431,o),
(100,373,o),
(45,273,o),
(45,211,qs),
(45,144,o),
(103,44,o),
(203,-10,o),
(264,-10,qs),
(339,-10,o)
);
},
{
closed = 1;
nodes = (
(174,105,o),
(139,170,o),
(139,210,qs),
(139,249,o),
(173,314,o),
(234,354,o),
(272,354,qs),
(311,354,o),
(371,315,o),
(406,250,o),
(406,210,qs),
(406,170,o),
(371,105,o),
(311,67,o),
(272,67,qs),
(234,67,o)
);
}
);
width = 545;
}
);
note = eth;
unicode = 240;
},
{
glyphname = divide;
layers = (
{
layerId = m01;
shapes = (
{
closed = 1;
nodes = (
(234,344,o),
(254,344,qs),
(273,344,o),
(306,373,o),
(306,397,qs),
(306,419,o),
(273,450,o),
(254,450,qs),
(234,450,o),
(202,419,o),
(202,397,qs),
(202,373,o)
);
},
{
closed = 1;
nodes = (
(433,208,l),
(433,291,l),
(69,291,l),
(69,208,l)
);
},
{
closed = 1;
nodes = (
(234,53,o),
(254,53,qs),
(273,53,o),
(306,82,o),
(306,106,qs),
(306,128,o),
(273,159,o),
(254,159,qs),
(234,159,o),
(202,128,o),
(202,106,qs),
(202,82,o)
);
}
);
width = 507;
}
);
note = divide;
unicode = 247;
},
{
glyphname = oslash;
kernRight = o;
layers = (
{
layerId = m01;
shapes = (
{
closed = 1;
nodes = (
(72,92,o),
(96,64,q),
(57,19,l),
(103,-23,l),
(144,24,l),
(200,-10,o),
(273,-10,qs),
(341,-10,o),
(444,49,o),
(501,149,o),
(501,211,qs),
(501,257,o),
(469,336,o),
(440,365,q),
(474,404,l),
(427,444,l),
(391,403,l),
(339,431,o),
(275,431,qs),
(208,431,o),
(104,373,o),
(45,273,o),
(45,211,qs),
(45,166,o)
);
},
{
closed = 1;
nodes = (
(173,314,o),
(234,354,o),
(272,354,qs),
(306,354,o),
(334,338,q),
(158,135,l),
(139,169,o),
(139,210,qs),
(139,249,o)
);
},
{
closed = 1;
nodes = (
(371,105,o),
(311,67,o),
(272,67,qs),
(232,67,o),
(200,89,q),
(380,296,l),
(406,259,o),
(406,210,qs),
(406,170,o)
);
}
);
width = 521;
}
);
note = oslash;
unicode = 248;
},
{
glyphname = thorn;
kernRight = o;
layers = (
{
layerId = m01;
shapes = (
{
closed = 1;
nodes = (
(488,43,o),
(547,141,o),
(547,208,qs),
(547,275,o),
(493,375,o),
(400,431,o),
(342,431,qs),
(290,431,o),
(201,388,o),
(173,354,q),
(173,775,l),
(79,775,l),
(79,-199,l),
(172,-199,l),
(172,67,l),
(193,32,o),
(278,-10,o),
(324,-10,qs),
(387,-10,o)
);
},
{
closed = 1;
nodes = (
(181,125,o),
(173,171,q),
(173,243,l),
(184,291,o),
(258,352,o),
(313,352,qs),
(350,352,o),
(413,314,o),
(452,249,o),
(452,207,qs),
(452,167,o),
(412,102,o),
(346,65,o),
(306,65,qs),
(255,65,o)
);
}
);
width = 585;
}
);
note = thorn;
unicode = 254;
},
{
glyphname = aogonek;
kernLeft = a;
layers = (
{
layerId = m01;
shapes = (
{
closed = 1;
nodes = (
(357,17,o),
(401,56,o),
(415,74,q),
(415,8,l),
(378,-8,o),
(330,-71,o),
(330,-106,qs),
(330,-155,o),
(399,-215,o),
(448,-215,qs),
(479,-215,o),
(542,-177,o),
(560,-148,q),
(525,-100,l),
(510,-123,o),
(476,-148,o),
(457,-148,qs),
(438,-148,o),
(409,-125,o),
(409,-99,qs),
(409,-68,o),
(464,-21,o),
(509,0,q),
(509,414,l),
(423,414,l),
(416,342,l),
(394,379,o),
(317,431,o),
(253,431,qs),
(198,431,o),
(104,377,o),
(47,277,o),
(47,207,qs),
(47,137,o),
(102,40,o),
(196,-10,o),
(253,-10,qs),
(294,-10,o)
);
},
{
closed = 1;
nodes = (
(179,106,o),
(142,171,o),
(142,212,qs),
(142,254,o),
(179,318,o),
(241,354,o),
(278,354,qs),
(328,354,o),
(403,298,o),
(415,255,q),
(415,173,l),
(404,124,o),
(331,67,o),
(278,67,qs),
(241,67,o)
);
}
);
width = 591;
}
);
note = aogonek;
unicode = 261;
},
{
glyphname = eogonek;
kernLeft = a;
layers = (
{
layerId = m01;
shapes = (
{
closed = 1;
nodes = (
(418,-182,o),
(436,-157,q),
(401,-107,l),
(372,-148,o),
(337,-148,qs),
(317,-148,o),
(283,-116,o),
(283,-88,qs),
(283,-53,o),
(326,-13,o),
(390,17,o),
(421,37,q),
(378,106,l),
(356,90,o),
(305,70,o),
(278,70,qs),
(239,70,o),
(177,105,o),
(159,136,q),
(487,251,l),
(468,335,o),
(359,431,o),
(278,431,qs),
(213,431,o),
(109,372,o),
(47,271,o),
(47,210,qs),
(47,150,o),
(96,55,o),
(187,-4,o),
(250,-9,q),
(227,-28,o),
(204,-77,o),
(204,-102,qs),
(204,-153,o),
(273,-215,o),
(328,-215,qs),
(357,-215,o)
);
},
{
closed = 1;
nodes = (
(213,357,o),
(271,357,qs),
(314,357,o),
(368,311,o),
(382,278,q),
(141,190,l),
(139,202,o),
(139,215,qs),
(139,277,o)
);
}
);
width = 523;
}
);
note = eogonek;
unicode = 281;
},
{
glyphname = uni0123;
kernLeft = a;
layers = (
{
layerId = m01;
shapes = (
{
closed = 1;
nodes = (
(335,560,o),
(374,664,o),
(394,716,q),
(318,716,l),
(296,664,o),
(253,560,o),
(230,507,q),
(316,507,l)
);
},
{
closed = 1;
nodes = (
(460,-151,o),
(518,-59,o),
(518,-3,qs),
(518,414,l),
(433,414,l),
(425,356,l),
(403,389,o),
(315,431,o),
(261,431,qs),
(203,431,o),
(105,374,o),
(45,274,o),
(45,209,qs),
(45,147,o),
(102,48,o),
(197,-10,o),
(255,-10,qs),
(315,-10,o),
(403,38,o),
(424,75,q),
(424,-1,ls),
(423,-56,o),
(349,-123,o),
(279,-123,qs),
(236,-123,o),
(168,-90,o),
(136,-58,q),
(81,-122,l),
(120,-158,o),
(212,-205,o),
(281,-205,qs),
(354,-205,o)
);
},
{
closed = 1;
nodes = (
(176,318,o),
(241,354,o),
(282,354,qs),
(333,354,o),
(411,298,o),
(424,254,q),
(424,172,l),
(413,126,o),
(336,67,o),
(282,67,qs),
(242,67,o),
(177,106,o),
(139,171,o),
(139,212,qs),
(139,254,o)
);
}
);
width = 568;
}
);
note = uni0123;
unicode = 291;
},
{
glyphname = Hbar;
kernRight = Hbar;
layers = (
{
layerId = m01;
shapes = (
{
closed = 1;
nodes = (
(180,497,l),
(180,0,l),
(277,0,l),
(277,317,l),
(656,317,l),
(656,0,l),
(753,0,l),
(753,497,l),
(840,497,l),
(840,569,l),
(753,569,l),
(753,723,l),
(656,723,l),
(656,569,l),
(277,569,l),
(277,723,l),
(180,723,l),
(180,569,l),
(104,569,l),
(104,497,l)
);
},
{
closed = 1;
nodes = (
(656,497,l),
(656,410,l),
(277,410,l),
(277,497,l)
);
}
);
width = 944;
}
);
note = Hbar;
unicode = 294;
},
{
glyphname = Iogonek;
layers = (
{
layerId = m01;
shapes = (
{
closed = 1;
nodes = (
(226,-177,o),
(244,-148,q),
(208,-100,l),
(194,-123,o),
(160,-148,o),
(141,-148,qs),
(122,-148,o),
(92,-125,o),
(92,-99,qs),
(92,-68,o),
(149,-22,o),
(197,0,q),
(201,0,l),
(201,723,l),
(104,723,l),
(104,5,l),
(64,-13,o),
(14,-77,o),
(14,-112,qs),
(14,-162,o),
(83,-215,o),
(132,-215,qs),
(163,-215,o)
);
}
);
width = 274;
}
);
note = Iogonek;
unicode = 302;
},
{
glyphname = iogonek;
layers = (
{
layerId = m01;
shapes = (
{
closed = 1;
nodes = (
(108,498,o),
(129,498,qs),
(149,498,o),
(183,527,o),
(183,550,qs),
(183,573,o),
(149,602,o),
(129,602,qs),
(108,602,o),
(73,573,o),
(73,550,qs),
(73,527,o)
);
},
{
closed = 1;
nodes = (
(210,-177,o),
(228,-148,q),
(192,-100,l),
(178,-123,o),
(144,-148,o),
(124,-148,qs),
(106,-148,o),
(76,-125,o),
(76,-99,qs),
(76,-67,o),
(129,-22,o),
(176,0,q),
(174,1,l),
(174,414,l),
(81,414,l),
(81,7,l),
(43,-11,o),
(-2,-73,o),
(-2,-106,qs),
(-2,-155,o),
(67,-215,o),
(116,-215,qs),
(147,-215,o)
);
}
);
width = 259;
}
);
note = iogonek;
unicode = 303;
},
{
glyphname = dotlessi;
layers = (
{
layerId = m01;
shapes = (
{
closed = 1;
nodes = (
(174,0,l),
(174,414,l),
(81,414,l),
(81,0,l)
);
}
);
width = 255;
}
);
note = dotlessi;
unicode = 305;
},
{
glyphname = kgreenlandic;
layers = (
{
layerId = m01;
shapes = (
{
closed = 1;
nodes = (
(214,172,l),
(353,0,l),
(463,0,l),
(273,229,l),
(462,414,l),
(349,414,l),
(174,232,l),
(174,414,l),
(81,414,l),
(81,0,l),
(174,0,l),
(174,133,l)
);
}
);
width = 507;
}
);
note = kgreenlandic;
unicode = 312;
},
{
glyphname = Lslash;
layers = (
{
layerId = m01;
shapes = (
{
closed = 1;
nodes = (
(201,723,l),
(104,723,l),
(104,370,l),
(16,341,l),
(35,264,l),
(104,287,l),
(104,0,l),
(569,0,l),
(569,94,l),
(201,94,l),
(201,319,l),
(407,386,l),
(388,463,l),
(201,401,l)
);
}
);
width = 615;
}
);
note = Lslash;
unicode = 321;
},
{
glyphname = lslash;
layers = (
{
layerId = m01;
shapes = (
{
closed = 1;
nodes = (
(181,775,l),
(87,775,l),
(87,344,l),
(20,327,l),
(20,245,l),
(87,263,l),
(87,0,l),
(181,0,l),
(181,288,l),
(256,308,l),
(256,390,l),
(181,369,l)
);
}
);
width = 267;
}
);
note = lslash;
unicode = 322;
},
{
glyphname = Eng;
layers = (
{
layerId = m01;
shapes = (
{
closed = 1;
nodes = (
(93,745,l),
(89,745,l),
(89,0,l),
(186,0,l),
(184,517,l),
(625,68,l),
(625,1,ls),
(625,-47,o),
(593,-117,o),
(565,-141,q),
(620,-199,l),
(718,-137,o),
(718,-2,qs),
(718,723,l),
(621,723,l),
(623,198,l)
);
}
);
width = 806;
}
);
note = Eng;
unicode = 330;
},
{
glyphname = eng;
layers = (
{
layerId = m01;
shapes = (
{
closed = 1;
nodes = (
(471,361,o),
(396,430,o),
(338,430,qs),
(278,430,o),
(192,375,o),
(172,329,q),
(165,414,l),
(81,414,l),
(81,0,l),
(174,0,l),
(174,194,ls),
(174,263,o),
(247,350,o),
(301,350,qs),
(340,349,o),
(377,307,o),
(379,274,q),
(379,1,ls),
(379,-47,o),
(347,-117,o),
(320,-141,q),
(375,-199,l),
(424,-168,o),
(473,-65,o),
(473,2,qs),
(473,306,ls)
);
}
);
width = 553;
}
);
note = eng;
unicode = 331;
},
{
glyphname = OE;
kernLeft = C;
layers = (
{
layerId = m01;
shapes = (
{
closed = 1;
nodes = (
(588,93,l),
(588,317,l),
(888,317,l),
(888,409,l),
(588,409,l),
(588,633,l),
(928,633,l),
(928,723,l),
(508,723,l),
(490,727,o),
(454,731,o),
(435,731,qs),
(359,731,o),
(225,672,o),
(124,570,o),
(67,436,o),
(67,361,qs),
(67,284,o),
(124,151,o),
(225,49,o),
(359,-8,o),
(435,-8,qs),
(473,-8,o),
(511,0,q),
(942,0,l),
(942,93,l)
);
},
{
closed = 1;
nodes = (
(208,516,o),
(282,592,o),
(380,635,o),
(436,635,qs),
(462,635,o),
(488,630,q),
(488,91,l),
(463,86,o),
(439,86,qs),
(382,86,o),
(283,129,o),
(209,204,o),
(167,303,o),
(167,360,qs),
(167,417,o)
);
}
);
width = 1016;
}
);
note = OE;
unicode = 338;
},
{
glyphname = Uogonek;
kernLeft = U;
kernRight = U;
layers = (
{
layerId = m01;
shapes = (
{
closed = 1;
nodes = (
(563,-177,o),
(581,-148,q),
(545,-100,l),
(531,-123,o),
(497,-148,o),
(477,-148,qs),
(459,-148,o),
(429,-125,o),
(429,-99,qs),
(429,-62,o),
(478,-2,o),
(516,27,qs),
(546,50,o),
(602,110,o),
(637,192,o),
(637,248,qs),
(637,723,l),
(542,723,l),
(542,256,ls),
(542,208,o),
(495,131,o),
(416,86,o),
(365,86,qs),
(317,86,o),
(238,131,o),
(192,208,o),
(192,256,qs),
(192,723,l),
(95,723,l),
(95,253,ls),
(95,175,o),
(162,57,o),
(284,-8,o),
(365,-8,qs),
(384,-8,o),
(403,-6,q),
(378,-26,o),
(351,-79,o),
(351,-106,qs),
(351,-155,o),
(420,-215,o),
(469,-215,qs),
(500,-215,o)
);
}
);
width = 732;
}
);
note = Uogonek;
unicode = 370;
},
{
glyphname = uogonek;
layers = (
{
layerId = m01;
shapes = (
{
closed = 1;
nodes = (
(355,37,o),
(375,78,q),
(381,8,l),
(344,-8,o),
(298,-72,o),
(298,-106,qs),
(298,-155,o),
(366,-215,o),
(415,-215,qs),
(446,-215,o),
(510,-177,o),
(528,-148,q),
(492,-100,l),
(477,-123,o),
(444,-148,o),
(424,-148,qs),
(405,-148,o),
(376,-125,o),
(376,-99,qs),
(376,-68,o),
(426,-21,o),
(468,0,q),
(466,1,l),
(466,414,l),
(373,414,l),
(373,221,ls),
(373,176,o),
(340,105,o),
(284,64,o),
(250,64,qs),
(212,65,o),
(176,107,o),
(174,141,q),
(174,414,l),
(81,414,l),
(81,108,ls),
(82,53,o),
(156,-16,o),
(213,-16,qs),
(268,-16,o)
);
}
);
width = 551;
}
);
note = uogonek;
unicode = 371;
},
{
glyphname = uni018F;
layers = (
{
layerId = m01;
shapes = (
{
closed = 1;
nodes = (
(236,702,o),
(148,654,o),
(119,625,q),
(168,547,l),
(191,572,o),
(258,612,o),
(336,636,o),
(374,636,qs),
(448,636,o),
(573,554,o),
(606,488,q),
(48,289,l),
(78,154,o),
(246,-3,o),
(374,-3,qs),
(448,-3,o),
(579,54,o),
(679,155,o),
(736,292,o),
(736,371,qs),
(736,447,o),
(684,578,o),
(589,676,o),
(457,731,o),
(376,731,qs),
(333,731,o)
);
},
{
closed = 1;
nodes = (
(594,204,o),
(524,127,o),
(432,84,o),
(381,84,qs),
(303,84,o),
(195,174,o),
(168,246,q),
(629,416,l),
(633,391,o),
(634,366,qs),
(634,307,o)
);
}
);
width = 795;
}
);
note = uni018F;
unicode = 399;
},
{
glyphname = florin;
layers = (
{
layerId = m01;
shapes = (
{
closed = 1;
nodes = (
(26,415,l),
(26,324,l),
(97,324,l),
(97,93,ls),
(97,17,o),
(21,-71,o),
(-55,-75,q),
(-55,-167,l),
(67,-164,o),
(194,-38,o),
(194,92,qs),
(194,324,l),
(325,324,l),
(325,415,l),
(194,415,l),
(194,515,ls),
(194,590,o),
(269,678,o),
(345,681,q),
(345,775,l),
(273,772,o),
(161,715,o),
(97,602,o),
(97,516,qs),
(97,415,l)
);
}
);
width = 335;
}
);
note = florin;
unicode = 402;
},
{
glyphname = uni019D;
layers = (
{
layerId = m01;
shapes = (
{
closed = 1;
nodes = (
(184,517,l),
(715,-23,l),
(718,-2,l),
(718,723,l),
(621,723,l),
(623,200,l),
(93,745,l),
(89,745,l),
(89,1,ls),
(89,-47,o),
(57,-117,o),
(28,-141,q),
(89,-199,l),
(138,-168,o),
(186,-69,o),
(186,-2,qs),
(186,42,l),
(185,42,l)
);
}
);
width = 822;
}
);
note = uni019D;
unicode = 413;
},
{
glyphname = uni01EA;
kernLeft = C;
layers = (
{
layerId = m01;
shapes = (
{
closed = 1;
nodes = (
(486,-3,q),
(453,-21,o),
(411,-77,o),
(411,-113,qs),
(411,-162,o),
(479,-215,o),
(528,-215,qs),
(559,-215,o),
(622,-177,o),
(640,-148,q),
(605,-100,l),
(590,-123,o),
(557,-148,o),
(537,-148,qs),
(518,-148,o),
(489,-125,o),
(489,-97,qs),
(489,-64,o),
(539,-17,o),
(616,31,o),
(657,65,qs),
(693,94,o),
(758,175,o),
(798,287,o),
(798,361,qs),
(798,436,o),
(740,570,o),
(638,672,o),
(503,731,o),
(427,731,qs),
(351,731,o),
(218,672,o),
(116,570,o),
(59,436,o),
(59,361,qs),
(59,283,o),
(116,149,o),
(218,48,o),
(351,-8,o),
(427,-8,qs),
(457,-8,o)
);
},
{
closed = 1;
nodes = (
(275,129,o),
(201,204,o),
(159,303,o),
(159,360,qs),
(159,416,o),
(200,515,o),
(273,592,o),
(371,635,o),
(428,635,qs),
(484,635,o),
(582,592,o),
(656,517,o),
(698,417,o),
(698,361,qs),
(698,284,o),
(627,160,o),
(505,86,o),
(431,86,qs),
(374,86,o)
);
}
);
width = 857;
}
);
note = uni01EA;
unicode = 490;
},
{
glyphname = uni01EB;
kernLeft = a;
kernRight = o;
layers = (
{
layerId = m01;
shapes = (
{
closed = 1;
nodes = (
(449,-177,o),
(467,-148,q),
(431,-100,l),
(417,-123,o),
(383,-148,o),
(363,-148,qs),
(345,-148,o),
(315,-120,o),
(315,-94,qs),
(315,-58,o),
(364,-7,o),
(401,21,qs),
(447,55,o),
(503,153,o),
(503,211,qs),
(503,273,o),
(446,373,o),
(344,431,o),
(277,431,qs),
(210,431,o),
(106,372,o),
(47,273,o),
(47,211,qs),
(47,144,o),
(106,44,o),
(209,-10,o),
(275,-10,qs),
(278,-10,l),
(259,-28,o),
(237,-74,o),
(237,-101,qs),
(237,-156,o),
(305,-215,o),
(350,-215,qs),
(384,-215,o)
);
},
{
closed = 1;
nodes = (
(176,105,o),
(141,170,o),
(141,210,qs),
(141,249,o),
(175,314,o),
(236,354,o),
(274,354,qs),
(313,354,o),
(373,315,o),
(408,250,o),
(408,210,qs),
(408,170,o),
(373,105,o),
(313,67,o),
(274,67,qs),
(236,67,o)
);
}
);
width = 549;
}
);
note = uni01EB;
unicode = 491;
},
{
glyphname = uni0237;
layers = (
{
layerId = m01;
shapes = (
{
closed = 1;
nodes = (
(185,-73,o),
(185,-2,qs),
(185,414,l),
(91,414,l),
(91,1,ls),
(91,-47,o),
(59,-117,o),
(31,-141,q),
(87,-199,l),
(138,-170,o)
);
}
);
width = 260;
}
);
note = uni0237;
unicode = 567;
},
{
glyphname = uni0259;
kernRight = o;
layers = (
{
layerId = m01;
shapes = (
{
closed = 1;
nodes = (
(133,398,o),
(102,377,q),
(145,308,l),
(167,325,o),
(217,344,o),
(245,344,qs),
(284,344,o),
(346,309,o),
(363,278,q),
(36,163,l),
(55,79,o),
(163,-17,o),
(245,-17,qs),
(309,-17,o),
(414,42,o),
(476,143,o),
(476,204,qs),
(476,268,o),
(420,367,o),
(318,424,o),
(247,424,qs),
(210,424,o)
);
},
{
closed = 1;
nodes = (
(309,58,o),
(252,58,qs),
(208,58,o),
(155,103,o),
(141,133,q),
(382,222,l),
(383,211,o),
(384,199,qs),
(384,137,o)
);
}
);
width = 520;
}
);
note = uni0259;
unicode = 601;
},
{
glyphname = uni0272;
layers = (
{
layerId = m01;
shapes = (
{
closed = 1;
nodes = (
(176,-71,o),
(176,-2,qs),
(176,45,l),
(174,45,l),
(174,194,ls),
(174,263,o),
(247,350,o),
(301,350,qs),
(340,349,o),
(377,307,o),
(379,274,q),
(379,0,l),
(473,0,l),
(473,306,ls),
(471,361,o),
(396,430,o),
(338,430,qs),
(280,430,o),
(192,378,o),
(171,334,q),
(165,414,l),
(81,414,l),
(81,0,l),
(82,0,l),
(82,-47,o),
(51,-117,o),
(23,-141,q),
(78,-199,l),
(122,-168,o)
);
}
);
width = 553;
}
);
note = uni0272;
unicode = 626;
},
{
glyphname = circumflex;
layers = (
{
layerId = m01;
shapes = (
{
closed = 1;
nodes = (
(210,668,l),
(209,668,l),
(44,497,l),
(131,497,l),
(209,583,l),
(291,497,l),
(378,497,l)
);
}
);
width = 422;
}
);
note = circumflex;
unicode = 710;
},
{
glyphname = caron;
layers = (
{
layerId = m01;
shapes = (
{
closed = 1;
nodes = (
(211,486,l),
(212,486,l),
(377,657,l),
(291,657,l),
(212,570,l),
(130,657,l),
(43,657,l)
);
}
);
width = 420;
}
);
note = caron;
unicode = 711;
},
{
glyphname = breve;
layers = (
{
layerId = m01;
shapes = (
{
closed = 1;
nodes = (
(341,571,o),
(352,657,q),
(288,657,l),
(282,609,o),
(241,545,o),
(202,545,qs),
(163,545,o),
(120,609,o),
(114,657,q),
(50,657,l),
(61,573,o),
(138,481,o),
(202,481,qs),
(264,481,o)
);
}
);
width = 402;
}
);
note = breve;
unicode = 728;
},
{
glyphname = dotaccent;
layers = (
{
layerId = m01;
shapes = (
{
closed = 1;
nodes = (
(87,519,o),
(108,519,qs),
(129,519,o),
(163,548,o),
(163,571,qs),
(163,594,o),
(129,623,o),
(108,623,qs),
(87,623,o),
(52,594,o),
(52,571,qs),
(52,548,o)
);
}
);
width = 219;
}
);
note = dotaccent;
unicode = 729;
},
{
glyphname = ring;
layers = (
{
layerId = m01;
shapes = (
{
closed = 1;
nodes = (
(130,441,o),
(170,441,qs),
(210,441,o),
(264,491,o),
(264,531,qs),
(264,571,o),
(210,620,o),
(170,620,qs),
(130,620,o),
(77,571,o),
(77,531,qs),
(77,490,o)
);
},
{
closed = 1;
nodes = (
(152,574,o),
(170,574,qs),
(189,574,o),
(213,550,o),
(213,529,qs),
(213,510,o),
(189,485,o),
(170,485,qs),
(152,485,o),
(128,510,o),
(128,529,qs),
(128,550,o)
);
}
);
width = 339;
}
);
note = ring;
unicode = 730;
},
{
glyphname = ogonek;
layers = (
{
layerId = m01;
shapes = (
{
closed = 1;
nodes = (
(271,-177,o),
(289,-148,q),
(253,-100,l),
(238,-123,o),
(205,-148,o),
(185,-148,qs),
(166,-148,o),
(137,-125,o),
(137,-99,qs),
(137,-70,o),
(199,-23,o),
(251,0,q),
(148,10,l),
(108,-7,o),
(59,-71,o),
(59,-106,qs),
(59,-155,o),
(127,-215,o),
(176,-215,qs),
(207,-215,o)
);
}
);
width = 341;
}
);
note = ogonek;
unicode = 731;
},
{
glyphname = tildecomb;
layers = (
{
layerId = m01;
shapes = (
{
closed = 1;
nodes = (
(391,533,o),
(384,596,q),
(334,597,l),
(334,561,o),
(317,518,o),
(297,518,qs),
(282,518,o),
(256,539,o),
(243,552,qs),
(226,568,o),
(188,596,o),
(162,596,qs),
(116,596,o),
(63,517,o),
(66,459,q),
(117,458,l),
(116,493,o),
(138,534,o),
(158,534,qs),
(172,534,o),
(197,515,o),
(209,504,qs),
(226,488,o),
(267,459,o),
(300,459,qs),
(339,459,o)
);
}
);
width = 0;
}
);
note = tildecomb;
unicode = 771;
},
{
glyphname = hookabovecomb;
layers = (
{
layerId = m01;
shapes = (
{
closed = 1;
nodes = (
(206,575,o),
(251,622,o),
(251,656,qs),
(251,688,o),
(213,734,o),
(175,734,qs),
(147,734,o),
(98,704,o),
(81,672,q),
(117,649,l),
(126,664,o),
(147,680,o),
(163,680,qs),
(179,680,o),
(196,660,o),
(196,645,qs),
(196,626,o),
(171,600,o),
(151,585,q),
(175,555,l)
);
}
);
width = 0;
}
);
note = hookabovecomb;
unicode = 777;
},
{
glyphname = uni0311;
layers = (
{
layerId = m01;
shapes = (
{
closed = 1;
nodes = (
(61,586,o),
(50,500,q),
(114,500,l),
(120,548,o),
(161,612,o),
(200,612,qs),
(239,612,o),
(282,548,o),
(288,500,q),
(352,500,l),
(341,584,o),
(263,676,o),
(200,676,qs),
(137,676,o)
);
}
);
width = 0;
}
);
note = uni0311;
unicode = 785;
},
{
glyphname = uni0312;
layers = (
{
layerId = m01;
shapes = (
{
closed = 1;
nodes = (
(64,586,o),
(50,522,o),
(55,495,q),
(138,494,l),
(132,532,o),
(152,607,o),
(177,628,q),
(129,661,l),
(100,643,o)
);
}
);
width = 0;
}
);
note = uni0312;
unicode = 786;
},
{
glyphname = uni031B;
layers = (
{
layerId = m01;
shapes = (
{
closed = 1;
nodes = (
(111,666,o),
(179,690,o),
(224,756,o),
(231,816,q),
(161,816,l),
(155,766,o),
(111,723,o),
(69,723,q),
(69,666,l)
);
}
);
width = 0;
}
);
note = uni031B;
unicode = 795;
},
{
glyphname = dotbelowcomb;
layers = (
{
layerId = m01;
shapes = (
{
closed = 1;
nodes = (
(91,-149,o),
(109,-149,qs),
(127,-149,o),
(156,-124,o),
(156,-104,qs),
(156,-84,o),
(127,-59,o),
(109,-59,qs),
(91,-59,o),
(60,-84,o),
(60,-104,qs),
(60,-124,o)
);
}
);
width = 0;
}
);
note = dotbelowcomb;
unicode = 803;
},
{
glyphname = uni0326;
layers = (
{
layerId = m01;
shapes = (
{
closed = 1;
nodes = (
(165,-127,o),
(179,-63,o),
(175,-36,q),
(92,-35,l),
(98,-73,o),
(77,-148,o),
(53,-169,q),
(101,-202,l),
(130,-184,o)
);
}
);
width = 0;
}
);
note = uni0326;
unicode = 806;
},
{
glyphname = uni0335;
layers = (
{
layerId = m01;
shapes = (
{
closed = 1;
nodes = (
(326,278,l),
(326,366,l),
(47,366,l),
(47,278,l)
);
}
);
width = 0;
}
);
note = uni0335;
unicode = 821;
},
{
glyphname = Gamma;
layers = (
{
layerId = m01;
shapes = (
{
closed = 1;
nodes = (
(104,0,l),
(201,0,l),
(201,630,l),
(574,630,l),
(574,723,l),
(104,723,l)
);
}
);
width = 653;
}
);
note = Gamma;
unicode = 915;
},
{
glyphname = uni0394;
layers = (
{
layerId = m01;
shapes = (
{
closed = 1;
nodes = (
(367,753,l),
(32,0,l),
(707,0,l),
(372,753,l)
);
},
{
closed = 1;
nodes = (
(173,93,l),
(370,540,l),
(564,93,l)
);
}
);
width = 738;
}
);
note = uni0394;
unicode = 916;
},
{
glyphname = Theta;
layers = (
{
layerId = m01;
shapes = (
{
closed = 1;
nodes = (
(290,325,l),
(562,325,l),
(562,407,l),
(290,407,l)
);
},
{
closed = 1;
nodes = (
(59,259,o),
(158,90,o),
(328,-8,o),
(428,-8,qs),
(527,-8,o),
(698,91,o),
(798,261,o),
(798,361,qs),
(798,460,o),
(697,630,o),
(527,731,o),
(428,731,qs),
(328,731,o),
(159,630,o),
(59,460,o),
(59,361,qs)
);
},
{
closed = 1;
nodes = (
(159,435,o),
(230,563,o),
(354,638,o),
(428,638,qs),
(502,638,o),
(626,564,o),
(698,436,o),
(698,361,qs),
(698,286,o),
(627,159,o),
(504,86,o),
(430,86,qs),
(356,86,o),
(231,160,o),
(159,286,o),
(159,360,qs)
);
}
);
width = 857;
}
);
note = Theta;
unicode = 920;
},
{
glyphname = Lambda;
layers = (
{
layerId = m01;
shapes = (
{
closed = 1;
nodes = (
(128,0,l),
(347,538,l),
(558,0,l),
(670,0,l),
(354,753,l),
(348,753,l),
(32,0,l)
);
}
);
width = 701;
}
);
note = Lambda;
unicode = 923;
},
{
glyphname = Xi;
layers = (
{
layerId = m01;
shapes = (
{
closed = 1;
nodes = (
(477,410,l),
(201,410,l),
(201,317,l),
(477,317,l)
);
},
{
closed = 1;
nodes = (
(588,0,l),
(588,94,l),
(104,94,l),
(104,0,l)
);
},
{
closed = 1;
nodes = (
(574,723,l),
(104,723,l),
(104,630,l),
(574,630,l)
);
}
);
width = 653;
}
);
note = Xi;
unicode = 926;
},
{
glyphname = Pi;
layers = (
{
layerId = m01;
shapes = (
{
closed = 1;
nodes = (
(104,0,l),
(201,0,l),
(201,630,l),
(543,630,l),
(543,0,l),
(640,0,l),
(640,723,l),
(104,723,l)
);
}
);
width = 747;
}
);
note = Pi;
unicode = 928;
},
{
glyphname = Sigma;
layers = (
{
layerId = m01;
shapes = (
{
closed = 1;
nodes = (
(104,723,l),
(358,362,l),
(104,0,l),
(104,0,l),
(632,0,l),
(632,94,l),
(289,94,l),
(475,362,l),
(289,630,l),
(618,630,l),
(618,723,l),
(104,723,l)
);
}
);
width = 729;
}
);
note = Sigma;
unicode = 931;
},
{
glyphname = Phi;
layers = (
{
layerId = m01;
shapes = (
{
closed = 1;
nodes = (
(277,119,o),
(376,107,q),
(376,0,l),
(474,0,l),
(474,107,l),
(580,118,o),
(662,180,qs),
(764,256,o),
(764,360,qs),
(764,466,o),
(662,542,qs),
(580,604,o),
(474,615,q),
(474,723,l),
(376,723,l),
(376,615,l),
(277,604,o),
(194,543,qs),
(92,468,o),
(92,258,o),
(194,181,qs)
);
},
{
closed = 1;
nodes = (
(307,510,o),
(376,519,q),
(376,203,l),
(306,212,o),
(258,247,qs),
(194,294,o),
(194,428,o),
(258,475,qs)
);
},
{
closed = 1;
nodes = (
(596,475,qs),
(663,428,o),
(663,294,o),
(596,247,qs),
(545,211,o),
(474,203,q),
(474,519,l),
(545,510,o)
);
}
);
width = 857;
}
);
note = Phi;
unicode = 934;
},
{
glyphname = Psi;
layers = (
{
layerId = m01;
shapes = (
{
closed = 1;
nodes = (
(698,718,l),
(698,556,ls),
(698,476,o),
(662,419,qs),
(620,352,o),
(566,321,qs),
(526,298,o),
(478,289,q),
(478,710,l),
(381,710,l),
(381,289,l),
(334,298,o),
(294,322,qs),
(231,359,o),
(195,420,qs),
(160,479,o),
(160,555,qs),
(160,717,l),
(60,717,l),
(60,555,ls),
(60,441,o),
(108,371,qs),
(161,294,o),
(243,240,qs),
(293,206,o),
(381,194,q),
(381,0,l),
(478,0,l),
(478,194,l),
(552,204,o),
(612,241,qs),
(699,294,o),
(748,373,qs),
(798,454,o),
(798,556,qs),
(798,718,l)
);
}
);
width = 857;
}
);
note = Psi;
unicode = 936;
},
{
glyphname = uni03A9;
layers = (
{
layerId = m01;
shapes = (
{
closed = 1;
nodes = (
(748,176,qs),
(798,261,o),
(798,361,qs),
(798,460,o),
(697,630,o),
(527,731,o),
(428,731,qs),
(328,731,o),
(159,630,o),
(59,460,o),
(59,361,qs),
(59,250,o),
(108,174,qs),
(139,126,o),
(172,94,q),
(59,94,l),
(59,0,l),
(343,0,l),
(362,94,l),
(325,103,o),
(294,123,qs),
(229,164,o),
(195,223,qs),
(159,285,o),
(159,435,o),
(230,563,o),
(354,638,o),
(428,638,qs),
(502,638,o),
(626,564,o),
(698,436,o),
(698,361,qs),
(698,286,o),
(662,222,qs),
(625,156,o),
(566,122,qs),
(533,103,o),
(497,94,q),
(519,0,l),
(798,0,l),
(798,94,l),
(683,94,o),
(683,94,q),
(721,130,o)
);
}
);
width = 857;
}
);
note = uni03A9;
unicode = 937;
},
{
glyphname = alpha;
layers = (
{
layerId = m01;
shapes = (
{
closed = 1;
nodes = (
(241,67,o),
(177,106,o),
(139,172,o),
(139,212,qs),
(139,253,o),
(176,318,o),
(239,354,o),
(276,354,qs),
(325,354,o),
(401,299,o),
(413,255,q),
(413,173,l),
(403,124,o),
(330,67,o),
(279,67,qs)
);
},
{
closed = 1;
nodes = (
(560,0,q),
(560,74,l),
(506,94,o),
(506,214,qs),
(506,300,o),
(506,417,q),
(428,417,l),
(422,344,o),
(422,344,q),
(420,348,ls),
(401,385,o),
(350,408,qs),
(299,431,o),
(258,431,qs),
(199,431,o),
(102,376,o),
(45,275,o),
(45,139,o),
(100,41,o),
(195,-10,o),
(254,-10,qs),
(316,-10,o),
(356,9,qs),
(402,31,o),
(433,83,qs),
(439,93,l),
(471,0,o)
);
}
);
width = 587;
}
);
note = alpha;
unicode = 945;
},
{
glyphname = beta;
layers = (
{
layerId = m01;
shapes = (
{
closed = 1;
nodes = (
(175,544,o),
(229,639,o),
(288,639,qs),
(332,639,o),
(382,584,o),
(382,543,qs),
(382,508,o),
(314,463,o),
(278,463,q),
(278,374,l),
(284,374,ls),
(364,374,o),
(397,333,qs),
(431,290,o),
(431,218,qs),
(431,153,o),
(370,67,o),
(317,67,qs),
(269,67,o),
(228,93,qs),
(175,128,o),
(175,157,qs),
(175,457,ls)
);
},
{
closed = 1;
nodes = (
(178,54,o),
(210,29,qs),
(240,6,o),
(259,1,qs),
(309,-13,o),
(326,-13,qs),
(414,-13,o),
(525,108,o),
(525,213,qs),
(525,298,o),
(459,403,o),
(402,427,q),
(438,445,o),
(476,519,o),
(476,567,qs),
(476,608,o),
(432,677,o),
(346,722,o),
(286,722,qs),
(228,722,o),
(135,664,o),
(81,559,o),
(81,489,qs),
(81,-199,l),
(175,-199,l),
(175,65,l)
);
}
);
width = 569;
}
);
note = beta;
unicode = 946;
},
{
glyphname = gamma;
layers = (
{
layerId = m01;
shapes = (
{
closed = 1;
nodes = (
(258,119,l),
(124,414,l),
(19,414,l),
(211,14,l),
(211,-199,l),
(300,-199,l),
(300,14,l),
(475,414,l),
(389,414,l)
);
}
);
width = 494;
}
);
note = gamma;
unicode = 947;
},
{
glyphname = delta;
layers = (
{
layerId = m01;
shapes = (
{
closed = 1;
nodes = (
(274,429,l),
(263,431,o),
(222,431,o),
(148,405,o),
(116,373,qs),
(45,302,o),
(45,213,qs),
(45,128,o),
(112,61,qs),
(183,-10,o),
(268,-10,qs),
(297,-10,o),
(331,1,qs),
(393,21,o),
(481,108,o),
(510,181,o),
(510,237,qs),
(510,325,o),
(446,389,qs),
(205,630,l),
(510,630,l),
(510,722,l),
(76,722,l),
(76,630,l)
);
},
{
closed = 1;
nodes = (
(353,350,q),
(402,301,l),
(424,265,o),
(424,226,qs),
(424,169,o),
(378,123,qs),
(339,84,o),
(282,84,qs),
(224,84,o),
(179,129,qs),
(138,170,o),
(138,228,qs),
(138,288,o),
(223,374,o),
(280,374,qs),
(320,374,o)
);
}
);
width = 554;
}
);
note = delta;
unicode = 948;
},
{
glyphname = epsilon;
layers = (
{
layerId = m01;
shapes = (
{
closed = 1;
nodes = (
(44,117,qs),
(44,76,o),
(80,46,qs),
(151,-13,o),
(275,-13,qs),
(323,-13,o),
(363,-7,qs),
(436,4,l),
(410,86,l),
(361,74,ls),
(332,67,o),
(268,67,qs),
(195,67,o),
(156,96,qs),
(141,106,o),
(141,144,o),
(152,152,qs),
(175,169,o),
(219,169,qs),
(353,169,l),
(353,247,l),
(219,247,ls),
(180,247,o),
(157,264,qs),
(140,277,o),
(140,292,qs),
(140,312,o),
(156,320,qs),
(216,350,o),
(262,350,qs),
(332,349,o),
(361,342,qs),
(410,330,l),
(436,412,l),
(363,423,ls),
(323,429,o),
(267,429,qs),
(147,429,o),
(80,370,qs),
(44,338,o),
(44,299,qs),
(44,265,o),
(96,208,q),
(44,151,o)
);
}
);
width = 471;
}
);
note = epsilon;
unicode = 949;
},
{
glyphname = zeta;
layers = (
{
layerId = m01;
shapes = (
{
closed = 1;
nodes = (
(407,-76,o),
(407,-32,qs),
(407,5,o),
(380,32,qs),
(338,74,o),
(281,83,qs),
(210,94,o),
(182,123,qs),
(125,182,o),
(136,226,qs),
(142,250,o),
(180,323,qs),
(388,723,l),
(388,723,l),
(45,722,l),
(45,630,l),
(244,630,l),
(114,389,ls),
(50,270,o),
(50,237,qs),
(50,181,o),
(79,108,o),
(167,21,o),
(229,1,qs),
(243,-3,o),
(282,-10,qs),
(311,-15,o),
(311,-92,o),
(277,-174,q),
(367,-199,l)
);
}
);
width = 451;
}
);
note = zeta;
unicode = 950;
},
{
glyphname = eta;
lastChange = "2021-08-19 21:01:03 +0000";
layers = (
{
layerId = m01;
shapes = (
{
closed = 1;
nodes = (
(281,430,o),
(193,379,o),
(171,334,q),
(165,414,l),
(81,414,l),
(81,0,l),
(174,0,l),
(174,194,ls),
(174,262,o),
(246,350,o),
(301,350,qs),
(339,349,o),
(377,309,o),
(379,274,q),
(379,-199,l),
(473,-199,l),
(473,306,ls),
(473,361,o),
(396,430,o),
(338,430,qs)
);
}
);
width = 553;
}
);
note = eta;
unicode = 951;
},
{
glyphname = theta;
layers = (
{
layerId = m01;
shapes = (
{
closed = 1;
nodes = (
(371,36,qs),
(421,75,o),
(450,152,qs),
(481,237,o),
(481,332,qs),
(481,421,o),
(450,509,qs),
(423,584,o),
(372,625,qs),
(322,665,o),
(257,665,qs),
(154,665,o),
(95,580,qs),
(32,491,o),
(32,333,qs),
(32,239,o),
(64,152,qs),
(91,79,o),
(192,-3,o),
(320,-3,o)
);
},
{
closed = 1;
nodes = (
(367,156,qs),
(331,90,o),
(181,90,o),
(146,156,qs),
(121,201,o),
(115,289,q),
(399,289,l),
(391,201,o)
);
},
{
closed = 1;
nodes = (
(120,461,o),
(146,507,qs),
(182,572,o),
(331,572,o),
(367,508,qs),
(394,462,o),
(399,365,q),
(115,365,l)
);
}
);
width = 514;
}
);
note = theta;
unicode = 952;
},
{
glyphname = iota;
layers = (
{
layerId = m01;
shapes = (
{
closed = 1;
nodes = (
(175,166,qs),
(174,414,l),
(81,414,l),
(81,166,ls),
(81,0,o),
(265,0,q),
(265,75,l),
(175,75,o)
);
}
);
width = 299;
}
);
note = iota;
unicode = 953;
},
{
glyphname = kappa;
layers = (
{
layerId = m01;
shapes = (
{
closed = 1;
nodes = (
(81,414,l),
(81,0,l),
(175,0,l),
(174,155,l),
(228,199,l),
(356,0,l),
(465,0,l),
(292,251,l),
(445,374,l),
(388,424,l),
(174,252,l),
(175,414,l)
);
}
);
width = 499;
}
);
note = kappa;
unicode = 954;
},
{
glyphname = lambda;
layers = (
{
layerId = m01;
shapes = (
{
closed = 1;
nodes = (
(34,0,l),
(126,0,l),
(276,310,l),
(334,162,ls),
(397,0,o),
(546,-1,q),
(546,91,o),
(546,91,q),
(472,91,o),
(443,164,qs),
(270,597,ls),
(205,759,o),
(49,760,q),
(49,668,l),
(137,668,o),
(165,595,qs),
(235,411,l)
);
}
);
width = 591;
}
);
note = lambda;
unicode = 955;
},
{
glyphname = uni03BC;
layers = (
{
layerId = m01;
shapes = (
{
closed = 1;
nodes = (
(373,221,ls),
(373,177,o),
(340,105,o),
(284,64,o),
(250,64,qs),
(213,65,o),
(176,106,o),
(174,141,q),
(174,414,l),
(81,414,l),
(81,-199,l),
(166,-199,l),
(166,-9,l),
(191,-16,o),
(213,-16,qs),
(267,-16,o),
(355,37,o),
(376,79,q),
(382,0,l),
(466,0,l),
(466,414,l),
(373,414,l)
);
}
);
width = 547;
}
);
note = uni03BC;
unicode = 956;
},
{
glyphname = nu;
layers = (
{
layerId = m01;
shapes = (
{
closed = 1;
nodes = (
(473,414,q),
(386,414,l),
(346,208,o),
(257,84,q),
(174,414,l),
(81,414,l),
(182,0,l),
(274,0,o),
(274,0,q),
(458,184,o)
);
}
);
width = 546;
}
);
note = nu;
unicode = 957;
},
{
glyphname = xi;
layers = (
{
layerId = m01;
shapes = (
{
closed = 1;
nodes = (
(79,108,o),
(123,64,qs),
(170,18,o),
(229,1,qs),
(243,-3,o),
(282,-10,qs),
(311,-15,o),
(311,-92,o),
(277,-174,q),
(367,-199,l),
(407,-76,o),
(407,-32,qs),
(407,5,o),
(380,32,qs),
(338,74,o),
(281,83,qs),
(210,94,o),
(182,123,qs),
(136,169,o),
(136,226,qs),
(136,301,o),
(178,348,qs),
(211,386,o),
(301,386,qs),
(307,386,l),
(307,469,l),
(271,469,o),
(193,510,o),
(193,543,qs),
(193,581,o),
(243,630,o),
(287,630,qs),
(388,630,l),
(388,723,l),
(45,722,l),
(45,630,l),
(118,630,l),
(99,602,o),
(99,565,qs),
(99,521,o),
(137,452,o),
(173,435,q),
(116,413,o),
(50,316,o),
(50,237,qs),
(50,181,o)
);
}
);
width = 451;
}
);
note = xi;
unicode = 958;
},
{
glyphname = pi;
layers = (
{
layerId = m01;
shapes = (
{
closed = 1;
nodes = (
(40,332,l),
(105,332,l),
(105,0,l),
(189,0,l),
(189,332,l),
(331,332,l),
(331,132,ls),
(331,0,o),
(473,0,q),
(473,75,l),
(416,75,o),
(416,132,qs),
(415,332,l),
(478,332,l),
(478,414,l),
(40,414,l)
);
}
);
width = 542;
}
);
note = pi;
unicode = 960;
},
{
glyphname = rho;
layers = (
{
layerId = m01;
shapes = (
{
closed = 1;
nodes = (
(81,-199,q),
(174,-199,l),
(174,-73,o),
(174,62,q),
(199,29,o),
(281,-10,o),
(326,-10,qs),
(389,-10,o),
(491,44,o),
(549,143,o),
(549,208,qs),
(549,274,o),
(495,375,o),
(379,435,o),
(321,435,qs),
(255,435,o),
(225,422,qs),
(197,410,o),
(155,375,qs),
(120,345,o),
(98,298,qs),
(81,261,o),
(81,212,qs),
(81,-73,o)
);
},
{
closed = 1;
nodes = (
(257,65,o),
(182,126,o),
(174,174,q),
(174,243,l),
(186,293,o),
(261,352,o),
(314,352,qs),
(353,352,o),
(417,314,o),
(454,248,o),
(454,207,qs),
(454,167,o),
(414,102,o),
(347,65,o),
(308,65,qs)
);
}
);
width = 593;
}
);
note = rho;
unicode = 961;
},
{
glyphname = sigma1;
layers = (
{
layerId = m01;
shapes = (
{
closed = 1;
nodes = (
(79,108,o),
(167,21,o),
(229,1,qs),
(243,-3,o),
(282,-10,qs),
(311,-15,o),
(311,-92,o),
(277,-174,q),
(367,-199,l),
(407,-76,o),
(407,-32,qs),
(407,5,o),
(380,32,qs),
(338,74,o),
(281,83,qs),
(210,94,o),
(182,123,qs),
(136,169,o),
(136,226,qs),
(136,265,o),
(171,329,o),
(232,366,o),
(269,366,qs),
(299,366,o),
(351,345,o),
(371,330,q),
(418,391,l),
(356,443,o),
(261,443,qs),
(203,443,o),
(103,389,o),
(50,301,o),
(50,237,qs),
(50,181,o)
);
}
);
width = 456;
}
);
note = sigma1;
unicode = 962;
},
{
glyphname = sigma;
layers = (
{
layerId = m01;
shapes = (
{
closed = 1;
nodes = (
(45,145,o),
(104,45,o),
(208,-10,o),
(273,-10,qs),
(340,-10,o),
(444,48,o),
(501,143,o),
(501,209,qs),
(501,290,o),
(452,354,q),
(452,354,o),
(452,354,q),
(615,354,l),
(615,432,l),
(275,431,ls),
(209,431,o),
(156,402,qs),
(104,373,o),
(45,272,o),
(45,211,qs)
);
},
{
closed = 1;
nodes = (
(174,315,o),
(234,354,o),
(272,354,qs),
(330,354,o),
(406,271,o),
(406,149,o),
(330,67,o),
(272,67,qs),
(235,67,o),
(174,105,o),
(139,171,o),
(139,249,o)
);
}
);
width = 660;
}
);
note = sigma;
unicode = 963;
},
{
glyphname = tau;
layers = (
{
layerId = m01;
shapes = (
{
closed = 1;
nodes = (
(429,414,l),
(45,414,l),
(45,332,l),
(186,332,l),
(186,166,o),
(186,166,q),
(186,0,o),
(370,0,q),
(370,75,l),
(280,75,o),
(280,166,qs),
(280,332,l),
(429,332,l)
);
}
);
width = 475;
}
);
note = tau;
unicode = 964;
},
{
glyphname = upsilon;
layers = (
{
layerId = m01;
shapes = (
{
closed = 1;
nodes = (
(410,29,qs),
(457,74,o),
(457,147,qs),
(457,414,l),
(364,414,l),
(364,180,ls),
(364,120,o),
(341,92,qs),
(317,64,o),
(270,64,qs),
(220,64,o),
(197,92,qs),
(174,120,o),
(174,180,qs),
(174,414,l),
(81,414,l),
(81,147,ls),
(81,77,o),
(129,29,qs),
(176,-19,o),
(268,-20,qs),
(360,-19,o)
);
}
);
width = 537;
}
);
note = upsilon;
unicode = 965;
},
{
glyphname = phi;
layers = (
{
layerId = m01;
shapes = (
{
closed = 1;
nodes = (
(85,397,o),
(57,335,qs),
(41,302,o),
(41,244,qs),
(41,153,o),
(73,98,qs),
(99,55,o),
(154,20,qs),
(184,1,o),
(257,-6,q),
(256,-199,l),
(349,-199,l),
(350,-6,l),
(425,1,o),
(455,20,qs),
(510,55,o),
(536,98,qs),
(568,151,o),
(568,224,qs),
(568,300,o),
(531,355,qs),
(479,431,o),
(382,431,qs),
(259,430,o),
(258,233,qs),
(257,77,l),
(257,77,l),
(126,87,o),
(126,216,qs),
(126,312,o),
(184,360,q),
(133,431,l)
);
},
{
closed = 1;
nodes = (
(351,344,o),
(406,344,qs),
(475,344,o),
(475,98,o),
(350,77,q),
(350,77,l),
(351,257,ls)
);
}
);
width = 619;
}
);
note = phi;
unicode = 966;
},
{
glyphname = chi;
layers = (
{
layerId = m01;
shapes = (
{
closed = 1;
nodes = (
(448,422,l),
(302,185,l),
(266,259,ls),
(186,421,o),
(49,422,q),
(49,330,l),
(129,330,o),
(169,257,qs),
(251,106,l),
(54,-199,l),
(148,-199,l),
(293,37,l),
(329,-36,ls),
(409,-199,o),
(546,-199,q),
(546,-107,l),
(464,-103,o),
(426,-34,qs),
(344,116,l),
(542,422,l)
);
}
);
width = 595;
}
);
note = chi;
unicode = 967;
},
{
glyphname = psi;
layers = (
{
layerId = m01;
shapes = (
{
closed = 1;
nodes = (
(564,50,qs),
(612,87,o),
(643,150,qs),
(677,220,o),
(679,336,qs),
(680,413,l),
(590,413,l),
(589,336,ls),
(589,298,o),
(573,219,qs),
(560,155,o),
(512,121,qs),
(462,86,o),
(409,86,q),
(409,413,l),
(316,413,l),
(316,86,l),
(262,86,o),
(213,121,qs),
(168,153,o),
(152,219,qs),
(137,285,o),
(136,336,qs),
(135,413,l),
(45,413,l),
(46,336,ls),
(48,220,o),
(82,150,qs),
(113,87,o),
(161,50,qs),
(233,-4,o),
(316,-4,q),
(317,-199,l),
(410,-199,l),
(409,-4,o),
(409,-4,q),
(494,-4,o)
);
}
);
width = 724;
}
);
note = psi;
unicode = 968;
},
{
glyphname = omega;
layers = (
{
layerId = m01;
shapes = (
{
closed = 1;
nodes = (
(295,159,ls),
(295,74,o),
(216,74,qs),
(130,74,o),
(130,238,qs),
(130,326,o),
(162,411,q),
(74,411,l),
(45,330,o),
(45,238,qs),
(45,120,o),
(86,56,qs),
(130,-13,o),
(214,-13,qs),
(217,-13,ls),
(303,-13,o),
(337,43,q),
(371,-13,o),
(457,-13,qs),
(460,-13,ls),
(544,-13,o),
(588,56,qs),
(629,120,o),
(629,238,qs),
(629,330,o),
(600,411,q),
(512,411,l),
(544,326,o),
(544,238,qs),
(544,74,o),
(458,74,qs),
(379,74,o),
(379,159,qs),
(379,315,l),
(295,315,l)
);
}
);
width = 673;
}
);
note = omega;
unicode = 969;
},
{
glyphname = uni0402;
layers = (
{
layerId = m01;
shapes = (
{
closed = 1;
nodes = (
(542,-109,o),
(506,-109,qs),
(495,-109,o),
(473,-102,o),
(464,-93,q),
(424,-161,l),
(444,-174,o),
(495,-186,o),
(515,-186,qs),
(594,-186,o),
(676,-90,o),
(676,0,qs),
(676,231,ls),
(676,563,o),
(255,406,q),
(255,643,l),
(480,643,l),
(480,723,l),
(45,723,l),
(45,643,l),
(158,643,l),
(158,0,l),
(255,0,l),
(255,319,l),
(578,437,o),
(579,231,qs),
(579,0,o),
(579,0,q),
(579,-60,o)
);
}
);
width = 780;
}
);
note = uni0402;
unicode = 1026;
},
{
glyphname = uni0404;
layers = (
{
layerId = m01;
shapes = (
{
closed = 1;
nodes = (
(452,404,l),
(147,404,l),
(155,451,o),
(178,492,qs),
(214,556,o),
(333,630,o),
(403,630,qs),
(487,630,o),
(570,574,q),
(609,665,l),
(567,691,o),
(461,723,o),
(400,723,qs),
(297,723,o),
(134,626,o),
(42,455,o),
(42,348,qs),
(42,248,o),
(133,82,o),
(302,-16,o),
(413,-16,qs),
(476,-16,o),
(583,23,o),
(618,46,q),
(577,133,l),
(505,78,o),
(408,78,qs),
(329,78,o),
(208,149,o),
(176,212,qs),
(154,254,o),
(147,302,q),
(452,302,l)
);
}
);
width = 694;
}
);
note = uni0404;
unicode = 1028;
},
{
glyphname = uni0409;
layers = (
{
layerId = m01;
shapes = (
{
closed = 1;
nodes = (
(975,226,qs),
(975,174,o),
(907,93,o),
(835,93,qs),
(723,93,l),
(723,363,l),
(830,363,ls),
(882,363,o),
(947,319,o),
(975,256,o)
);
},
{
closed = 1;
nodes = (
(399,625,q),
(625,625,l),
(625,0,l),
(723,0,l),
(820,0,ls),
(938,0,o),
(1071,118,o),
(1071,224,qs),
(1071,285,o),
(1022,391,o),
(913,457,o),
(830,457,qs),
(723,457,l),
(723,723,l),
(307,723,l),
(307,61,o),
(96,95,q),
(96,3,l),
(399,-57,o)
);
}
);
width = 1163;
}
);
note = uni0409;
unicode = 1033;
},
{
glyphname = uni040A;
layers = (
{
layerId = m01;
shapes = (
{
closed = 1;
nodes = (
(217,456,l),
(217,723,l),
(120,723,l),
(120,0,l),
(217,0,l),
(217,363,l),
(596,363,l),
(596,0,l),
(791,0,ls),
(909,0,o),
(1042,118,o),
(1042,224,qs),
(1042,285,o),
(993,391,o),
(884,457,o),
(801,457,qs),
(694,457,l),
(694,723,l),
(596,723,l),
(596,456,l)
);
},
{
closed = 1;
nodes = (
(946,226,qs),
(946,174,o),
(878,93,o),
(806,93,qs),
(694,93,l),
(694,363,l),
(801,363,ls),
(853,363,o),
(918,319,o),
(946,256,o)
);
}
);
width = 1120;
}
);
note = uni040A;
unicode = 1034;
},
{
glyphname = uni040B;
layers = (
{
layerId = m01;
shapes = (
{
closed = 1;
nodes = (
(480,723,l),
(45,723,l),
(45,643,l),
(158,643,l),
(158,0,l),
(255,0,l),
(255,319,o),
(255,319,q),
(578,437,o),
(579,231,qs),
(579,0,l),
(676,0,l),
(676,231,ls),
(676,563,o),
(255,406,q),
(255,643,l),
(480,643,l)
);
}
);
width = 780;
}
);
note = uni040B;
unicode = 1035;
},
{
glyphname = uni040F;
layers = (
{
layerId = m01;
shapes = (
{
closed = 1;
nodes = (
(426,-114,l),
(426,0,l),
(638,0,l),
(638,723,l),
(541,723,l),
(541,93,l),
(199,93,l),
(199,723,l),
(102,723,l),
(102,0,l),
(324,0,l),
(324,-114,l)
);
}
);
width = 745;
}
);
note = uni040F;
unicode = 1039;
},
{
glyphname = uni0411;
layers = (
{
layerId = m01;
shapes = (
{
closed = 1;
nodes = (
(533,285,o),
(484,391,o),
(375,457,o),
(292,457,qs),
(185,457,l),
(185,627,l),
(488,627,l),
(488,723,l),
(185,723,l),
(88,723,l),
(88,0,l),
(282,0,ls),
(400,0,o),
(533,118,o),
(533,224,qs)
);
},
{
closed = 1;
nodes = (
(437,226,qs),
(437,174,o),
(369,93,o),
(297,93,qs),
(185,93,l),
(185,363,l),
(292,363,ls),
(344,363,o),
(409,319,o),
(437,256,o)
);
}
);
width = 595;
}
);
note = uni0411;
unicode = 1041;
},
{
glyphname = uni0414;
layers = (
{
layerId = m01;
shapes = (
{
closed = 1;
nodes = (
(1037,-118,l),
(1037,93,l),
(861,93,l),
(861,723,l),
(417,723,l),
(412,723,l),
(412,723,l),
(412,93,o),
(233,93,qs),
(68,93,l),
(68,-122,l),
(172,-122,l),
(172,0,l),
(172,0,l),
(932,0,l),
(932,0,l),
(932,-118,l)
);
},
{
closed = 1;
nodes = (
(763,93,l),
(344,93,l),
(344,93,l),
(498,92,o),
(498,612,q),
(763,612,l)
);
}
);
width = 1104;
}
);
note = uni0414;
unicode = 1044;
},
{
glyphname = uni0416;
layers = (
{
layerId = m01;
shapes = (
{
closed = 1;
nodes = (
(588,326,l),
(677,326,l),
(913,0,l),
(1036,0,l),
(748,388,l),
(1019,723,l),
(894,723,l),
(673,439,l),
(589,439,l),
(589,723,l),
(490,723,l),
(490,439,l),
(406,439,l),
(185,723,l),
(60,723,l),
(331,388,l),
(43,0,l),
(166,0,l),
(402,326,l),
(491,326,l),
(490,0,l),
(589,0,l)
);
}
);
width = 1066;
}
);
note = uni0416;
unicode = 1046;
},
{
glyphname = uni0417;
layers = (
{
layerId = m01;
shapes = (
{
closed = 1;
nodes = (
(306,-7,qs),
(362,-7,o),
(483,36,o),
(550,129,o),
(550,205,qs),
(550,264,o),
(514,312,qs),
(478,361,o),
(426,380,q),
(473,404,o),
(524,479,o),
(524,536,qs),
(524,627,o),
(402,732,o),
(291,732,qs),
(178,732,o),
(98,655,q),
(171,580,l),
(224,639,o),
(293,639,qs),
(354,639,o),
(424,585,o),
(424,530,qs),
(424,480,o),
(367,412,o),
(311,412,qs),
(200,412,l),
(200,318,l),
(308,318,ls),
(361,318,o),
(450,266,o),
(450,142,o),
(356,83,o),
(303,83,qs),
(193,83,o),
(130,153,q),
(73,81,o),
(73,81,q),
(154,-7,o)
);
}
);
width = 619;
}
);
note = uni0417;
unicode = 1047;
},
{
glyphname = uni0418;
layers = (
{
layerId = m01;
shapes = (
{
closed = 1;
nodes = (
(101,-24,l),
(632,515,l),
(630,0,l),
(728,0,l),
(728,745,l),
(723,745,l),
(193,200,l),
(195,723,l),
(98,723,l),
(98,-24,l)
);
}
);
width = 838;
}
);
note = uni0418;
unicode = 1048;
},
{
glyphname = uni041A;
layers = (
{
layerId = m01;
shapes = (
{
closed = 1;
nodes = (
(104,723,l),
(104,0,l),
(203,0,l),
(202,326,l),
(291,326,l),
(527,0,l),
(650,0,l),
(362,388,l),
(633,723,l),
(508,723,l),
(287,439,l),
(203,439,l),
(203,723,l)
);
}
);
width = 680;
}
);
note = uni041A;
unicode = 1050;
},
{
glyphname = uni041B;
layers = (
{
layerId = m01;
shapes = (
{
closed = 1;
nodes = (
(399,-57,o),
(399,625,q),
(625,625,l),
(625,0,l),
(723,0,l),
(723,723,l),
(307,723,l),
(307,723,l),
(307,723,l),
(307,61,o),
(96,95,q),
(96,3,l),
(96,3,l)
);
}
);
width = 812;
}
);
note = uni041B;
unicode = 1051;
},
{
glyphname = uni0423;
layers = (
{
layerId = m01;
shapes = (
{
closed = 1;
nodes = (
(553,723,l),
(352,365,l),
(148,723,l),
(28,723,l),
(295,259,l),
(141,0,l),
(252,0,l),
(664,723,l)
);
}
);
width = 692;
}
);
note = uni0423;
unicode = 1059;
},
{
glyphname = uni0424;
layers = (
{
layerId = m01;
shapes = (
{
closed = 1;
nodes = (
(264,199,qs),
(203,231,o),
(174,265,qs),
(142,302,o),
(142,362,qs),
(142,421,o),
(174,461,qs),
(204,497,o),
(263,528,qs),
(289,541,o),
(376,549,q),
(376,177,o),
(376,177,q),
(294,183,o)
);
},
{
closed = 1;
nodes = (
(553,542,o),
(588,524,qs),
(640,497,o),
(678,461,qs),
(710,431,o),
(710,363,qs),
(710,310,o),
(678,271,qs),
(638,223,o),
(590,198,qs),
(555,180,o),
(474,176,q),
(474,549,l)
);
},
{
closed = 1;
nodes = (
(632,131,qs),
(714,170,o),
(755,224,qs),
(801,284,o),
(801,363,qs),
(801,440,o),
(755,507,qs),
(731,541,o),
(632,598,qs),
(588,623,o),
(474,630,q),
(474,723,l),
(376,723,l),
(376,629,l),
(264,621,o),
(219,598,qs),
(129,550,o),
(97,507,qs),
(51,445,o),
(51,363,qs),
(51,278,o),
(96,217,qs),
(134,164,o),
(219,131,qs),
(274,109,o),
(376,100,q),
(376,0,l),
(474,0,l),
(474,98,l),
(578,105,o)
);
}
);
width = 857;
}
);
note = uni0424;
unicode = 1060;
},
{
glyphname = uni0426;
layers = (
{
layerId = m01;
shapes = (
{
closed = 1;
nodes = (
(541,723,l),
(541,93,l),
(199,93,l),
(199,723,l),
(102,723,l),
(102,0,l),
(686,0,l),
(686,0,l),
(686,-118,l),
(791,-118,l),
(791,93,l),
(638,93,l),
(638,723,l)
);
}
);
width = 868;
}
);
note = uni0426;
unicode = 1062;
},
{
glyphname = uni0427;
layers = (
{
layerId = m01;
shapes = (
{
closed = 1;
nodes = (
(69,492,ls),
(69,160,o),
(490,317,q),
(490,0,l),
(587,0,l),
(587,723,l),
(490,723,l),
(490,404,l),
(167,286,o),
(166,492,qs),
(166,723,l),
(69,723,l)
);
}
);
width = 675;
}
);
note = uni0427;
unicode = 1063;
},
{
glyphname = uni0428;
layers = (
{
layerId = m01;
shapes = (
{
closed = 1;
nodes = (
(852,723,l),
(755,723,l),
(755,93,l),
(534,93,l),
(534,723,l),
(437,723,l),
(437,93,l),
(199,93,l),
(199,723,l),
(102,723,l),
(102,0,l),
(852,0,l)
);
}
);
width = 960;
}
);
note = uni0428;
unicode = 1064;
},
{
glyphname = uni0429;
layers = (
{
layerId = m01;
shapes = (
{
closed = 1;
nodes = (
(900,-118,l),
(1005,-118,l),
(1005,93,l),
(852,93,l),
(852,723,l),
(755,723,l),
(755,93,l),
(534,93,l),
(534,723,l),
(437,723,l),
(437,93,l),
(199,93,l),
(199,723,l),
(102,723,l),
(102,0,l),
(900,0,l),
(900,0,l)
);
}
);
width = 1056;
}
);
note = uni0429;
unicode = 1065;
},
{
glyphname = uni042A;
layers = (
{
layerId = m01;
shapes = (
{
closed = 1;
nodes = (
(544,224,qs),
(544,172,o),
(476,91,o),
(404,91,qs),
(292,91,l),
(292,361,l),
(400,361,ls),
(452,361,o),
(516,317,o),
(544,254,o)
);
},
{
closed = 1;
nodes = (
(390,-2,ls),
(508,-2,o),
(574,57,qs),
(641,117,o),
(640,222,qs),
(640,283,o),
(592,389,o),
(482,455,o),
(400,455,qs),
(292,455,l),
(292,721,l),
(196,721,l),
(78,721,l),
(78,615,l),
(196,615,l),
(196,616,l),
(196,-2,l)
);
}
);
width = 707;
}
);
note = uni042A;
unicode = 1066;
},
{
glyphname = uni042B;
layers = (
{
layerId = m01;
shapes = (
{
closed = 1;
nodes = (
(88,0,l),
(282,0,ls),
(400,0,o),
(533,118,o),
(533,224,qs),
(533,285,o),
(484,391,o),
(375,457,o),
(292,457,qs),
(185,457,l),
(185,723,l),
(88,723,l)
);
},
{
closed = 1;
nodes = (
(437,226,qs),
(437,174,o),
(369,93,o),
(297,93,qs),
(185,93,l),
(185,363,l),
(292,363,ls),
(344,363,o),
(409,319,o),
(437,256,o)
);
},
{
closed = 1;
nodes = (
(695,0,l),
(695,723,l),
(598,723,l),
(598,0,l)
);
}
);
width = 781;
}
);
note = uni042B;
unicode = 1067;
},
{
glyphname = uni042C;
layers = (
{
layerId = m01;
shapes = (
{
closed = 1;
nodes = (
(88,0,l),
(282,0,ls),
(400,0,o),
(533,118,o),
(533,224,qs),
(533,285,o),
(484,391,o),
(375,457,o),
(292,457,qs),
(185,457,l),
(185,723,l),
(88,723,l)
);
},
{
closed = 1;
nodes = (
(437,226,qs),
(437,174,o),
(369,93,o),
(297,93,qs),
(185,93,l),
(185,363,l),
(292,363,ls),
(344,363,o),
(409,319,o),
(437,256,o)
);
}
);
width = 595;
}
);
note = uni042C;
unicode = 1068;
},
{
glyphname = uni042D;
layers = (
{
layerId = m01;
shapes = (
{
closed = 1;
nodes = (
(514,216,qs),
(481,153,o),
(360,82,o),
(281,82,qs),
(184,82,o),
(112,137,q),
(71,50,l),
(106,27,o),
(213,-12,o),
(276,-12,qs),
(387,-12,o),
(556,86,o),
(647,252,o),
(647,352,qs),
(647,459,o),
(555,630,o),
(392,727,o),
(289,727,qs),
(228,727,o),
(122,695,o),
(80,669,q),
(119,578,l),
(202,634,o),
(286,634,qs),
(356,634,o),
(475,560,o),
(510,496,qs),
(534,455,o),
(542,408,q),
(237,408,l),
(237,306,l),
(542,306,o),
(542,306,q),
(535,258,o)
);
}
);
width = 694;
}
);
note = uni042D;
unicode = 1069;
},
{
glyphname = uni042E;
layers = (
{
layerId = m01;
shapes = (
{
closed = 1;
nodes = (
(467,436,o),
(538,564,o),
(662,639,o),
(736,639,qs),
(810,639,o),
(934,565,o),
(1006,437,o),
(1006,362,qs),
(1006,287,o),
(935,160,o),
(812,87,o),
(738,87,qs),
(664,87,o),
(539,161,o),
(467,287,o),
(467,361,qs)
);
},
{
closed = 1;
nodes = (
(152,723,l),
(55,723,l),
(55,0,l),
(152,0,l),
(152,317,l),
(372,317,l),
(384,229,o),
(416,176,qs),
(468,90,o),
(551,42,qs),
(636,-7,o),
(736,-7,qs),
(835,-7,o),
(1006,92,o),
(1106,262,o),
(1106,362,qs),
(1106,461,o),
(1005,631,o),
(835,732,o),
(736,732,qs),
(636,732,o),
(467,631,o),
(417,546,qs),
(385,493,o),
(372,410,q),
(152,410,l)
);
}
);
width = 1173;
}
);
note = uni042E;
unicode = 1070;
},
{
glyphname = uni042F;
layers = (
{
layerId = m01;
shapes = (
{
closed = 1;
nodes = (
(342,266,o),
(358,266,qs),
(465,266,l),
(465,0,l),
(562,0,l),
(562,723,l),
(369,723,ls),
(295,723,o),
(179,671,o),
(113,570,o),
(113,499,qs),
(113,432,o),
(172,320,o),
(233,291,q),
(51,0,l),
(164,0,l),
(334,267,l)
);
},
{
closed = 1;
nodes = (
(213,527,o),
(242,589,o),
(305,630,o),
(353,630,qs),
(465,630,l),
(465,360,l),
(360,360,ls),
(282,360,o),
(213,442,o),
(213,495,qs)
);
}
);
width = 660;
}
);
note = uni042F;
unicode = 1071;
},
{
glyphname = uni0431;
layers = (
{
layerId = m01;
shapes = (
{
closed = 1;
nodes = (
(209,439,o),
(131,361,q),
(131,515,o),
(283,580,qs),
(436,646,o),
(472,736,q),
(384,775,l),
(341,687,o),
(231,648,qs),
(38,580,o),
(38,269,qs),
(38,175,o),
(69,115,qs),
(100,56,o),
(207,-8,o),
(274,-8,qs),
(334,-8,o),
(440,47,o),
(504,153,o),
(504,288,o),
(438,384,o),
(339,439,o),
(288,439,qs)
);
},
{
closed = 1;
nodes = (
(155,300,qs),
(182,331,o),
(204,342,qs),
(234,357,o),
(270,357,qs),
(327,357,o),
(404,286,o),
(404,159,o),
(327,79,o),
(270,79,qs),
(234,79,o),
(173,114,o),
(135,184,o),
(135,224,qs),
(136,277,o)
);
}
);
width = 540;
}
);
note = uni0431;
unicode = 1073;
},
{
glyphname = uni0432;
layers = (
{
layerId = m01;
shapes = (
{
closed = 1;
nodes = (
(363,295,qs),
(363,243,o),
(286,243,qs),
(167,243,l),
(167,346,l),
(286,345,o),
(286,345,q),
(363,345,o)
);
},
{
closed = 1;
nodes = (
(302,67,qs),
(167,67,l),
(167,169,l),
(302,169,ls),
(379,169,o),
(379,119,qs),
(379,67,o)
);
},
{
closed = 1;
nodes = (
(81,0,l),
(307,0,ls),
(384,0,o),
(432,38,qs),
(476,72,o),
(476,183,o),
(408,212,q),
(460,243,o),
(460,342,o),
(415,376,qs),
(364,414,o),
(286,414,qs),
(81,414,l)
);
}
);
width = 521;
}
);
note = uni0432;
unicode = 1074;
},
{
glyphname = uni0433;
layers = (
{
layerId = m01;
shapes = (
{
closed = 1;
nodes = (
(81,414,l),
(81,0,l),
(174,0,l),
(174,335,l),
(426,335,l),
(426,414,l)
);
}
);
width = 480;
}
);
note = uni0433;
unicode = 1075;
},
{
glyphname = uni0434;
layers = (
{
layerId = m01;
shapes = (
{
closed = 1;
nodes = (
(332,331,q),
(499,332,l),
(499,75,l),
(271,75,l),
(271,75,o),
(271,75,q),
(332,114,o)
);
},
{
closed = 1;
nodes = (
(721,-118,l),
(721,75,l),
(588,75,l),
(588,414,l),
(255,414,l),
(250,414,l),
(250,414,l),
(250,75,o),
(169,75,qs),
(68,75,l),
(68,-122,l),
(152,-122,l),
(152,0,l),
(152,0,l),
(640,0,l),
(640,0,l),
(640,-118,l)
);
}
);
width = 770;
}
);
note = uni0434;
unicode = 1076;
},
{
glyphname = uni0436;
layers = (
{
layerId = m01;
shapes = (
{
closed = 1;
nodes = (
(329,265,l),
(273,265,l),
(115,424,l),
(58,374,l),
(207,225,l),
(38,0,l),
(147,0,l),
(271,173,l),
(329,173,l),
(329,0,l),
(422,0,l),
(422,173,l),
(480,173,l),
(604,0,l),
(713,0,l),
(544,225,l),
(693,374,l),
(636,424,l),
(478,265,l),
(422,265,l),
(422,414,l),
(329,414,l)
);
}
);
width = 747;
}
);
note = uni0436;
unicode = 1078;
},
{
glyphname = uni0437;
layers = (
{
layerId = m01;
shapes = (
{
closed = 1;
nodes = (
(116,71,o),
(82,114,q),
(33,55,l),
(89,-7,o),
(317,-7,o),
(367,28,qs),
(427,68,o),
(427,190,o),
(366,222,q),
(418,251,o),
(418,350,o),
(382,382,qs),
(322,434,o),
(203,434,qs),
(137,434,o),
(60,386,q),
(90,321,l),
(139,357,o),
(198,357,qs),
(323,357,o),
(323,251,o),
(244,251,qs),
(150,251,l),
(150,176,l),
(251,176,ls),
(329,176,o),
(329,70,o),
(202,70,qs)
);
}
);
width = 471;
}
);
note = uni0437;
unicode = 1079;
},
{
glyphname = uni0438;
layers = (
{
layerId = m01;
shapes = (
{
closed = 1;
nodes = (
(397,264,l),
(397,0,l),
(484,0,l),
(484,435,l),
(174,147,l),
(174,414,l),
(88,414,l),
(88,-22,l)
);
}
);
width = 585;
}
);
note = uni0438;
unicode = 1080;
},
{
glyphname = uni043A;
layers = (
{
layerId = m01;
shapes = (
{
closed = 1;
nodes = (
(81,414,l),
(81,0,l),
(174,0,l),
(174,173,l),
(232,173,l),
(356,0,l),
(465,0,l),
(296,225,l),
(445,374,l),
(388,424,l),
(230,265,l),
(174,265,l),
(174,414,l)
);
}
);
width = 499;
}
);
note = uni043A;
unicode = 1082;
},
{
glyphname = uni043B;
layers = (
{
layerId = m01;
shapes = (
{
closed = 1;
nodes = (
(480,414,l),
(160,414,l),
(155,414,l),
(155,414,l),
(155,80,o),
(48,90,q),
(48,0,l),
(232,-16,o),
(232,331,q),
(394,332,l),
(394,0,l),
(480,0,l)
);
}
);
width = 546;
}
);
note = uni043B;
unicode = 1083;
},
{
glyphname = uni043C;
layers = (
{
layerId = m01;
shapes = (
{
closed = 1;
nodes = (
(133,0,l),
(133,239,l),
(266,81,l),
(403,247,l),
(403,0,l),
(480,0,l),
(480,435,l),
(266,183,l),
(57,435,l),
(57,0,l)
);
}
);
width = 561;
}
);
note = uni043C;
unicode = 1084;
},
{
glyphname = uni043D;
layers = (
{
layerId = m01;
shapes = (
{
closed = 1;
nodes = (
(363,246,l),
(159,246,l),
(159,414,l),
(75,414,l),
(75,0,l),
(159,0,l),
(159,173,l),
(363,173,l),
(363,0,l),
(448,0,l),
(448,414,l),
(363,414,l)
);
}
);
width = 510;
}
);
note = uni043D;
unicode = 1085;
},
{
glyphname = uni043F;
layers = (
{
layerId = m01;
shapes = (
{
closed = 1;
nodes = (
(75,0,l),
(159,0,l),
(159,331,l),
(363,331,l),
(363,0,l),
(448,0,l),
(448,414,l),
(75,414,l)
);
}
);
width = 510;
}
);
note = uni043F;
unicode = 1087;
},
{
glyphname = uni0442;
layers = (
{
layerId = m01;
shapes = (
{
closed = 1;
nodes = (
(429,414,l),
(45,414,l),
(45,332,l),
(187,332,l),
(187,0,l),
(280,0,l),
(280,332,l),
(429,332,l)
);
}
);
width = 475;
}
);
note = uni0442;
unicode = 1090;
},
{
glyphname = uni0444;
layers = (
{
layerId = m01;
shapes = (
{
closed = 1;
nodes = (
(410,126,o),
(332,65,o),
(279,65,qs),
(241,65,o),
(177,102,o),
(139,167,o),
(139,247,o),
(177,314,o),
(241,352,o),
(279,352,qs),
(332,352,o),
(408,292,o),
(419,243,q),
(419,173,l)
);
},
{
closed = 1;
nodes = (
(522,295,o),
(600,356,o),
(653,356,qs),
(691,356,o),
(755,319,o),
(793,254,o),
(793,174,o),
(755,107,o),
(691,69,o),
(653,69,qs),
(600,69,o),
(524,129,o),
(513,178,q),
(513,248,l)
);
},
{
closed = 1;
nodes = (
(392,392,o),
(312,431,o),
(263,431,qs),
(203,431,o),
(104,375,o),
(45,273,o),
(45,143,o),
(99,44,o),
(191,-10,o),
(247,-10,qs),
(302,-10,o),
(394,30,o),
(420,62,q),
(420,-199,l),
(513,-199,l),
(513,63,l),
(540,29,o),
(620,-10,o),
(669,-10,qs),
(729,-10,o),
(828,46,o),
(887,148,o),
(887,278,o),
(833,377,o),
(741,431,o),
(685,431,qs),
(630,431,o),
(538,391,o),
(512,359,q),
(512,775,l),
(419,775,l),
(419,358,l)
);
}
);
width = 952;
}
);
note = uni0444;
unicode = 1092;
},
{
glyphname = uni0446;
layers = (
{
layerId = m01;
shapes = (
{
closed = 1;
nodes = (
(459,-118,l),
(539,-118,l),
(539,75,l),
(434,75,l),
(434,414,l),
(349,414,l),
(349,75,l),
(145,75,l),
(145,414,l),
(61,414,l),
(61,0,l),
(459,0,l),
(459,0,l)
);
}
);
width = 601;
}
);
note = uni0446;
unicode = 1094;
},
{
glyphname = uni0447;
layers = (
{
layerId = m01;
shapes = (
{
closed = 1;
nodes = (
(363,178,q),
(363,0,l),
(448,0,l),
(448,414,l),
(363,414,l),
(363,241,l),
(159,181,o),
(159,340,qs),
(159,414,l),
(75,414,l),
(75,340,o),
(75,340,q),
(75,106,o)
);
}
);
width = 510;
}
);
note = uni0447;
unicode = 1095;
},
{
glyphname = uni0448;
layers = (
{
layerId = m01;
shapes = (
{
closed = 1;
nodes = (
(257,414,l),
(257,75,l),
(145,75,l),
(145,414,l),
(61,414,l),
(61,0,l),
(551,0,l),
(551,414,l),
(551,414,l),
(466,414,l),
(466,75,l),
(345,75,l),
(345,414,l)
);
}
);
width = 608;
}
);
note = uni0448;
unicode = 1096;
},
{
glyphname = uni0449;
layers = (
{
layerId = m01;
shapes = (
{
closed = 1;
nodes = (
(576,-118,l),
(656,-118,l),
(656,75,l),
(551,75,l),
(551,414,l),
(551,414,l),
(466,414,l),
(466,75,l),
(345,75,l),
(345,414,l),
(257,414,l),
(257,75,l),
(145,75,l),
(145,414,l),
(61,414,l),
(61,0,l),
(576,0,l),
(576,0,l)
);
}
);
width = 723;
}
);
note = uni0449;
unicode = 1097;
},
{
glyphname = uni044A;
layers = (
{
layerId = m01;
shapes = (
{
closed = 1;
nodes = (
(279,1,ls),
(383,1,o),
(443,49,qs),
(488,86,o),
(488,154,qs),
(488,221,o),
(441,263,qs),
(396,302,o),
(326,302,qs),
(201,302,l),
(201,414,l),
(41,414,l),
(41,350,l),
(115,350,l),
(115,1,l)
);
},
{
closed = 1;
nodes = (
(286,81,qs),
(201,81,l),
(201,224,l),
(285,224,ls),
(399,224,o),
(399,154,qs),
(399,82,o)
);
}
);
width = 555;
}
);
note = uni044A;
unicode = 1098;
},
{
glyphname = uni044B;
layers = (
{
layerId = m01;
shapes = (
{
closed = 1;
nodes = (
(585,0,q),
(585,419,l),
(491,419,l),
(491,0,l),
(491,0,o),
(491,0,q),
(585,0,l),
(585,0,o)
);
},
{
closed = 1;
nodes = (
(234,1,ls),
(338,1,o),
(398,49,qs),
(443,86,o),
(443,154,qs),
(443,221,o),
(396,263,qs),
(351,302,o),
(281,302,qs),
(156,302,l),
(156,414,l),
(70,414,l),
(70,1,l)
);
},
{
closed = 1;
nodes = (
(241,81,qs),
(156,81,l),
(156,224,l),
(240,224,ls),
(354,224,o),
(354,154,qs),
(354,82,o)
);
}
);
width = 657;
}
);
note = uni044B;
unicode = 1099;
},
{
glyphname = uni044C;
layers = (
{
layerId = m01;
shapes = (
{
closed = 1;
nodes = (
(234,1,ls),
(338,1,o),
(398,49,qs),
(443,86,o),
(443,154,qs),
(443,221,o),
(396,263,qs),
(351,302,o),
(281,302,qs),
(156,302,l),
(156,414,l),
(70,414,l),
(70,1,l)
);
},
{
closed = 1;
nodes = (
(241,81,qs),
(156,81,l),
(156,224,l),
(240,224,ls),
(354,224,o),
(354,154,qs),
(354,82,o)
);
}
);
width = 510;
}
);
note = uni044C;
unicode = 1100;
},
{
glyphname = uni044D;
layers = (
{
layerId = m01;
shapes = (
{
closed = 1;
nodes = (
(314,140,qs),
(296,108,o),
(235,71,o),
(198,71,qs),
(168,71,o),
(116,92,o),
(96,107,q),
(49,46,l),
(111,-6,o),
(206,-6,qs),
(264,-6,o),
(364,48,o),
(424,147,o),
(424,211,qs),
(424,276,o),
(367,375,o),
(264,429,o),
(197,429,qs),
(157,429,o),
(80,403,o),
(52,380,q),
(100,322,l),
(138,352,o),
(189,352,qs),
(230,352,o),
(294,314,o),
(312,282,qs),
(322,265,o),
(327,246,q),
(147,246,l),
(147,180,l),
(328,180,o),
(328,180,q),
(324,159,o)
);
}
);
width = 457;
}
);
note = uni044D;
unicode = 1101;
},
{
glyphname = uni044E;
layers = (
{
layerId = m01;
shapes = (
{
closed = 1;
nodes = (
(290,95,qs),
(320,45,o),
(424,-10,o),
(489,-10,qs),
(556,-10,o),
(660,48,o),
(717,149,o),
(717,211,qs),
(717,273,o),
(660,373,o),
(557,431,o),
(491,431,qs),
(425,431,o),
(320,373,o),
(290,322,qs),
(271,288,o),
(260,241,q),
(132,241,l),
(132,414,l),
(48,414,l),
(48,0,l),
(132,0,l),
(132,178,l),
(260,178,o),
(260,178,q),
(270,131,o)
);
},
{
closed = 1;
nodes = (
(355,249,o),
(390,315,o),
(450,354,o),
(488,354,qs),
(546,354,o),
(622,271,o),
(622,210,qs),
(622,149,o),
(546,67,o),
(488,67,qs),
(451,67,o),
(390,105,o),
(355,171,o),
(355,210,qs)
);
}
);
width = 761;
}
);
note = uni044E;
unicode = 1102;
},
{
glyphname = uni044F;
layers = (
{
layerId = m01;
shapes = (
{
closed = 1;
nodes = (
(122,0,l),
(251,119,l),
(342,119,l),
(342,0,l),
(428,0,l),
(428,414,l),
(264,414,ls),
(160,414,o),
(100,366,qs),
(55,329,o),
(55,262,qs),
(55,198,o),
(102,158,qs),
(130,136,o),
(165,129,q),
(20,0,l)
);
},
{
closed = 1;
nodes = (
(257,334,qs),
(342,334,l),
(342,197,l),
(258,197,ls),
(144,197,o),
(144,263,qs),
(144,333,o)
);
}
);
width = 489;
}
);
note = uni044F;
unicode = 1103;
},
{
glyphname = uni0452;
layers = (
{
layerId = m01;
shapes = (
{
closed = 1;
nodes = (
(339,-109,o),
(303,-109,qs),
(292,-109,o),
(270,-102,o),
(261,-93,q),
(221,-161,l),
(241,-174,o),
(292,-186,o),
(312,-186,qs),
(391,-186,o),
(473,-90,o),
(473,0,qs),
(473,306,ls),
(473,360,o),
(434,396,qs),
(396,430,o),
(338,430,qs),
(282,430,o),
(195,380,o),
(172,339,q),
(172,556,l),
(272,556,l),
(272,644,l),
(172,644,l),
(172,775,l),
(81,775,l),
(81,644,l),
(-6,644,l),
(-6,556,l),
(81,556,l),
(81,0,l),
(174,0,l),
(174,194,ls),
(174,238,o),
(207,310,o),
(265,350,o),
(301,350,qs),
(339,349,o),
(358,329,qs),
(379,307,o),
(379,274,qs),
(379,0,o),
(379,0,q),
(379,-60,o)
);
}
);
width = 550;
}
);
note = uni0452;
unicode = 1106;
},
{
glyphname = uni0454;
layers = (
{
layerId = m01;
shapes = (
{
closed = 1;
nodes = (
(140,283,qs),
(158,315,o),
(219,352,o),
(256,352,qs),
(286,352,o),
(338,331,o),
(358,316,q),
(405,377,l),
(343,429,o),
(248,429,qs),
(190,429,o),
(90,375,o),
(30,276,o),
(30,212,qs),
(30,147,o),
(87,48,o),
(190,-6,o),
(257,-6,qs),
(297,-6,o),
(374,20,o),
(402,43,q),
(354,101,l),
(316,71,o),
(265,71,qs),
(224,71,o),
(160,109,o),
(142,141,qs),
(132,158,o),
(127,177,q),
(307,177,l),
(307,243,l),
(126,243,o),
(126,243,q),
(130,264,o)
);
}
);
width = 457;
}
);
note = uni0454;
unicode = 1108;
},
{
glyphname = uni0459;
layers = (
{
layerId = m01;
shapes = (
{
closed = 1;
nodes = (
(155,80,o),
(48,90,q),
(48,0,l),
(232,-16,o),
(232,331,q),
(394,332,l),
(394,0,l),
(558,0,ls),
(662,0,o),
(722,48,qs),
(767,85,o),
(767,154,qs),
(767,220,o),
(720,262,qs),
(675,301,o),
(605,301,qs),
(480,301,l),
(480,414,l),
(160,414,l),
(155,414,l),
(155,414,l)
);
},
{
closed = 1;
nodes = (
(565,80,qs),
(480,80,l),
(480,223,l),
(564,223,ls),
(678,223,o),
(678,153,qs),
(678,81,o)
);
}
);
width = 812;
}
);
note = uni0459;
unicode = 1113;
},
{
glyphname = uni045A;
layers = (
{
layerId = m01;
shapes = (
{
closed = 1;
nodes = (
(641,0,o),
(689,36,qs),
(736,71,o),
(736,187,o),
(689,229,qs),
(647,265,o),
(574,265,qs),
(449,265,l),
(449,414,l),
(363,414,l),
(363,265,l),
(159,265,l),
(159,414,l),
(75,414,l),
(75,0,l),
(159,0,l),
(159,187,l),
(363,187,l),
(363,0,l),
(565,0,ls)
);
},
{
closed = 1;
nodes = (
(449,80,l),
(449,187,l),
(533,187,ls),
(647,187,o),
(647,81,o),
(534,80,qs)
);
}
);
width = 791;
}
);
note = uni045A;
unicode = 1114;
},
{
glyphname = uni045B;
layers = (
{
layerId = m01;
shapes = (
{
closed = 1;
nodes = (
(282,430,o),
(195,380,o),
(172,339,q),
(172,556,l),
(272,556,l),
(272,644,l),
(172,644,l),
(172,775,l),
(81,775,l),
(81,644,l),
(-6,644,l),
(-6,556,l),
(81,556,l),
(81,0,l),
(174,0,l),
(174,194,ls),
(174,238,o),
(207,310,o),
(265,350,o),
(301,350,qs),
(339,349,o),
(377,309,o),
(379,274,q),
(379,0,l),
(473,0,l),
(473,306,ls),
(472,361,o),
(396,430,o),
(338,430,qs)
);
}
);
width = 553;
}
);
note = uni045B;
unicode = 1115;
},
{
glyphname = uni045F;
layers = (
{
layerId = m01;
shapes = (
{
closed = 1;
nodes = (
(293,-93,l),
(293,0,l),
(434,0,l),
(434,414,l),
(349,414,l),
(349,75,l),
(145,75,l),
(145,414,l),
(61,414,l),
(61,0,l),
(203,0,l),
(203,-93,l)
);
}
);
width = 514;
}
);
note = uni045F;
unicode = 1119;
},
{
glyphname = uni0490;
layers = (
{
layerId = m01;
shapes = (
{
closed = 1;
nodes = (
(104,0,l),
(201,0,l),
(201,630,l),
(574,630,l),
(574,831,l),
(474,831,l),
(474,723,l),
(104,723,l)
);
}
);
width = 653;
}
);
note = uni0490;
unicode = 1168;
},
{
glyphname = uni0491;
layers = (
{
layerId = m01;
shapes = (
{
closed = 1;
nodes = (
(81,0,l),
(174,0,l),
(174,335,l),
(426,335,l),
(426,494,l),
(333,494,l),
(333,414,l),
(81,414,l)
);
}
);
width = 480;
}
);
note = uni0491;
unicode = 1169;
},
{
glyphname = uni0492;
layers = (
{
layerId = m01;
shapes = (
{
closed = 1;
nodes = (
(152,372,l),
(48,372,l),
(48,294,l),
(152,294,l),
(152,0,l),
(249,0,l),
(249,294,l),
(413,294,l),
(413,372,l),
(249,372,l),
(249,630,l),
(622,630,l),
(622,723,l),
(152,723,l)
);
}
);
width = 701;
}
);
note = uni0492;
unicode = 1170;
},
{
glyphname = uni0493;
layers = (
{
layerId = m01;
shapes = (
{
closed = 1;
nodes = (
(129,414,l),
(129,234,l),
(49,234,l),
(49,156,l),
(129,156,l),
(129,0,l),
(222,0,l),
(222,156,l),
(354,156,l),
(354,234,l),
(222,234,l),
(222,335,l),
(474,335,l),
(474,414,l)
);
}
);
width = 528;
}
);
note = uni0493;
unicode = 1171;
},
{
glyphname = uni0496;
layers = (
{
layerId = m01;
shapes = (
{
closed = 1;
nodes = (
(588,326,l),
(677,326,l),
(913,0,l),
(962,0,l),
(962,-157,l),
(1066,-157,l),
(1066,81,l),
(976,81,l),
(748,388,l),
(1019,723,l),
(894,723,l),
(673,439,l),
(589,439,l),
(589,723,l),
(490,723,l),
(490,439,l),
(406,439,l),
(185,723,l),
(60,723,l),
(331,388,l),
(43,0,l),
(166,0,l),
(402,326,l),
(491,326,l),
(490,0,l),
(589,0,l)
);
}
);
width = 1106;
}
);
note = uni0496;
unicode = 1174;
},
{
glyphname = uni0497;
layers = (
{
layerId = m01;
shapes = (
{
closed = 1;
nodes = (
(329,265,l),
(273,265,l),
(115,424,l),
(58,374,l),
(207,225,l),
(38,0,l),
(147,0,l),
(271,173,l),
(329,173,l),
(329,0,l),
(422,0,l),
(422,173,l),
(480,173,l),
(604,0,l),
(646,0,l),
(646,-144,l),
(734,-144,l),
(734,51,l),
(675,51,l),
(544,225,l),
(693,374,l),
(636,424,l),
(478,265,l),
(422,265,l),
(422,414,l),
(329,414,l)
);
}
);
width = 779;
}
);
note = uni0497;
unicode = 1175;
},
{
glyphname = uni049A;
layers = (
{
layerId = m01;
shapes = (
{
closed = 1;
nodes = (
(104,723,l),
(104,0,l),
(203,0,l),
(202,326,l),
(291,326,l),
(527,0,l),
(576,0,l),
(576,-157,l),
(680,-157,l),
(680,81,l),
(590,81,l),
(362,388,l),
(633,723,l),
(508,723,l),
(287,439,l),
(203,439,l),
(203,723,l)
);
}
);
width = 738;
}
);
note = uni049A;
unicode = 1178;
},
{
glyphname = uni049B;
layers = (
{
layerId = m01;
shapes = (
{
closed = 1;
nodes = (
(81,414,l),
(81,0,l),
(174,0,l),
(174,173,l),
(232,173,l),
(356,0,l),
(398,0,l),
(398,-144,l),
(486,-144,l),
(486,51,l),
(427,51,l),
(296,225,l),
(445,374,l),
(388,424,l),
(230,265,l),
(174,265,l),
(174,414,l)
);
}
);
width = 533;
}
);
note = uni049B;
unicode = 1179;
},
{
glyphname = uni049C;
layers = (
{
layerId = m01;
shapes = (
{
closed = 1;
nodes = (
(246,540,l),
(246,439,l),
(203,439,l),
(203,723,l),
(104,723,l),
(104,0,l),
(203,0,l),
(202,326,l),
(246,326,l),
(246,211,l),
(306,211,l),
(306,326,l),
(350,326,l),
(527,0,l),
(650,0,l),
(421,388,l),
(633,723,l),
(508,723,l),
(346,439,l),
(306,439,l),
(306,540,l)
);
}
);
width = 680;
}
);
note = uni049C;
unicode = 1180;
},
{
glyphname = uni049D;
layers = (
{
layerId = m01;
shapes = (
{
closed = 1;
nodes = (
(81,414,l),
(81,0,l),
(174,0,l),
(174,173,l),
(203,173,l),
(203,72,l),
(252,72,l),
(252,173,l),
(279,173,l),
(356,0,l),
(465,0,l),
(343,225,l),
(445,374,l),
(388,424,l),
(277,265,l),
(252,265,l),
(252,340,l),
(203,340,l),
(203,265,l),
(174,265,l),
(174,414,l)
);
}
);
width = 499;
}
);
note = uni049D;
unicode = 1181;
},
{
glyphname = uni04A2;
layers = (
{
layerId = m01;
shapes = (
{
closed = 1;
nodes = (
(579,723,l),
(579,410,l),
(201,410,l),
(201,723,l),
(104,723,l),
(104,0,l),
(201,0,l),
(201,317,l),
(579,317,l),
(579,0,l),
(668,0,l),
(668,-157,l),
(759,-157,l),
(759,81,l),
(677,81,l),
(677,723,l)
);
}
);
width = 813;
}
);
note = uni04A2;
unicode = 1186;
},
{
glyphname = uni04A3;
layers = (
{
layerId = m01;
shapes = (
{
closed = 1;
nodes = (
(363,246,l),
(159,246,l),
(159,414,l),
(75,414,l),
(75,0,l),
(159,0,l),
(159,173,l),
(363,173,l),
(363,0,l),
(437,0,l),
(437,-144,l),
(516,-144,l),
(516,51,l),
(448,51,l),
(448,414,l),
(363,414,l)
);
}
);
width = 556;
}
);
note = uni04A3;
unicode = 1187;
},
{
glyphname = uni04AF;
layers = (
{
layerId = m01;
shapes = (
{
closed = 1;
nodes = (
(258,119,l),
(124,414,l),
(19,414,l),
(211,14,l),
(211,-199,l),
(300,-199,l),
(300,14,l),
(475,414,l),
(389,414,l)
);
}
);
width = 494;
}
);
note = uni04AF;
unicode = 1199;
},
{
glyphname = uni04B0;
layers = (
{
layerId = m01;
shapes = (
{
closed = 1;
nodes = (
(545,723,l),
(347,351,l),
(148,723,l),
(28,723,l),
(296,241,l),
(102,241,l),
(102,153,l),
(296,153,l),
(296,0,l),
(393,0,l),
(393,153,l),
(582,153,l),
(582,241,l),
(393,241,l),
(664,723,l)
);
}
);
width = 692;
}
);
note = uni04B0;
unicode = 1200;
},
{
glyphname = uni04B1;
layers = (
{
layerId = m01;
shapes = (
{
closed = 1;
nodes = (
(389,414,l),
(258,119,l),
(124,414,l),
(19,414,l),
(211,14,l),
(62,14,l),
(62,-55,l),
(211,-55,l),
(211,-199,l),
(300,-199,l),
(300,-55,l),
(448,-55,l),
(448,14,l),
(300,14,l),
(475,414,l)
);
}
);
width = 494;
}
);
note = uni04B1;
unicode = 1201;
},
{
glyphname = uni04B2;
layers = (
{
layerId = m01;
shapes = (
{
closed = 1;
nodes = (
(326,289,l),
(514,0,l),
(564,0,l),
(564,-157,l),
(668,-157,l),
(668,81,l),
(585,81,l),
(400,366,l),
(628,723,l),
(511,723,l),
(347,447,l),
(167,723,l),
(44,723,l),
(272,373,l),
(34,0,l),
(154,0,l)
);
}
);
width = 707;
}
);
note = uni04B2;
unicode = 1202;
},
{
glyphname = uni04B3;
layers = (
{
layerId = m01;
shapes = (
{
closed = 1;
nodes = (
(431,414,l),
(337,414,l),
(243,270,l),
(135,414,l),
(19,414,l),
(176,208,l),
(24,0,l),
(119,0,l),
(222,147,l),
(334,0,l),
(380,0,l),
(380,-144,l),
(468,-144,l),
(468,51,l),
(408,51,l),
(286,213,l)
);
}
);
width = 506;
}
);
note = uni04B3;
unicode = 1203;
},
{
glyphname = uni04B6;
layers = (
{
layerId = m01;
shapes = (
{
closed = 1;
nodes = (
(69,492,ls),
(69,160,o),
(490,317,q),
(490,0,l),
(587,0,l),
(587,-157,l),
(678,-157,l),
(678,81,l),
(587,81,l),
(587,723,l),
(490,723,l),
(490,404,l),
(167,286,o),
(166,492,qs),
(166,723,l),
(69,723,l)
);
}
);
width = 714;
}
);
note = uni04B6;
unicode = 1206;
},
{
glyphname = uni04B7;
layers = (
{
layerId = m01;
shapes = (
{
closed = 1;
nodes = (
(363,178,q),
(363,0,l),
(448,0,l),
(448,-144,l),
(527,-144,l),
(527,51,l),
(448,51,l),
(448,414,l),
(363,414,l),
(363,241,l),
(159,181,o),
(159,340,qs),
(159,414,l),
(75,414,l),
(75,340,ls),
(75,106,o)
);
}
);
width = 553;
}
);
note = uni04B7;
unicode = 1207;
},
{
glyphname = uni04B8;
layers = (
{
layerId = m01;
shapes = (
{
closed = 1;
nodes = (
(69,492,ls),
(69,252,o),
(289,268,q),
(289,118,l),
(381,118,l),
(381,283,l),
(431,295,o),
(490,317,q),
(490,0,l),
(587,0,l),
(587,723,l),
(490,723,l),
(490,404,l),
(430,382,o),
(381,371,q),
(381,548,l),
(289,548,l),
(289,361,l),
(166,365,o),
(166,492,qs),
(166,723,l),
(69,723,l)
);
}
);
width = 675;
}
);
note = uni04B8;
unicode = 1208;
},
{
glyphname = uni04B9;
layers = (
{
layerId = m01;
shapes = (
{
closed = 1;
nodes = (
(226,162,q),
(226,64,l),
(292,64,l),
(292,164,l),
(325,168,o),
(363,178,q),
(363,0,l),
(448,0,l),
(448,414,l),
(363,414,l),
(363,241,l),
(324,229,o),
(292,226,q),
(292,328,l),
(226,328,l),
(226,230,l),
(159,249,o),
(159,340,qs),
(159,414,l),
(75,414,l),
(75,340,ls),
(75,171,o)
);
}
);
width = 510;
}
);
note = uni04B9;
unicode = 1209;
},
{
glyphname = uni04BA;
layers = (
{
layerId = m01;
shapes = (
{
closed = 1;
nodes = (
(600,231,ls),
(600,563,o),
(179,406,q),
(179,723,l),
(82,723,l),
(82,0,l),
(179,0,l),
(179,319,l),
(502,437,o),
(503,231,qs),
(503,0,l),
(600,0,l)
);
}
);
width = 675;
}
);
note = uni04BA;
unicode = 1210;
},
{
glyphname = uni04E8;
layers = (
{
layerId = m01;
shapes = (
{
closed = 1;
nodes = (
(116,148,o),
(218,48,o),
(351,-8,o),
(503,-8,o),
(638,49,o),
(740,151,o),
(798,284,o),
(798,361,qs),
(798,436,o),
(740,570,o),
(638,672,o),
(503,731,o),
(351,731,o),
(218,672,o),
(116,570,o),
(59,436,o),
(59,361,qs),
(59,283,o)
);
},
{
closed = 1;
nodes = (
(171,458,o),
(194,499,qs),
(230,562,o),
(352,638,o),
(428,638,qs),
(484,638,o),
(582,595,o),
(656,519,o),
(677,468,qs),
(689,441,o),
(694,411,q),
(163,411,l)
);
},
{
closed = 1;
nodes = (
(686,263,o),
(662,222,qs),
(626,159,o),
(505,86,o),
(430,86,qs),
(373,86,o),
(275,128,o),
(201,204,o),
(180,254,qs),
(168,282,o),
(163,312,q),
(694,312,l)
);
}
);
width = 857;
}
);
note = uni04E8;
unicode = 1256;
},
{
glyphname = uni04E9;
layers = (
{
layerId = m01;
shapes = (
{
closed = 1;
nodes = (
(104,44,o),
(207,-10,o),
(273,-10,qs),
(341,-10,o),
(444,49,o),
(501,149,o),
(501,273,o),
(444,373,o),
(342,431,o),
(208,431,o),
(104,373,o),
(45,273,o),
(45,211,qs),
(45,144,o)
);
},
{
closed = 1;
nodes = (
(398,155,o),
(388,138,qs),
(371,105,o),
(311,67,o),
(272,67,qs),
(234,67,o),
(174,105,o),
(156,138,qs),
(147,155,o),
(143,174,q),
(402,174,l)
);
},
{
closed = 1;
nodes = (
(148,266,o),
(156,282,qs),
(173,314,o),
(234,354,o),
(272,354,qs),
(311,354,o),
(371,315,o),
(388,282,qs),
(397,267,o),
(401,249,q),
(144,249,l)
);
}
);
width = 545;
}
);
note = uni04E9;
unicode = 1257;
},
{
glyphname = uni04F6;
layers = (
{
layerId = m01;
shapes = (
{
closed = 1;
nodes = (
(104,0,l),
(201,0,l),
(201,-157,l),
(292,-157,l),
(292,81,l),
(201,81,l),
(201,630,l),
(574,630,l),
(574,723,l),
(104,723,l)
);
}
);
width = 653;
}
);
note = uni04F6;
unicode = 1270;
},
{
glyphname = uni04F7;
layers = (
{
layerId = m01;
shapes = (
{
closed = 1;
nodes = (
(81,414,l),
(81,0,l),
(174,0,l),
(174,-144,l),
(253,-144,l),
(253,51,l),
(174,51,l),
(174,335,l),
(426,335,l),
(426,414,l)
);
}
);
width = 480;
}
);
note = uni04F7;
unicode = 1271;
},
{
glyphname = uni1E9E;
layers = (
{
layerId = m01;
shapes = (
{
closed = 1;
nodes = (
(733,45,o),
(784,131,o),
(784,182,qs),
(784,239,o),
(734,311,o),
(659,359,o),
(621,381,qs),
(591,398,o),
(535,434,o),
(499,481,o),
(499,514,qs),
(499,553,o),
(551,606,o),
(590,606,qs),
(605,606,o),
(619,602,q),
(620,602,l),
(620,602,l),
(634,598,o),
(654,586,o),
(659,582,q),
(686,654,l),
(663,680,o),
(575,727,o),
(465,758,o),
(409,758,qs),
(309,758,o),
(173,665,o),
(104,501,o),
(104,393,qs),
(104,0,l),
(202,0,l),
(202,389,ls),
(202,540,o),
(320,680,o),
(420,680,qs),
(471,680,o),
(519,663,q),
(462,645,o),
(402,557,o),
(402,496,qs),
(402,446,o),
(452,372,o),
(527,320,o),
(566,300,qs),
(595,283,o),
(649,251,o),
(683,210,o),
(683,182,qs),
(683,145,o),
(645,99,o),
(590,78,o),
(565,78,qs),
(521,78,o),
(427,110,o),
(390,135,q),
(348,58,l),
(394,27,o),
(509,-8,o),
(572,-8,qs),
(639,-8,o)
);
}
);
width = 839;
}
);
note = uni1E9E;
unicode = 7838;
},
{
glyphname = uni1EE1;
kernLeft = a;
kernRight = o;
layers = (
{
layerId = m01;
shapes = (
{
closed = 1;
nodes = (
(407,541,o),
(402,597,q),
(359,597,l),
(359,564,o),
(343,527,o),
(325,527,qs),
(312,527,o),
(288,545,o),
(276,557,qs),
(262,571,o),
(228,596,o),
(205,596,qs),
(164,596,o),
(117,527,o),
(120,475,q),
(164,475,l),
(163,507,o),
(184,543,o),
(201,543,qs),
(214,543,o),
(236,526,o),
(247,516,qs),
(262,502,o),
(298,476,o),
(327,476,qs),
(362,476,o)
);
},
{
closed = 1;
nodes = (
(104,44,o),
(207,-10,o),
(273,-10,qs),
(341,-10,o),
(444,49,o),
(501,149,o),
(501,211,qs),
(501,259,o),
(466,342,o),
(434,371,q),
(465,386,o),
(506,449,o),
(513,507,q),
(443,507,l),
(437,462,o),
(400,418,o),
(365,415,q),
(323,431,o),
(275,431,qs),
(208,431,o),
(104,373,o),
(45,273,o),
(45,211,qs),
(45,144,o)
);
},
{
closed = 1;
nodes = (
(173,314,o),
(234,354,o),
(272,354,qs),
(311,354,o),
(371,315,o),
(406,250,o),
(406,210,qs),
(406,170,o),
(371,105,o),
(311,67,o),
(272,67,qs),
(234,67,o),
(174,105,o),
(139,170,o),
(139,210,qs),
(139,249,o)
);
}
);
width = 545;
}
);
note = uni1EE1;
unicode = 7905;
},
{
glyphname = endash;
layers = (
{
layerId = m01;
shapes = (
{
closed = 1;
nodes = (
(406,170,l),
(406,252,l),
(102,252,l),
(102,170,l)
);
}
);
width = 516;
}
);
note = endash;
unicode = 8211;
},
{
glyphname = emdash;
layers = (
{
layerId = m01;
shapes = (
{
closed = 1;
nodes = (
(609,170,l),
(609,252,l),
(101,252,l),
(101,170,l)
);
}
);
width = 709;
}
);
note = emdash;
unicode = 8212;
},
{
glyphname = quoteleft;
layers = (
{
layerId = m01;
shapes = (
{
closed = 1;
nodes = (
(26,627,o),
(36,577,q),
(111,584,l),
(104,616,o),
(128,684,o),
(150,708,q),
(102,733,l),
(68,709,o)
);
}
);
width = 182;
}
);
note = quoteleft;
unicode = 8216;
},
{
glyphname = quoteright;
layers = (
{
layerId = m01;
shapes = (
{
closed = 1;
nodes = (
(80,678,o),
(56,608,o),
(35,588,q),
(82,564,l),
(104,579,o),
(138,631,o),
(154,692,o),
(149,720,q),
(74,713,l)
);
}
);
width = 185;
}
);
note = quoteright;
unicode = 8217;
},
{
glyphname = dagger;
layers = (
{
layerId = m01;
shapes = (
{
closed = 1;
nodes = (
(108,384,l),
(108,9,l),
(193,9,l),
(193,384,l),
(267,384,l),
(267,467,l),
(193,467,l),
(193,611,l),
(108,611,l),
(108,467,l),
(33,467,l),
(33,384,l)
);
}
);
width = 300;
}
);
note = dagger;
unicode = 8224;
},
{
glyphname = daggerdbl;
layers = (
{
layerId = m01;
shapes = (
{
closed = 1;
nodes = (
(112,218,l),
(112,9,l),
(196,9,l),
(196,218,l),
(283,218,l),
(283,301,l),
(196,301,l),
(196,384,l),
(271,384,l),
(271,467,l),
(196,467,l),
(196,611,l),
(112,611,l),
(112,467,l),
(37,467,l),
(37,384,l),
(112,384,l),
(112,301,l),
(22,301,l),
(22,218,l)
);
}
);
width = 305;
}
);
note = daggerdbl;
unicode = 8225;
},
{
glyphname = bullet;
layers = (
{
layerId = m01;
shapes = (
{
closed = 1;
nodes = (
(149,210,o),
(207,176,o),
(242,176,qs),
(278,176,o),
(337,210,o),
(372,268,o),
(372,304,qs),
(372,340,o),
(337,399,o),
(278,434,o),
(242,434,qs),
(207,434,o),
(149,399,o),
(114,340,o),
(114,304,qs),
(114,268,o)
);
}
);
width = 485;
}
);
note = bullet;
unicode = 8226;
},
{
glyphname = ellipsis;
kernLeft = comma;
layers = (
{
layerId = m01;
shapes = (
{
closed = 1;
nodes = (
(67,0,o),
(87,0,qs),
(105,0,o),
(139,29,o),
(139,53,qs),
(139,76,o),
(105,107,o),
(87,107,qs),
(67,107,o),
(34,76,o),
(34,53,qs),
(34,29,o)
);
},
{
closed = 1;
nodes = (
(245,0,o),
(265,0,qs),
(283,0,o),
(317,29,o),
(317,53,qs),
(317,76,o),
(283,107,o),
(265,107,qs),
(245,107,o),
(212,76,o),
(212,53,qs),
(212,29,o)
);
},
{
closed = 1;
nodes = (
(423,0,o),
(443,0,qs),
(462,0,o),
(495,29,o),
(495,53,qs),
(495,76,o),
(462,107,o),
(443,107,qs),
(423,107,o),
(390,76,o),
(390,53,qs),
(390,29,o)
);
}
);
width = 525;
}
);
note = ellipsis;
unicode = 8230;
},
{
glyphname = perthousand;
layers = (
{
layerId = m01;
shapes = (
{
closed = 1;
nodes = (
(143,0,l),
(236,-2,l),
(653,610,l),
(559,610,l)
);
},
{
closed = 1;
nodes = (
(347,362,o),
(347,438,qs),
(347,513,o),
(273,609,o),
(205,609,qs),
(136,609,o),
(62,513,o),
(62,438,qs),
(62,362,o),
(136,267,o),
(205,267,qs),
(273,267,o)
);
},
{
closed = 1;
nodes = (
(205,541,qs),
(264,541,o),
(264,438,qs),
(264,390,o),
(234,334,o),
(205,334,qs),
(175,334,o),
(145,390,o),
(145,438,qs),
(145,541,o)
);
},
{
closed = 1;
nodes = (
(723,79,o),
(723,155,qs),
(723,230,o),
(649,326,o),
(581,326,qs),
(512,326,o),
(439,230,o),
(439,155,qs),
(439,79,o),
(512,-16,o),
(581,-16,qs),
(648,-16,o)
);
},
{
closed = 1;
nodes = (
(1050,79,o),
(1050,155,qs),
(1050,230,o),
(976,326,o),
(908,326,qs),
(839,326,o),
(766,230,o),
(766,155,qs),
(766,79,o),
(839,-16,o),
(908,-16,qs),
(975,-16,o)
);
},
{
closed = 1;
nodes = (
(581,258,qs),
(640,258,o),
(640,155,qs),
(640,107,o),
(610,51,o),
(581,51,qs),
(551,51,o),
(521,107,o),
(521,155,qs),
(521,258,o)
);
},
{
closed = 1;
nodes = (
(908,258,qs),
(967,258,o),
(967,155,qs),
(967,107,o),
(937,51,o),
(908,51,qs),
(878,51,o),
(848,107,o),
(848,155,qs),
(848,258,o)
);
}
);
width = 1105;
}
);
note = perthousand;
unicode = 8240;
},
{
glyphname = guilsinglleft;
layers = (
{
layerId = m01;
shapes = (
{
closed = 1;
nodes = (
(276,138,l),
(269,144,o),
(238,173,o),
(202,206,o),
(171,235,o),
(165,242,q),
(171,249,o),
(202,277,o),
(238,310,o),
(269,338,o),
(276,345,q),
(276,431,l),
(270,425,o),
(225,387,o),
(164,336,o),
(104,286,o),
(59,248,o),
(52,242,q),
(276,53,l)
);
}
);
width = 371;
}
);
note = guilsinglleft;
unicode = 8249;
},
{
glyphname = guilsinglright;
layers = (
{
layerId = m01;
shapes = (
{
closed = 1;
nodes = (
(266,286,o),
(205,336,o),
(145,387,o),
(100,425,o),
(94,431,q),
(94,345,l),
(100,338,o),
(131,310,o),
(168,277,o),
(199,249,o),
(205,242,q),
(199,235,o),
(168,206,o),
(131,173,o),
(100,144,o),
(94,138,q),
(94,53,l),
(317,242,l),
(311,248,o)
);
}
);
width = 365;
}
);
note = guilsinglright;
unicode = 8250;
},
{
glyphname = fraction;
layers = (
{
layerId = m01;
shapes = (
{
closed = 1;
nodes = (
(11,0,l),
(100,0,l),
(507,685,l),
(419,685,l)
);
}
);
width = 566;
}
);
note = fraction;
unicode = 8260;
},
{
glyphname = uni2074;
layers = (
{
layerId = m01;
shapes = (
{
closed = 1;
nodes = (
(291,677,l),
(234,677,l),
(36,421,l),
(37,396,l),
(210,396,l),
(210,297,l),
(291,297,l),
(291,396,l),
(335,396,l),
(335,450,l),
(291,450,l)
);
},
{
closed = 1;
nodes = (
(210,450,l),
(130,450,l),
(210,554,l)
);
}
);
width = 387;
}
);
note = uni2074;
unicode = 8308;
},
{
glyphname = colonmonetary;
layers = (
{
layerId = m01;
shapes = (
{
closed = 1;
nodes = (
(566,120,o),
(484,87,o),
(431,86,q),
(690,788,l),
(605,788,l),
(572,700,l),
(541,713,o),
(508,721,q),
(533,787,l),
(448,787,l),
(427,731,l),
(422,731,o),
(417,731,qs),
(339,731,o),
(208,675,o),
(112,574,o),
(59,437,o),
(59,356,qs),
(59,272,o),
(124,125,o),
(185,75,q),
(137,-55,l),
(222,-55,l),
(253,30,l),
(283,16,o),
(316,6,q),
(294,-54,l),
(379,-54,l),
(397,-7,l),
(409,-8,o),
(423,-8,qs),
(472,-9,o),
(555,12,o),
(617,42,o),
(635,54,q),
(594,141,l)
);
},
{
closed = 1;
nodes = (
(222,553,o),
(328,628,o),
(392,636,q),
(222,175,l),
(160,251,o),
(160,361,qs),
(160,433,o)
);
},
{
closed = 1;
nodes = (
(492,627,o),
(524,616,o),
(539,609,q),
(349,95,l),
(315,104,o),
(286,121,q),
(475,631,l)
);
}
);
width = 695;
}
);
note = colonmonetary;
unicode = 8353;
},
{
glyphname = lira;
layers = (
{
layerId = m01;
shapes = (
{
closed = 1;
nodes = (
(251,347,l),
(394,347,l),
(394,435,l),
(251,435,l),
(251,504,ls),
(251,552,o),
(303,606,o),
(365,606,qs),
(408,606,o),
(454,584,o),
(476,557,o),
(484,549,q),
(554,597,l),
(529,644,o),
(435,699,o),
(363,699,qs),
(301,699,o),
(207,658,o),
(155,586,o),
(155,538,qs),
(155,435,l),
(86,435,l),
(86,347,l),
(155,347,l),
(155,288,l),
(86,288,l),
(86,201,l),
(155,201,l),
(155,195,ls),
(155,152,o),
(146,108,o),
(123,94,o),
(102,94,qs),
(57,94,l),
(57,0,l),
(449,0,ls),
(501,0,o),
(558,30,o),
(582,82,o),
(582,115,qs),
(582,180,l),
(497,180,l),
(497,138,ls),
(497,114,o),
(464,94,o),
(428,94,qs),
(230,94,l),
(240,102,o),
(249,143,o),
(251,178,o),
(251,178,q),
(251,201,l),
(394,201,l),
(394,288,l),
(251,288,l)
);
},
{
closed = 1;
nodes = (
(251,178,o),
(251,178,l),
(251,178,o)
);
}
);
width = 637;
}
);
note = lira;
unicode = 8356;
},
{
glyphname = uni20A6;
layers = (
{
layerId = m01;
shapes = (
{
closed = 1;
nodes = (
(109,745,l),
(104,745,l),
(104,406,l),
(15,406,l),
(15,340,l),
(104,340,l),
(104,0,l),
(203,0,l),
(201,340,l),
(375,340,l),
(731,-23,l),
(734,-23,l),
(734,340,l),
(820,340,l),
(820,406,l),
(734,406,l),
(734,723,l),
(636,723,l),
(637,406,l),
(436,406,l),
(436,406,l)
);
},
{
closed = 1;
nodes = (
(311,406,l),
(201,406,l),
(201,519,l)
);
},
{
closed = 1;
nodes = (
(638,196,l),
(499,340,l),
(637,340,l)
);
}
);
width = 838;
}
);
note = uni20A6;
unicode = 8358;
},
{
glyphname = peseta;
layers = (
{
layerId = m01;
shapes = (
{
closed = 1;
nodes = (
(104,528,l),
(26,528,l),
(26,461,l),
(104,461,l),
(104,0,l),
(201,0,l),
(201,266,l),
(308,266,ls),
(386,266,o),
(487,321,o),
(540,411,o),
(547,461,q),
(608,461,l),
(608,528,l),
(548,528,l),
(538,621,o),
(407,723,o),
(298,723,qs),
(104,723,l)
);
},
{
closed = 1;
nodes = (
(201,630,l),
(313,630,ls),
(365,630,o),
(426,588,o),
(453,526,o),
(453,497,qs),
(453,478,o),
(439,431,o),
(406,387,o),
(350,360,o),
(308,360,qs),
(201,360,l)
);
}
);
width = 622;
}
);
note = peseta;
unicode = 8359;
},
{
glyphname = uni20A9;
layers = (
{
layerId = m01;
shapes = (
{
closed = 1;
nodes = (
(169,385,l),
(329,-33,l),
(508,385,l),
(520,385,l),
(683,-32,l),
(841,385,l),
(958,385,l),
(958,451,l),
(866,451,l),
(968,720,l),
(864,720,l),
(771,451,l),
(590,451,l),
(485,720,l),
(389,720,l),
(466,521,l),
(439,451,l),
(249,451,l),
(154,720,l),
(41,720,l),
(143,451,l),
(65,451,l),
(65,385,l)
);
},
{
closed = 1;
nodes = (
(340,194,l),
(272,385,l),
(413,385,l)
);
},
{
closed = 1;
nodes = (
(686,205,l),
(616,385,l),
(748,385,l)
);
}
);
width = 1008;
}
);
note = uni20A9;
unicode = 8361;
},
{
glyphname = dong;
layers = (
{
layerId = m01;
shapes = (
{
closed = 1;
nodes = (
(408,174,o),
(436,206,q),
(436,143,l),
(530,143,l),
(530,651,l),
(583,651,l),
(583,717,l),
(530,717,l),
(530,782,l),
(437,782,l),
(437,717,l),
(331,717,l),
(331,651,l),
(437,651,l),
(437,502,l),
(412,535,o),
(329,574,o),
(284,574,qs),
(225,574,o),
(130,522,o),
(74,424,o),
(74,356,qs),
(74,289,o),
(126,188,o),
(217,133,o),
(273,133,qs),
(324,133,o)
);
},
{
closed = 1;
nodes = (
(205,251,o),
(169,317,o),
(169,357,qs),
(169,399,o),
(205,463,o),
(266,500,o),
(303,500,qs),
(351,500,o),
(425,442,o),
(436,398,q),
(436,320,l),
(425,271,o),
(354,213,o),
(303,213,qs),
(266,213,o)
);
},
{
closed = 1;
nodes = (
(556,0,l),
(556,66,l),
(90,66,l),
(90,0,l)
);
}
);
width = 620;
}
);
note = dong;
unicode = 8363;
},
{
glyphname = Euro;
layers = (
{
layerId = m01;
shapes = (
{
closed = 1;
nodes = (
(129,246,l),
(150,174,o),
(245,60,o),
(386,-7,o),
(477,-8,qs),
(526,-9,o),
(609,12,o),
(672,42,o),
(690,54,q),
(648,141,l),
(620,119,o),
(535,86,o),
(479,86,qs),
(390,86,o),
(264,174,o),
(235,246,q),
(426,246,l),
(426,323,l),
(217,323,l),
(214,341,o),
(214,361,qs),
(215,373,o),
(215,385,q),
(426,385,l),
(426,462,l),
(232,462,l),
(251,514,o),
(324,593,o),
(420,638,o),
(475,638,qs),
(526,638,o),
(612,602,o),
(641,582,q),
(681,673,l),
(643,696,o),
(536,731,o),
(472,731,qs),
(385,731,o),
(244,663,o),
(146,542,o),
(126,462,q),
(59,462,l),
(59,385,l),
(114,385,l),
(113,371,o),
(113,356,qs),
(114,339,o),
(115,323,q),
(60,323,l),
(60,246,l)
);
}
);
width = 749;
}
);
note = Euro;
unicode = 8364;
},
{
glyphname = uni20AD;
layers = (
{
layerId = m01;
shapes = (
{
closed = 1;
nodes = (
(117,345,l),
(117,0,l),
(215,0,l),
(215,292,l),
(269,345,l),
(280,345,l),
(540,0,l),
(663,0,l),
(399,345,l),
(568,345,l),
(568,438,l),
(371,438,l),
(646,723,l),
(520,723,l),
(247,438,l),
(215,438,l),
(215,723,l),
(117,723,l),
(117,438,l),
(35,438,l),
(35,345,l)
);
}
);
width = 689;
}
);
note = uni20AD;
unicode = 8365;
},
{
glyphname = uni20B1;
layers = (
{
layerId = m01;
shapes = (
{
closed = 1;
nodes = (
(104,588,l),
(15,588,l),
(15,522,l),
(104,522,l),
(104,457,l),
(15,457,l),
(15,391,l),
(104,391,l),
(104,0,l),
(201,0,l),
(201,266,l),
(308,266,ls),
(397,266,o),
(503,338,o),
(527,391,q),
(605,391,l),
(605,457,l),
(546,457,l),
(549,477,o),
(549,499,qs),
(549,510,o),
(548,522,q),
(605,522,l),
(605,588,l),
(534,588,l),
(510,653,o),
(388,723,o),
(298,723,qs),
(104,723,l)
);
},
{
closed = 1;
nodes = (
(201,630,l),
(313,630,ls),
(365,630,o),
(426,588,o),
(453,526,o),
(453,497,qs),
(453,478,o),
(439,431,o),
(406,387,o),
(350,360,o),
(308,360,qs),
(201,360,l)
);
}
);
width = 612;
}
);
note = uni20B1;
unicode = 8369;
},
{
glyphname = uni20B9;
layers = (
{
layerId = m01;
shapes = (
{
closed = 1;
nodes = (
(203,266,o),
(214,267,q),
(384,0,l),
(497,0,l),
(315,291,l),
(368,316,o),
(423,404,o),
(431,454,q),
(512,454,l),
(512,535,l),
(432,535,l),
(424,592,o),
(388,630,q),
(508,630,l),
(508,723,l),
(104,723,l),
(104,630,l),
(196,630,ls),
(255,630,o),
(318,571,o),
(329,535,q),
(106,535,l),
(106,454,l),
(329,454,l),
(319,418,o),
(255,360,o),
(189,360,qs),
(104,360,l),
(104,266,l),
(191,266,ls)
);
}
);
width = 547;
}
);
note = uni20B9;
unicode = 8377;
},
{
glyphname = uni20BA;
layers = (
{
layerId = m01;
shapes = (
{
closed = 1;
nodes = (
(263,417,l),
(434,512,l),
(397,572,l),
(263,497,l),
(263,723,l),
(166,723,l),
(166,444,l),
(23,365,l),
(60,305,l),
(166,363,l),
(166,292,l),
(65,236,l),
(102,176,l),
(166,211,l),
(166,0,l),
(263,0,ls),
(354,0,o),
(507,50,o),
(599,162,o),
(601,256,qs),
(601,272,o),
(598,305,o),
(596,320,q),
(495,295,l),
(496,286,o),
(498,268,o),
(498,257,qs),
(498,197,o),
(438,126,o),
(332,95,o),
(263,94,q),
(263,265,l),
(477,385,l),
(440,445,l),
(263,346,l)
);
}
);
width = 660;
}
);
note = uni20BA;
unicode = 8378;
},
{
glyphname = uni20BC;
layers = (
{
layerId = m01;
shapes = (
{
closed = 1;
nodes = (
(647,-3,l),
(647,467,ls),
(647,539,o),
(587,649,o),
(484,717,o),
(418,725,q),
(418,831,l),
(334,831,l),
(334,725,l),
(268,717,o),
(164,649,o),
(104,538,o),
(104,466,qs),
(104,-3,l),
(200,-3,l),
(200,464,ls),
(200,526,o),
(274,616,o),
(334,629,q),
(334,0,l),
(418,0,l),
(418,629,l),
(475,616,o),
(550,526,o),
(550,464,qs),
(550,-3,l)
);
}
);
width = 751;
}
);
note = uni20BC;
unicode = 8380;
},
{
glyphname = uni20BD;
layers = (
{
layerId = m01;
shapes = (
{
closed = 1;
nodes = (
(104,101,l),
(104,0,l),
(201,0,l),
(201,101,l),
(301,101,l),
(301,187,l),
(201,187,l),
(201,266,l),
(308,266,ls),
(374,266,o),
(466,306,o),
(523,373,o),
(549,456,o),
(549,499,qs),
(549,605,o),
(415,723,o),
(298,723,qs),
(104,723,l),
(104,354,l),
(15,354,l),
(15,268,l),
(104,268,l),
(104,187,l),
(15,187,l),
(15,101,l)
);
},
{
closed = 1;
nodes = (
(201,630,l),
(313,630,ls),
(365,630,o),
(426,588,o),
(453,526,o),
(453,497,qs),
(453,478,o),
(439,431,o),
(406,387,o),
(350,360,o),
(308,360,qs),
(201,360,l)
);
}
);
width = 590;
}
);
note = uni20BD;
unicode = 8381;
},
{
glyphname = uni2116;
layers = (
{
layerId = m01;
shapes = (
{
closed = 1;
nodes = (
(734,723,l),
(637,723,l),
(639,199,l),
(109,745,l),
(104,745,l),
(104,0,l),
(202,0,l),
(200,515,l),
(731,-23,l),
(734,-23,l)
);
},
{
closed = 1;
nodes = (
(879,345,o),
(982,291,o),
(1048,291,qs),
(1116,291,o),
(1219,349,o),
(1276,449,o),
(1276,512,qs),
(1276,574,o),
(1219,673,o),
(1117,732,o),
(1050,732,qs),
(983,732,o),
(879,673,o),
(820,574,o),
(820,512,qs),
(820,444,o)
);
},
{
closed = 1;
nodes = (
(948,615,o),
(1009,654,o),
(1047,654,qs),
(1086,654,o),
(1146,616,o),
(1181,551,o),
(1181,511,qs),
(1181,470,o),
(1146,405,o),
(1086,368,o),
(1047,368,qs),
(1009,368,o),
(949,405,o),
(914,470,o),
(914,511,qs),
(914,549,o)
);
},
{
closed = 1;
nodes = (
(1252,152,l),
(1252,234,l),
(861,234,l),
(861,152,l)
);
}
);
width = 1320;
}
);
note = uni2116;
unicode = 8470;
},
{
glyphname = trademark;
layers = (
{
layerId = m01;
shapes = (
{
closed = 1;
nodes = (
(460,463,l),
(520,463,l),
(520,733,l),
(391,582,l),
(263,733,l),
(263,463,l),
(320,463,l),
(320,592,l),
(391,496,l),
(460,591,l)
);
},
{
closed = 1;
nodes = (
(101,667,l),
(101,463,l),
(163,463,l),
(163,667,l),
(221,667,l),
(221,722,l),
(44,722,l),
(44,667,l)
);
}
);
width = 577;
}
);
note = trademark;
unicode = 8482;
},
{
glyphname = Omega;
layers = (
{
layerId = m01;
shapes = (
{
closed = 1;
nodes = (
(382,0,l),
(382,82,l),
(345,99,o),
(283,162,o),
(245,252,o),
(246,309,qs),
(246,346,o),
(267,423,o),
(311,487,o),
(383,527,o),
(435,526,qs),
(502,526,o),
(583,462,o),
(619,360,o),
(619,304,qs),
(619,224,o),
(549,106,o),
(492,82,q),
(492,0,l),
(709,0,l),
(709,82,l),
(589,82,l),
(632,110,o),
(700,214,o),
(704,306,qs),
(707,388,o),
(649,525,o),
(526,608,o),
(431,608,qs),
(353,608,o),
(231,543,o),
(161,415,o),
(161,322,qs),
(161,254,o),
(195,161,o),
(251,101,o),
(284,82,q),
(155,82,l),
(155,0,l)
);
}
);
width = 833;
}
);
note = Omega;
unicode = 8486;
},
{
glyphname = Delta;
layers = (
{
layerId = m01;
shapes = (
{
closed = 1;
nodes = (
(405,260,l),
(236,738,l),
(68,260,l)
);
},
{
closed = 1;
nodes = (
(145,310,l),
(236,583,l),
(328,310,l)
);
}
);
width = 507;
}
);
note = Delta;
unicode = 8710;
},
{
glyphname = product;
layers = (
{
layerId = m01;
shapes = (
{
closed = 1;
nodes = (
(288,-75,l),
(288,678,l),
(407,678,l),
(407,-75,l),
(491,-75,l),
(491,760,l),
(204,760,l),
(204,-75,l)
);
}
);
width = 721;
}
);
note = product;
unicode = 8719;
},
{
glyphname = summation;
layers = (
{
layerId = m01;
shapes = (
{
closed = 1;
nodes = (
(77,-82,l),
(477,-82,l),
(450,0,l),
(189,0,l),
(283,339,l),
(189,678,l),
(450,678,l),
(477,760,l),
(77,760,l),
(192,339,l)
);
}
);
width = 550;
}
);
note = summation;
unicode = 8721;
},
{
glyphname = minus;
layers = (
{
layerId = m01;
shapes = (
{
closed = 1;
nodes = (
(448,164,l),
(448,246,l),
(84,246,l),
(84,164,l)
);
}
);
width = 642;
}
);
note = minus;
unicode = 8722;
},
{
glyphname = uni2219;
layers = (
{
layerId = m01;
shapes = (
{
closed = 1;
nodes = (
(189,283,o),
(189,316,qs),
(189,349,o),
(142,396,o),
(109,396,qs),
(76,396,o),
(29,349,o),
(29,316,qs),
(29,283,o),
(76,236,o),
(109,236,qs),
(142,236,o)
);
}
);
width = 218;
}
);
note = uni2219;
unicode = 8729;
},
{
glyphname = radical;
layers = (
{
layerId = m01;
shapes = (
{
closed = 1;
nodes = (
(136,353,l),
(18,353,l),
(17,303,l),
(99,303,l),
(236,2,l),
(511,614,l),
(452,614,l),
(236,133,l)
);
}
);
width = 561;
}
);
note = radical;
unicode = 8730;
},
{
glyphname = infinity;
layers = (
{
layerId = m01;
shapes = (
{
closed = 1;
nodes = (
(404,368,o),
(362,396,o),
(328,396,qs),
(270,396,o),
(233,360,q),
(195,396,o),
(138,396,qs),
(104,396,o),
(60,368,o),
(39,327,o),
(39,307,qs),
(39,287,o),
(59,246,o),
(103,218,o),
(138,218,qs),
(195,218,o),
(233,253,q),
(270,218,o),
(327,218,qs),
(362,218,o),
(405,246,o),
(425,287,o),
(425,307,qs),
(425,327,o)
);
},
{
closed = 1;
nodes = (
(163,268,o),
(139,268,qs),
(111,268,o),
(90,292,o),
(90,307,qs),
(90,323,o),
(113,344,o),
(139,344,qs),
(164,344,o),
(208,323,o),
(208,306,qs),
(208,289,o)
);
},
{
closed = 1;
nodes = (
(302,344,o),
(327,344,qs),
(352,344,o),
(375,323,o),
(375,307,qs),
(375,292,o),
(354,268,o),
(327,268,qs),
(303,268,o),
(258,289,o),
(258,306,qs),
(258,323,o)
);
}
);
width = 466;
}
);
note = infinity;
unicode = 8734;
},
{
glyphname = integral;
layers = (
{
layerId = m01;
shapes = (
{
closed = 1;
nodes = (
(294,756,l),
(231,756,ls),
(206,756,o),
(163,753,o),
(130,733,o),
(111,683,o),
(111,636,qs),
(111,36,ls),
(111,-8,o),
(102,-53,o),
(79,-69,o),
(58,-69,qs),
(14,-69,l),
(14,-151,l),
(77,-151,ls),
(101,-151,o),
(144,-148,o),
(177,-129,o),
(197,-79,o),
(197,-32,qs),
(197,570,ls),
(197,613,o),
(206,658,o),
(229,673,o),
(250,673,qs),
(294,673,l)
);
}
);
width = 379;
}
);
note = integral;
unicode = 8747;
},
{
glyphname = notequal;
layers = (
{
layerId = m01;
shapes = (
{
closed = 1;
nodes = (
(175,114,l),
(135,67,o),
(102,28,q),
(151,-14,l),
(174,14,o),
(230,78,o),
(260,114,q),
(614,114,l),
(614,196,l),
(329,196,l),
(354,224,o),
(403,282,o),
(427,310,q),
(614,310,l),
(614,392,l),
(497,392,l),
(522,421,o),
(567,474,o),
(588,498,q),
(541,542,l),
(513,509,o),
(448,433,o),
(413,392,q),
(102,392,l),
(102,310,l),
(343,310,l),
(294,252,o),
(245,196,q),
(102,196,l),
(102,114,l)
);
}
);
width = 717;
}
);
note = notequal;
unicode = 8800;
},
{
glyphname = lessequal;
layers = (
{
layerId = m01;
shapes = (
{
closed = 1;
nodes = (
(207,472,l),
(469,627,l),
(469,728,l),
(27,473,l),
(469,218,l),
(469,320,l)
);
},
{
closed = 1;
nodes = (
(456,61,l),
(456,144,l),
(66,144,l),
(66,61,l)
);
}
);
width = 556;
}
);
note = lessequal;
unicode = 8804;
},
{
glyphname = greaterequal;
layers = (
{
layerId = m01;
shapes = (
{
closed = 1;
nodes = (
(349,469,l),
(74,320,l),
(74,217,l),
(516,473,l),
(74,728,l),
(74,626,l)
);
},
{
closed = 1;
nodes = (
(475,61,l),
(475,144,l),
(73,144,l),
(73,61,l)
);
}
);
width = 556;
}
);
note = greaterequal;
unicode = 8805;
},
{
glyphname = lozenge;
layers = (
{
layerId = m01;
shapes = (
{
closed = 1;
nodes = (
(236,2,l),
(405,370,l),
(236,738,l),
(68,370,l)
);
},
{
closed = 1;
nodes = (
(236,133,l),
(128,370,l),
(236,608,l),
(345,370,l)
);
}
);
width = 463;
}
);
note = lozenge;
unicode = 9674;
},
{
glyphname = fi;
layers = (
{
layerId = m01;
shapes = (
{
closed = 1;
nodes = (
(208,331,l),
(327,331,l),
(327,415,l),
(208,415,l),
(208,588,ls),
(208,648,o),
(249,698,o),
(285,698,qs),
(296,698,o),
(318,691,o),
(327,682,q),
(367,750,l),
(347,763,o),
(296,775,o),
(276,775,qs),
(197,775,o),
(115,679,o),
(115,589,qs),
(115,415,l),
(44,415,l),
(44,331,l),
(115,331,l),
(115,0,l),
(208,0,l)
);
},
{
closed = 1;
nodes = (
(435,512,o),
(456,512,qs),
(476,512,o),
(510,540,o),
(510,564,qs),
(510,586,o),
(476,616,o),
(456,616,qs),
(435,616,o),
(400,586,o),
(400,564,qs),
(400,541,o)
);
},
{
closed = 1;
nodes = (
(500,0,l),
(500,414,l),
(406,414,l),
(406,0,l)
);
}
);
width = 580;
}
);
note = fi;
unicode = 64257;
},
{
glyphname = fl;
layers = (
{
layerId = m01;
shapes = (
{
closed = 1;
nodes = (
(208,331,l),
(327,331,l),
(327,415,l),
(208,415,l),
(208,588,ls),
(208,648,o),
(249,698,o),
(285,698,qs),
(296,698,o),
(318,691,o),
(327,682,q),
(367,750,l),
(347,763,o),
(296,775,o),
(276,775,qs),
(197,775,o),
(115,679,o),
(115,589,qs),
(115,415,l),
(44,415,l),
(44,331,l),
(115,331,l),
(115,0,l),
(208,0,l)
);
},
{
closed = 1;
nodes = (
(500,0,l),
(500,775,l),
(406,775,l),
(406,0,l)
);
}
);
width = 580;
}
);
note = fl;
unicode = 64258;
},
{
glyphname = tildecomb.case;
layers = (
{
layerId = m01;
shapes = (
{
closed = 1;
nodes = (
(400,798,o),
(393,861,q),
(343,861,l),
(343,825,o),
(326,783,o),
(306,783,qs),
(291,783,o),
(265,803,o),
(252,817,qs),
(235,832,o),
(197,861,o),
(171,861,qs),
(125,861,o),
(72,782,o),
(75,723,q),
(126,723,l),
(125,757,o),
(147,798,o),
(167,798,qs),
(181,798,o),
(206,780,o),
(218,769,qs),
(235,753,o),
(276,724,o),
(309,724,qs),
(348,724,o)
);
}
);
width = 0;
}
);
note = tildecomb.case;
},
{
glyphname = uni0311.aalt;
layers = (
{
layerId = m01;
shapes = (
{
closed = 1;
nodes = (
(94,575,o),
(83,489,q),
(147,489,l),
(153,537,o),
(194,601,o),
(233,601,qs),
(272,601,o),
(315,537,o),
(321,489,q),
(385,489,l),
(374,573,o),
(296,665,o),
(233,665,qs),
(170,665,o)
);
}
);
width = 0;
}
);
note = uni0311.aalt;
},
{
glyphname = uni031B.aalt;
layers = (
{
layerId = m01;
shapes = (
{
closed = 1;
nodes = (
(92,470,o),
(155,492,o),
(195,555,o),
(202,618,q),
(132,618,l),
(126,566,o),
(92,528,o),
(50,528,q),
(50,470,l)
);
}
);
width = 0;
}
);
note = uni031B.aalt;
},
